<svg xmlns="http://www.w3.org/2000/svg" xmlns:xlink="http://www.w3.org/1999/xlink" xmlns:lucid="lucid" width="1420" height="960"><g transform="translate(-220 -220)" lucid:page-tab-id="0_0"><path d="M0 0h1870.4v1323.2H0z" fill="#fff"/><path d="M1109 266h511v894H240V240h828zm-869 0h869" stroke="#000" stroke-width="2" fill="#fff"/><use xlink:href="#a" transform="matrix(1,0,0,1,248,240) translate(0 16.6)"/><use xlink:href="#b" transform="matrix(1,0,0,1,248,240) translate(42.95 16.6)"/><use xlink:href="#c" transform="matrix(1,0,0,1,248,240) translate(125.70000000000002 16.6)"/><use xlink:href="#d" transform="matrix(1,0,0,1,248,240) translate(226.55 16.6)"/><path d="M770 808l33.6-28H1070v246.4l-28 33.6H770z" stroke="#000" stroke-width="2" fill="#fff"/><path d="M770 808l33.6-28H1070l-28 28z" stroke="#000" stroke-width="2" fill="#e6e6e6"/><path d="M1042 808l28-28v246.4l-28 33.6z" stroke="#000" stroke-width="2" fill="#ccc"/><use xlink:href="#e" transform="matrix(1,0,0,1,778,816) translate(0 16.6)"/><use xlink:href="#f" transform="matrix(1,0,0,1,778,816) translate(41.95 16.6)"/><use xlink:href="#g" transform="matrix(1,0,0,1,778,816) translate(144.65 16.6)"/><path d="M810 960h200v70H810z" stroke="#000" stroke-width="2" fill="#c7e8ac"/><path d="M790 967.5h40v20h-40zM790 1002.5h40v20h-40z" stroke="#000" stroke-width="2" fill="#c7e8ac"/><use xlink:href="#h" transform="matrix(1,0,0,1,834,967) translate(21.625 14.4)"/><use xlink:href="#i" transform="matrix(1,0,0,1,834,967) translate(92.425 14.4)"/><path d="M810 860h200v70H810z" stroke="#000" stroke-width="2" fill="#c7e8ac"/><path d="M790 867.5h40v20h-40zM790 902.5h40v20h-40z" stroke="#000" stroke-width="2" fill="#c7e8ac"/><use xlink:href="#j" transform="matrix(1,0,0,1,834,867) translate(11.099999999999994 14.4)"/><use xlink:href="#k" transform="matrix(1,0,0,1,834,867) translate(72.94999999999999 14.4)"/><use xlink:href="#l" transform="matrix(1,0,0,1,834,867) translate(49 36)"/><path d="M1240 808l33.6-28H1540v246.4l-28 33.6h-272z" stroke="#000" stroke-width="2" fill="#fff"/><path d="M1240 808l33.6-28H1540l-28 28z" stroke="#000" stroke-width="2" fill="#e6e6e6"/><path d="M1512 808l28-28v246.4l-28 33.6z" stroke="#000" stroke-width="2" fill="#ccc"/><use xlink:href="#m" transform="matrix(1,0,0,1,1248,816) translate(0 16.6)"/><path d="M1281.43 860h215.7v70h-215.7z" stroke="#000" stroke-width="2" fill="#c7e8ac"/><path d="M1261.43 867.5h40v20h-40zM1261.43 902.5h40v20h-40z" stroke="#000" stroke-width="2" fill="#c7e8ac"/><use xlink:href="#n" transform="matrix(1,0,0,1,1308.5714285714284,867) translate(17.674999999999997 14.4)"/><use xlink:href="#o" transform="matrix(1,0,0,1,1308.5714285714284,867) translate(61.575 14.4)"/><use xlink:href="#p" transform="matrix(1,0,0,1,1308.5714285714284,867) translate(12.75 36)"/><use xlink:href="#q" transform="matrix(1,0,0,1,1308.5714285714284,867) translate(86.7 36)"/><use xlink:href="#r" transform="matrix(1,0,0,1,1308.5714285714284,867) translate(96.7 36)"/><path d="M1281.43 960h215.7v70h-215.7z" stroke="#000" stroke-width="2" fill="#fff"/><path d="M1261.43 967.5h40v20h-40zM1261.43 1002.5h40v20h-40z" stroke="#000" stroke-width="2" fill="#fff"/><use xlink:href="#s" transform="matrix(1,0,0,1,1308.5714285714284,967) translate(15.299999999999997 14.4)"/><use xlink:href="#t" transform="matrix(1,0,0,1,1308.5714285714284,967) translate(73.80000000000001 14.4)"/><path d="M770 370l36-30h264v324l-30 36H770z" stroke="#000" stroke-width="2" fill="#fff"/><path d="M770 370l36-30h264l-30 30z" stroke="#000" stroke-width="2" fill="#e6e6e6"/><path d="M1040 370l30-30v324l-30 36z" stroke="#000" stroke-width="2" fill="#ccc"/><use xlink:href="#e" transform="matrix(1,0,0,1,778,378) translate(0 16.6)"/><use xlink:href="#u" transform="matrix(1,0,0,1,778,378) translate(41.95 16.6)"/><use xlink:href="#v" transform="matrix(1,0,0,1,778,378) translate(77.85000000000001 16.6)"/><path d="M815 421h200v100H815z" stroke="#000" stroke-width="2" fill="#fff"/><path d="M795 436h40v20h-40zM795 486h40v20h-40z" stroke="#000" stroke-width="2" fill="#fff"/><use xlink:href="#w" transform="matrix(1,0,0,1,839,431) translate(27.725 14.4)"/><use xlink:href="#x" transform="matrix(1,0,0,1,839,431) translate(70.275 14.4)"/><path d="M845 461h130v40H845z" stroke="#000" stroke-width="2" fill="#c7e8ac"/><use xlink:href="#y" transform="matrix(1,0,0,1,845,461) translate(38.505 24.4)"/><path d="M810 540h200v140H810z" stroke="#000" stroke-width="2" fill="#fff"/><path d="M790 565h40v20h-40zM790 635h40v20h-40z" stroke="#000" stroke-width="2" fill="#fff"/><use xlink:href="#w" transform="matrix(1,0,0,1,834,554) translate(7.799999999999997 14.4)"/><use xlink:href="#z" transform="matrix(1,0,0,1,834,554) translate(50.349999999999994 14.4)"/><use xlink:href="#g" transform="matrix(1,0,0,1,834,554) translate(90.2 14.4)"/><path d="M840 580h130v40H840z" stroke="#000" stroke-width="2" fill="#fff"/><use xlink:href="#A" transform="matrix(1,0,0,1,840,580) translate(19.505000000000003 24.4)"/><use xlink:href="#B" transform="matrix(1,0,0,1,840,580) translate(60.505 24.4)"/><path d="M840 629h130v40H840z" stroke="#000" stroke-width="2" fill="#fff"/><use xlink:href="#A" transform="matrix(1,0,0,1,840,629) translate(18.354999999999997 24.4)"/><use xlink:href="#C" transform="matrix(1,0,0,1,840,629) translate(59.355 24.4)"/><path d="M767.5 474v3h-27.62v-3zm-225-1.5v-3h77.93v3z"/><path d="M542.54 472.5H541v-3h1.54zM769 477h-1.54v-3H769z"/><use xlink:href="#D" transform="matrix(1,0,0,1,620.4270912547529,443.11330798479094) translate(0.005000000000002558 14.4)"/><use xlink:href="#E" transform="matrix(1,0,0,1,620.4270912547529,443.11330798479094) translate(35.005 14.4)"/><use xlink:href="#F" transform="matrix(1,0,0,1,620.4270912547529,443.11330798479094) translate(108.95500000000001 14.4)"/><use xlink:href="#G" transform="matrix(1,0,0,1,620.4270912547529,443.11330798479094) translate(23.830000000000005 36)"/><use xlink:href="#H" transform="matrix(1,0,0,1,620.4270912547529,443.11330798479094) translate(72.73 36)"/><use xlink:href="#I" transform="matrix(1,0,0,1,620.4270912547529,443.11330798479094) translate(26.78 57.6)"/><use xlink:href="#J" transform="matrix(1,0,0,1,620.4270912547529,443.11330798479094) translate(31.78 57.6)"/><path d="M1085.4 481H1071v-2h14.4zm135.1 0h-20.26v-2h20.26z"/><path d="M1071.03 481H1070v-2h1.03zM1235.76 480l-14.26 4.64v-9.28z"/><path d="M1239 480l-18.5 6v-12zm-16.5 3.26l10.03-3.26-10.03-3.26z"/><use xlink:href="#K" transform="matrix(1,0,0,1,1085.388688212928,458.4) translate(0 14.4)"/><use xlink:href="#L" transform="matrix(1,0,0,1,1085.388688212928,458.4) translate(0 36)"/><use xlink:href="#M" transform="matrix(1,0,0,1,1085.388688212928,458.4) translate(10 36)"/><path d="M921 778h-2v-16.4h2zm0-59.6h-2V702h2z"/><path d="M921 702.03h-2V701h2zM921 779h-2v-1.03h2z"/><use xlink:href="#N" transform="matrix(1,0,0,1,875.55,718.4) translate(10.980000000000004 14.4)"/><use xlink:href="#O" transform="matrix(1,0,0,1,875.55,718.4) translate(0.005000000000002558 36)"/><path d="M1113.22 935h-40.9v-2h40.9zM1238 921h-40.88v-2H1238z"/><path d="M1072.36 935h-1.03v-2h1.03zM1239 921h-1.03v-2h1.03z"/><use xlink:href="#P" transform="matrix(1,0,0,1,1113.2166666666665,905.3999999999999) translate(3.480000000000004 14.4)"/><use xlink:href="#Q" transform="matrix(1,0,0,1,1113.2166666666665,905.3999999999999) translate(0.005000000000002558 36)"/><path d="M1072.4 819.45l-1.28-1.53 69.5-58.45h3.1zM1238.9 679.4l-69.5 58.47h-3.1l71.3-60z"/><path d="M1072.43 819.44l-1.43 1.2v-2.6l.14-.13zM1239 679.3l-.14.13-1.3-1.53 1.44-1.2z"/><use xlink:href="#R" transform="matrix(1,0,0,1,1080.55,737.8666666666668) translate(0 14.4)"/><use xlink:href="#S" transform="matrix(1,0,0,1,1080.55,737.8666666666668) translate(79.95 14.4)"/><path d="M300 364l28.8-24H600v211.2L576 580H300z" stroke="#000" stroke-width="2" fill="#fff"/><path d="M300 364l28.8-24H600l-24 24z" stroke="#000" stroke-width="2" fill="#e6e6e6"/><path d="M576 364l24-24v211.2L576 580z" stroke="#000" stroke-width="2" fill="#ccc"/><g><use xlink:href="#T" transform="matrix(1,0,0,1,308,372) translate(0 16.6)"/><use xlink:href="#U" transform="matrix(1,0,0,1,308,372) translate(59.85000000000001 16.6)"/></g><path d="M340 430.5h200v81H340z" stroke="#000" stroke-width="2" fill="#fff"/><path d="M320 440.75h40v20h-40zM320 481.25h40v20h-40z" stroke="#000" stroke-width="2" fill="#fff"/><g><use xlink:href="#V" transform="matrix(1,0,0,1,364,438.6) translate(41.05 14.4)"/></g><path d="M1240 370l36-30h264v324l-30 36h-270z" stroke="#000" stroke-width="2" fill="#fff"/><path d="M1240 370l36-30h264l-30 30z" stroke="#000" stroke-width="2" fill="#e6e6e6"/><path d="M1510 370l30-30v324l-30 36z" stroke="#000" stroke-width="2" fill="#ccc"/><g><use xlink:href="#e" transform="matrix(1,0,0,1,1248,378) translate(0 16.6)"/><use xlink:href="#W" transform="matrix(1,0,0,1,1248,378) translate(41.95 16.6)"/><use xlink:href="#g" transform="matrix(1,0,0,1,1248,378) translate(124.75000000000001 16.6)"/></g><path d="M1280 513.44h200v74.12h-200z" stroke="#000" stroke-width="2" fill="#c7e8ac"/><path d="M1260 521.97h40v20h-40zM1260 559.03h40v20h-40z" stroke="#000" stroke-width="2" fill="#c7e8ac"/><g><use xlink:href="#j" transform="matrix(1,0,0,1,1304,520.8529411764706) translate(11.099999999999994 14.4)"/><use xlink:href="#k" transform="matrix(1,0,0,1,1304,520.8529411764706) translate(72.94999999999999 14.4)"/><use xlink:href="#X" transform="matrix(1,0,0,1,1304,520.8529411764706) translate(44.05 36)"/></g><path d="M1280 605.88h200V680h-200z" stroke="#000" stroke-width="2" fill="#c7e8ac"/><path d="M1260 614.4h40v20h-40zM1260 651.47h40v20h-40z" stroke="#000" stroke-width="2" fill="#c7e8ac"/><g><use xlink:href="#n" transform="matrix(1,0,0,1,1304,613.2941176470589) translate(12.174999999999997 14.4)"/><use xlink:href="#Y" transform="matrix(1,0,0,1,1304,613.2941176470589) translate(56.075 14.4)"/><use xlink:href="#Z" transform="matrix(1,0,0,1,1304,613.2941176470589) translate(11.024999999999991 36)"/><use xlink:href="#aa" transform="matrix(1,0,0,1,1304,613.2941176470589) translate(81.925 36)"/><use xlink:href="#ab" transform="matrix(1,0,0,1,1304,613.2941176470589) translate(97.425 36)"/><use xlink:href="#X" transform="matrix(1,0,0,1,1304,613.2941176470589) translate(44.05 57.6)"/></g><path d="M1278.57 421h200v74.12h-200z" stroke="#000" stroke-width="2" fill="#c7e8ac"/><path d="M1258.57 429.53h40v20h-40zM1258.57 466.6h40v20h-40z" stroke="#000" stroke-width="2" fill="#c7e8ac"/><g><use xlink:href="#ac" transform="matrix(1,0,0,1,1302.5714285714287,428.4117647058824) translate(13.174999999999997 14.4)"/><use xlink:href="#ad" transform="matrix(1,0,0,1,1302.5714285714287,428.4117647058824) translate(85.97500000000001 14.4)"/><use xlink:href="#ae" transform="matrix(1,0,0,1,1302.5714285714287,428.4117647058824) translate(8.125 36)"/><use xlink:href="#X" transform="matrix(1,0,0,1,1302.5714285714287,428.4117647058824) translate(79.97500000000001 36)"/></g><path d="M320 720h260v280H320z" stroke="#000" stroke-width="2" fill="#fff"/><g><use xlink:href="#af" transform="matrix(1,0,0,1,327,727) translate(0 17.77777777777778)"/><use xlink:href="#ag" transform="matrix(1,0,0,1,327,727) translate(0 44.44444444444444)"/><use xlink:href="#ah" transform="matrix(1,0,0,1,327,727) translate(18.51851851851852 44.44444444444444)"/></g><path d="M332.5 806H560v64H332.5z" stroke="#000" stroke-width="2" fill="#c7e8ac"/><g><use xlink:href="#ai" transform="matrix(1,0,0,1,332.5,806) translate(26.62999999999999 34.4)"/><use xlink:href="#aj" transform="matrix(1,0,0,1,332.5,806) translate(99.48 34.4)"/></g><path d="M332.5 900H560v64H332.5z" stroke="#000" stroke-width="2" fill="#fff"/><g><use xlink:href="#ak" transform="matrix(1,0,0,1,332.5,900) translate(15.154999999999982 34.4)"/><use xlink:href="#aj" transform="matrix(1,0,0,1,332.5,900) translate(110.955 34.4)"/></g><defs><path d="M30-248c118-7 216 8 213 122C240-48 200 0 122 0H30v-248zM63-27c89 8 146-16 146-99s-60-101-146-95v194" id="al"/><path d="M141-36C126-15 110 5 73 4 37 3 15-17 15-53c-1-64 63-63 125-63 3-35-9-54-41-54-24 1-41 7-42 31l-33-3c5-37 33-52 76-52 45 0 72 20 72 64v82c-1 20 7 32 28 27v20c-31 9-61-2-59-35zM48-53c0 20 12 33 32 33 41-3 63-29 60-74-43 2-92-5-92 41" id="am"/><path d="M59-47c-2 24 18 29 38 22v24C64 9 27 4 27-40v-127H5v-23h24l9-43h21v43h35v23H59v120" id="an"/><g id="a"><use transform="matrix(0.05,0,0,0.05,0,0)" xlink:href="#al"/><use transform="matrix(0.05,0,0,0.05,12.950000000000001,0)" xlink:href="#am"/><use transform="matrix(0.05,0,0,0.05,22.950000000000003,0)" xlink:href="#an"/><use transform="matrix(0.05,0,0,0.05,27.950000000000003,0)" xlink:href="#am"/></g><path d="M212-179c-10-28-35-45-73-45-59 0-87 40-87 99 0 60 29 101 89 101 43 0 62-24 78-52l27 14C228-24 195 4 139 4 59 4 22-46 18-125c-6-104 99-153 187-111 19 9 31 26 39 46" id="ao"/><path d="M100-194c62-1 85 37 85 99 1 63-27 99-86 99S16-35 15-95c0-66 28-99 85-99zM99-20c44 1 53-31 53-75 0-43-8-75-51-75s-53 32-53 75 10 74 51 75" id="ap"/><path d="M117-194c89-4 53 116 60 194h-32v-121c0-31-8-49-39-48C34-167 62-67 57 0H25l-1-190h30c1 10-1 24 2 32 11-22 29-35 61-36" id="aq"/><path d="M114-163C36-179 61-72 57 0H25l-1-190h30c1 12-1 29 2 39 6-27 23-49 58-41v29" id="ar"/><path d="M24 0v-261h32V0H24" id="as"/><path d="M100-194c63 0 86 42 84 106H49c0 40 14 67 53 68 26 1 43-12 49-29l28 8c-11 28-37 45-77 45C44 4 14-33 15-96c1-61 26-98 85-98zm52 81c6-60-76-77-97-28-3 7-6 17-6 28h103" id="at"/><g id="b"><use transform="matrix(0.05,0,0,0.05,0,0)" xlink:href="#ao"/><use transform="matrix(0.05,0,0,0.05,12.950000000000001,0)" xlink:href="#ap"/><use transform="matrix(0.05,0,0,0.05,22.950000000000003,0)" xlink:href="#aq"/><use transform="matrix(0.05,0,0,0.05,32.95,0)" xlink:href="#an"/><use transform="matrix(0.05,0,0,0.05,37.95,0)" xlink:href="#ar"/><use transform="matrix(0.05,0,0,0.05,43.900000000000006,0)" xlink:href="#ap"/><use transform="matrix(0.05,0,0,0.05,53.900000000000006,0)" xlink:href="#as"/><use transform="matrix(0.05,0,0,0.05,57.85,0)" xlink:href="#as"/><use transform="matrix(0.05,0,0,0.05,61.80000000000001,0)" xlink:href="#at"/><use transform="matrix(0.05,0,0,0.05,71.80000000000001,0)" xlink:href="#ar"/></g><path d="M115-194c55 1 70 41 70 98S169 2 115 4C84 4 66-9 55-30l1 105H24l-1-265h31l2 30c10-21 28-34 59-34zm-8 174c40 0 45-34 45-75s-6-73-45-74c-42 0-51 32-51 76 0 43 10 73 51 73" id="au"/><path d="M179-190L93 31C79 59 56 82 12 73V49c39 6 53-20 64-50L1-190h34L92-34l54-156h33" id="av"/><path d="M210-169c-67 3-38 105-44 169h-31v-121c0-29-5-50-35-48C34-165 62-65 56 0H25l-1-190h30c1 10-1 24 2 32 10-44 99-50 107 0 11-21 27-35 58-36 85-2 47 119 55 194h-31v-121c0-29-5-49-35-48" id="aw"/><g id="c"><use transform="matrix(0.05,0,0,0.05,0,0)" xlink:href="#al"/><use transform="matrix(0.05,0,0,0.05,12.950000000000001,0)" xlink:href="#at"/><use transform="matrix(0.05,0,0,0.05,22.950000000000003,0)" xlink:href="#au"/><use transform="matrix(0.05,0,0,0.05,32.95,0)" xlink:href="#as"/><use transform="matrix(0.05,0,0,0.05,36.900000000000006,0)" xlink:href="#ap"/><use transform="matrix(0.05,0,0,0.05,46.900000000000006,0)" xlink:href="#av"/><use transform="matrix(0.05,0,0,0.05,55.900000000000006,0)" xlink:href="#aw"/><use transform="matrix(0.05,0,0,0.05,70.85000000000001,0)" xlink:href="#at"/><use transform="matrix(0.05,0,0,0.05,80.85000000000001,0)" xlink:href="#aq"/><use transform="matrix(0.05,0,0,0.05,90.85000000000001,0)" xlink:href="#an"/></g><path d="M24-231v-30h32v30H24zM24 0v-190h32V0H24" id="ax"/><path d="M177-190C167-65 218 103 67 71c-23-6-38-20-44-43l32-5c15 47 100 32 89-28v-30C133-14 115 1 83 1 29 1 15-40 15-95c0-56 16-97 71-98 29-1 48 16 59 35 1-10 0-23 2-32h30zM94-22c36 0 50-32 50-73 0-42-14-75-50-75-39 0-46 34-46 75s6 73 46 73" id="ay"/><g id="d"><use transform="matrix(0.05,0,0,0.05,0,0)" xlink:href="#al"/><use transform="matrix(0.05,0,0,0.05,12.950000000000001,0)" xlink:href="#ax"/><use transform="matrix(0.05,0,0,0.05,16.900000000000002,0)" xlink:href="#am"/><use transform="matrix(0.05,0,0,0.05,26.900000000000002,0)" xlink:href="#ay"/><use transform="matrix(0.05,0,0,0.05,36.900000000000006,0)" xlink:href="#ar"/><use transform="matrix(0.05,0,0,0.05,42.85000000000001,0)" xlink:href="#am"/><use transform="matrix(0.05,0,0,0.05,52.85,0)" xlink:href="#aw"/></g><path d="M169-182c-1-43-94-46-97-3 18 66 151 10 154 114 3 95-165 93-204 36-6-8-10-19-12-30l50-8c3 46 112 56 116 5-17-69-150-10-154-114-4-87 153-88 188-35 5 8 8 18 10 28" id="az"/><path d="M199 0l-22-63H83L61 0H9l90-248h61L250 0h-51zm-33-102l-36-108c-10 38-24 72-36 108h72" id="aA"/><g id="e"><use transform="matrix(0.05,0,0,0.05,0,0)" xlink:href="#az"/><use transform="matrix(0.05,0,0,0.05,12,0)" xlink:href="#aA"/><use transform="matrix(0.05,0,0,0.05,24.950000000000003,0)" xlink:href="#az"/></g><path d="M135-194c53 0 70 44 70 98 0 56-19 98-73 100-31 1-45-17-59-34 3 33 2 69 2 105H25l-1-265h48c2 10 0 23 3 31 11-24 29-35 60-35zM114-30c33 0 39-31 40-66 0-38-9-64-40-64-56 0-55 130 0 130" id="aB"/><path d="M25 0v-261h50V0H25" id="aC"/><path d="M25-224v-37h50v37H25zM25 0v-190h50V0H25" id="aD"/><path d="M190-63c-7 42-38 67-86 67-59 0-84-38-90-98-12-110 154-137 174-36l-49 2c-2-19-15-32-35-32-30 0-35 28-38 64-6 74 65 87 74 30" id="aE"/><path d="M133-34C117-15 103 5 69 4 32 3 11-16 11-54c-1-60 55-63 116-61 1-26-3-47-28-47-18 1-26 9-28 27l-52-2c7-38 36-58 82-57s74 22 75 68l1 82c-1 14 12 18 25 15v27c-30 8-71 5-69-32zm-48 3c29 0 43-24 42-57-32 0-66-3-65 30 0 17 8 27 23 27" id="aF"/><path d="M115-3C79 11 28 4 28-45v-112H4v-33h27l15-45h31v45h36v33H77v99c-1 23 16 31 38 25v30" id="aG"/><path d="M110-194c64 0 96 36 96 99 0 64-35 99-97 99-61 0-95-36-95-99 0-62 34-99 96-99zm-1 164c35 0 45-28 45-65 0-40-10-65-43-65-34 0-45 26-45 65 0 36 10 65 43 65" id="aH"/><path d="M135-194c87-1 58 113 63 194h-50c-7-57 23-157-34-157-59 0-34 97-39 157H25l-1-190h47c2 12-1 28 3 38 12-26 28-41 61-42" id="aI"/><g id="f"><use transform="matrix(0.05,0,0,0.05,0,0)" xlink:href="#aA"/><use transform="matrix(0.05,0,0,0.05,12.950000000000001,0)" xlink:href="#aB"/><use transform="matrix(0.05,0,0,0.05,23.900000000000002,0)" xlink:href="#aB"/><use transform="matrix(0.05,0,0,0.05,34.85,0)" xlink:href="#aC"/><use transform="matrix(0.05,0,0,0.05,39.85,0)" xlink:href="#aD"/><use transform="matrix(0.05,0,0,0.05,44.85,0)" xlink:href="#aE"/><use transform="matrix(0.05,0,0,0.05,54.85,0)" xlink:href="#aF"/><use transform="matrix(0.05,0,0,0.05,64.85,0)" xlink:href="#aG"/><use transform="matrix(0.05,0,0,0.05,70.8,0)" xlink:href="#aD"/><use transform="matrix(0.05,0,0,0.05,75.8,0)" xlink:href="#aH"/><use transform="matrix(0.05,0,0,0.05,86.75,0)" xlink:href="#aI"/></g><path d="M185-48c-13 30-37 53-82 52C43 2 14-33 14-96s30-98 90-98c62 0 83 45 84 108H66c0 31 8 55 39 56 18 0 30-7 34-22zm-45-69c5-46-57-63-70-21-2 6-4 13-4 21h74" id="aJ"/><path d="M135-150c-39-12-60 13-60 57V0H25l-1-190h47c2 13-1 29 3 40 6-28 27-53 61-41v41" id="aK"/><path d="M128 0H69L1-190h53L99-40l48-150h52" id="aL"/><g id="g"><use transform="matrix(0.05,0,0,0.05,0,0)" xlink:href="#az"/><use transform="matrix(0.05,0,0,0.05,12,0)" xlink:href="#aJ"/><use transform="matrix(0.05,0,0,0.05,22,0)" xlink:href="#aK"/><use transform="matrix(0.05,0,0,0.05,29,0)" xlink:href="#aL"/><use transform="matrix(0.05,0,0,0.05,39,0)" xlink:href="#aJ"/><use transform="matrix(0.05,0,0,0.05,49,0)" xlink:href="#aK"/></g><path d="M195-6C206 82 75 100 31 46c-4-6-6-13-8-21l49-6c3 16 16 24 34 25 40 0 42-37 40-79-11 22-30 35-61 35-53 0-70-43-70-97 0-56 18-96 73-97 30 0 46 14 59 34l2-30h47zm-90-29c32 0 41-27 41-63 0-35-9-62-40-62-32 0-39 29-40 63 0 36 9 62 39 62" id="aM"/><g id="h"><use transform="matrix(0.05,0,0,0.05,0,0)" xlink:href="#az"/><use transform="matrix(0.05,0,0,0.05,12,0)" xlink:href="#aG"/><use transform="matrix(0.05,0,0,0.05,17.95,0)" xlink:href="#aF"/><use transform="matrix(0.05,0,0,0.05,27.950000000000003,0)" xlink:href="#aM"/><use transform="matrix(0.05,0,0,0.05,38.9,0)" xlink:href="#aD"/><use transform="matrix(0.05,0,0,0.05,43.9,0)" xlink:href="#aI"/><use transform="matrix(0.05,0,0,0.05,54.85,0)" xlink:href="#aM"/></g><g id="i"><use transform="matrix(0.05,0,0,0.05,0,0)" xlink:href="#aA"/><use transform="matrix(0.05,0,0,0.05,12.950000000000001,0)" xlink:href="#aK"/><use transform="matrix(0.05,0,0,0.05,19.950000000000003,0)" xlink:href="#aJ"/><use transform="matrix(0.05,0,0,0.05,29.950000000000003,0)" xlink:href="#aF"/></g><path d="M88-194c31-1 46 15 58 34l-1-101h50l1 261h-48c-2-10 0-23-3-31C134-8 116 4 84 4 32 4 16-41 15-95c0-56 19-97 73-99zm17 164c33 0 40-30 41-66 1-37-9-64-41-64s-38 30-39 65c0 43 13 65 39 65" id="aN"/><g id="j"><use transform="matrix(0.05,0,0,0.05,0,0)" xlink:href="#az"/><use transform="matrix(0.05,0,0,0.05,12,0)" xlink:href="#aG"/><use transform="matrix(0.05,0,0,0.05,17.95,0)" xlink:href="#aH"/><use transform="matrix(0.05,0,0,0.05,28.899999999999995,0)" xlink:href="#aK"/><use transform="matrix(0.05,0,0,0.05,35.9,0)" xlink:href="#aJ"/><use transform="matrix(0.05,0,0,0.05,45.9,0)" xlink:href="#aN"/></g><path d="M24-248c93 1 206-16 204 79-1 75-69 88-152 82V0H24v-248zm52 121c47 0 100 7 100-41 0-47-54-39-100-39v80" id="aO"/><path d="M137-138c1-29-70-34-71-4 15 46 118 7 119 86 1 83-164 76-172 9l43-7c4 19 20 25 44 25 33 8 57-30 24-41C81-84 22-81 20-136c-2-80 154-74 161-7" id="aP"/><g id="k"><use transform="matrix(0.05,0,0,0.05,0,0)" xlink:href="#aO"/><use transform="matrix(0.05,0,0,0.05,12,0)" xlink:href="#aK"/><use transform="matrix(0.05,0,0,0.05,19,0)" xlink:href="#aH"/><use transform="matrix(0.05,0,0,0.05,29.950000000000003,0)" xlink:href="#aE"/><use transform="matrix(0.05,0,0,0.05,39.95,0)" xlink:href="#aJ"/><use transform="matrix(0.05,0,0,0.05,49.95,0)" xlink:href="#aP"/><use transform="matrix(0.05,0,0,0.05,59.95,0)" xlink:href="#aP"/></g><g id="l"><use transform="matrix(0.05,0,0,0.05,0,0)" xlink:href="#az"/><use transform="matrix(0.05,0,0,0.05,12,0)" xlink:href="#aJ"/><use transform="matrix(0.05,0,0,0.05,22,0)" xlink:href="#aK"/><use transform="matrix(0.05,0,0,0.05,29,0)" xlink:href="#aL"/><use transform="matrix(0.05,0,0,0.05,39,0)" xlink:href="#aJ"/><use transform="matrix(0.05,0,0,0.05,49,0)" xlink:href="#aK"/></g><path d="M24-248c120-7 223 5 221 122C244-46 201 0 124 0H24v-248zM76-40c74 7 117-18 117-86 0-67-45-88-117-82v168" id="aQ"/><path d="M135-194c52 0 70 43 70 98 0 56-19 99-73 100-30 1-46-15-58-35L72 0H24l1-261h50v104c11-23 29-37 60-37zM114-30c31 0 40-27 40-66 0-37-7-63-39-63s-41 28-41 65c0 36 8 64 40 64" id="aR"/><path d="M67-93c0 74 22 123 53 168H70C40 30 18-18 18-93s22-123 52-168h50c-32 44-53 94-53 168" id="aS"/><path d="M102-93c0 74-22 123-52 168H0C30 29 54-18 53-93c0-74-22-123-53-168h50c30 45 52 94 52 168" id="aT"/><g id="m"><use transform="matrix(0.05,0,0,0.05,0,0)" xlink:href="#aQ"/><use transform="matrix(0.05,0,0,0.05,12.950000000000001,0)" xlink:href="#aF"/><use transform="matrix(0.05,0,0,0.05,22.950000000000003,0)" xlink:href="#aG"/><use transform="matrix(0.05,0,0,0.05,28.900000000000002,0)" xlink:href="#aF"/><use transform="matrix(0.05,0,0,0.05,38.900000000000006,0)" xlink:href="#aR"/><use transform="matrix(0.05,0,0,0.05,49.85000000000001,0)" xlink:href="#aF"/><use transform="matrix(0.05,0,0,0.05,59.85,0)" xlink:href="#aP"/><use transform="matrix(0.05,0,0,0.05,69.85000000000001,0)" xlink:href="#aJ"/><use transform="matrix(0.05,0,0,0.05,79.85000000000001,0)" xlink:href="#aS"/><use transform="matrix(0.05,0,0,0.05,85.80000000000001,0)" xlink:href="#aP"/><use transform="matrix(0.05,0,0,0.05,95.80000000000001,0)" xlink:href="#aT"/></g><g id="n"><use transform="matrix(0.05,0,0,0.05,0,0)" xlink:href="#aQ"/><use transform="matrix(0.05,0,0,0.05,12.950000000000001,0)" xlink:href="#aF"/><use transform="matrix(0.05,0,0,0.05,22.950000000000003,0)" xlink:href="#aG"/><use transform="matrix(0.05,0,0,0.05,28.900000000000002,0)" xlink:href="#aF"/></g><path d="M67-125c0 53 21 87 73 88 37 1 54-22 65-47l45 17C233-25 199 4 140 4 58 4 20-42 15-125 8-235 124-281 211-232c18 10 29 29 36 50l-46 12c-8-25-30-41-62-41-52 0-71 34-72 86" id="aU"/><g id="o"><use transform="matrix(0.05,0,0,0.05,0,0)" xlink:href="#aU"/><use transform="matrix(0.05,0,0,0.05,12.950000000000001,0)" xlink:href="#aH"/><use transform="matrix(0.05,0,0,0.05,23.900000000000002,0)" xlink:href="#aI"/><use transform="matrix(0.05,0,0,0.05,34.85,0)" xlink:href="#aG"/><use transform="matrix(0.05,0,0,0.05,40.800000000000004,0)" xlink:href="#aK"/><use transform="matrix(0.05,0,0,0.05,47.800000000000004,0)" xlink:href="#aH"/><use transform="matrix(0.05,0,0,0.05,58.75,0)" xlink:href="#aC"/><use transform="matrix(0.05,0,0,0.05,63.75,0)" xlink:href="#aC"/><use transform="matrix(0.05,0,0,0.05,68.75,0)" xlink:href="#aJ"/><use transform="matrix(0.05,0,0,0.05,78.75,0)" xlink:href="#aK"/></g><path d="M114-157C55-157 80-60 75 0H25v-261h50l-1 109c12-26 28-41 61-42 86-1 58 113 63 194h-50c-7-57 23-157-34-157" id="aV"/><path d="M220-157c-53 9-28 100-34 157h-49v-107c1-27-5-49-29-50C55-147 81-57 75 0H25l-1-190h47c2 12-1 28 3 38 10-53 101-56 108 0 13-22 24-43 59-42 82 1 51 116 57 194h-49v-107c-1-25-5-48-29-50" id="aW"/><g id="p"><use transform="matrix(0.05,0,0,0.05,0,0)" xlink:href="#az"/><use transform="matrix(0.05,0,0,0.05,12,0)" xlink:href="#aE"/><use transform="matrix(0.05,0,0,0.05,22,0)" xlink:href="#aV"/><use transform="matrix(0.05,0,0,0.05,32.95,0)" xlink:href="#aJ"/><use transform="matrix(0.05,0,0,0.05,42.95,0)" xlink:href="#aW"/><use transform="matrix(0.05,0,0,0.05,58.95,0)" xlink:href="#aF"/></g><path d="M4 7l51-268h42L46 7H4" id="aX"/><use transform="matrix(0.05,0,0,0.05,0,0)" xlink:href="#aX" id="q"/><path d="M136-208V0H84v-208H4v-40h212v40h-80" id="aY"/><g id="r"><use transform="matrix(0.05,0,0,0.05,0,0)" xlink:href="#aY"/><use transform="matrix(0.05,0,0,0.05,9.600000000000001,0)" xlink:href="#aF"/><use transform="matrix(0.05,0,0,0.05,19.6,0)" xlink:href="#aR"/><use transform="matrix(0.05,0,0,0.05,30.55,0)" xlink:href="#aC"/><use transform="matrix(0.05,0,0,0.05,35.550000000000004,0)" xlink:href="#aJ"/><use transform="matrix(0.05,0,0,0.05,45.550000000000004,0)" xlink:href="#aP"/></g><g id="s"><use transform="matrix(0.05,0,0,0.05,0,0)" xlink:href="#aY"/><use transform="matrix(0.05,0,0,0.05,9.600000000000001,0)" xlink:href="#aF"/><use transform="matrix(0.05,0,0,0.05,19.6,0)" xlink:href="#aK"/><use transform="matrix(0.05,0,0,0.05,26.6,0)" xlink:href="#aM"/><use transform="matrix(0.05,0,0,0.05,37.550000000000004,0)" xlink:href="#aJ"/><use transform="matrix(0.05,0,0,0.05,47.550000000000004,0)" xlink:href="#aG"/></g><path d="M24 0v-248h52v208h133V0H24" id="aZ"/><g id="t"><use transform="matrix(0.05,0,0,0.05,0,0)" xlink:href="#aZ"/><use transform="matrix(0.05,0,0,0.05,10.950000000000001,0)" xlink:href="#aD"/><use transform="matrix(0.05,0,0,0.05,15.950000000000001,0)" xlink:href="#aR"/><use transform="matrix(0.05,0,0,0.05,26.900000000000002,0)" xlink:href="#aK"/><use transform="matrix(0.05,0,0,0.05,33.900000000000006,0)" xlink:href="#aF"/><use transform="matrix(0.05,0,0,0.05,43.900000000000006,0)" xlink:href="#aK"/><use transform="matrix(0.05,0,0,0.05,50.900000000000006,0)" xlink:href="#aD"/><use transform="matrix(0.05,0,0,0.05,55.900000000000006,0)" xlink:href="#aJ"/><use transform="matrix(0.05,0,0,0.05,65.9,0)" xlink:href="#aP"/></g><path d="M230 0l2-204L168 0h-37L68-204 70 0H24v-248h70l56 185 57-185h69V0h-46" id="ba"/><g id="u"><use transform="matrix(0.05,0,0,0.05,0,0)" xlink:href="#ba"/><use transform="matrix(0.05,0,0,0.05,14.950000000000001,0)" xlink:href="#aD"/><use transform="matrix(0.05,0,0,0.05,19.950000000000003,0)" xlink:href="#aN"/></g><g id="v"><use transform="matrix(0.05,0,0,0.05,0,0)" xlink:href="#aY"/><use transform="matrix(0.05,0,0,0.05,10.600000000000001,0)" xlink:href="#aD"/><use transform="matrix(0.05,0,0,0.05,15.600000000000001,0)" xlink:href="#aJ"/><use transform="matrix(0.05,0,0,0.05,25.6,0)" xlink:href="#aK"/></g><path d="M275 0h-61l-44-196L126 0H64L0-248h53L97-49l45-199h58l43 199 44-199h52" id="bb"/><g id="w"><use transform="matrix(0.05,0,0,0.05,0,0)" xlink:href="#bb"/><use transform="matrix(0.05,0,0,0.05,16.599999999999998,0)" xlink:href="#aJ"/><use transform="matrix(0.05,0,0,0.05,26.599999999999994,0)" xlink:href="#aR"/></g><g id="x"><use transform="matrix(0.05,0,0,0.05,0,0)" xlink:href="#az"/><use transform="matrix(0.05,0,0,0.05,12,0)" xlink:href="#aJ"/><use transform="matrix(0.05,0,0,0.05,22,0)" xlink:href="#aK"/><use transform="matrix(0.05,0,0,0.05,29,0)" xlink:href="#aL"/><use transform="matrix(0.05,0,0,0.05,39,0)" xlink:href="#aJ"/><use transform="matrix(0.05,0,0,0.05,49,0)" xlink:href="#aK"/></g><path d="M106-169C34-169 62-67 57 0H25v-261h32l-1 103c12-21 28-36 61-36 89 0 53 116 60 194h-32v-121c2-32-8-49-39-48" id="bc"/><path d="M85-194c31 0 48 13 60 33l-1-100h32l1 261h-30c-2-10 0-23-3-31C134-8 116 4 85 4 32 4 16-35 15-94c0-66 23-100 70-100zm9 24c-40 0-46 34-46 75 0 40 6 74 45 74 42 0 51-32 51-76 0-42-9-74-50-73" id="bd"/><path d="M96-169c-40 0-48 33-48 73s9 75 48 75c24 0 41-14 43-38l32 2c-6 37-31 61-74 61-59 0-76-41-82-99-10-93 101-131 147-64 4 7 5 14 7 22l-32 3c-4-21-16-35-41-35" id="be"/><path d="M135-143c-3-34-86-38-87 0 15 53 115 12 119 90S17 21 10-45l28-5c4 36 97 45 98 0-10-56-113-15-118-90-4-57 82-63 122-42 12 7 21 19 24 35" id="bf"/><g id="y"><use transform="matrix(0.05,0,0,0.05,0,0)" xlink:href="#bc"/><use transform="matrix(0.05,0,0,0.05,10,0)" xlink:href="#an"/><use transform="matrix(0.05,0,0,0.05,15,0)" xlink:href="#bd"/><use transform="matrix(0.05,0,0,0.05,25,0)" xlink:href="#ap"/><use transform="matrix(0.05,0,0,0.05,35,0)" xlink:href="#be"/><use transform="matrix(0.05,0,0,0.05,44,0)" xlink:href="#bf"/></g><g id="z"><use transform="matrix(0.05,0,0,0.05,0,0)" xlink:href="#aA"/><use transform="matrix(0.05,0,0,0.05,12.950000000000001,0)" xlink:href="#aB"/><use transform="matrix(0.05,0,0,0.05,23.900000000000002,0)" xlink:href="#aB"/></g><path d="M185-189c-5-48-123-54-124 2 14 75 158 14 163 119 3 78-121 87-175 55-17-10-28-26-33-46l33-7c5 56 141 63 141-1 0-78-155-14-162-118-5-82 145-84 179-34 5 7 8 16 11 25" id="bg"/><path d="M205 0l-28-72H64L36 0H1l101-248h38L239 0h-34zm-38-99l-47-123c-12 45-31 82-46 123h93" id="bh"/><g id="A"><use transform="matrix(0.05,0,0,0.05,0,0)" xlink:href="#bg"/><use transform="matrix(0.05,0,0,0.05,12,0)" xlink:href="#bh"/><use transform="matrix(0.05,0,0,0.05,24,0)" xlink:href="#bg"/></g><path d="M30 0v-248h33v221h125V0H30" id="bi"/><g id="B"><use transform="matrix(0.05,0,0,0.05,0,0)" xlink:href="#bi"/><use transform="matrix(0.05,0,0,0.05,10,0)" xlink:href="#ap"/><use transform="matrix(0.05,0,0,0.05,20,0)" xlink:href="#ay"/><use transform="matrix(0.05,0,0,0.05,30,0)" xlink:href="#ap"/><use transform="matrix(0.05,0,0,0.05,40,0)" xlink:href="#aq"/></g><path d="M30-248c87 1 191-15 191 75 0 78-77 80-158 76V0H30v-248zm33 125c57 0 124 11 124-50 0-59-68-47-124-48v98" id="bj"/><path d="M266 0h-40l-56-210L115 0H75L2-248h35L96-30l15-64 43-154h32l59 218 59-218h35" id="bk"/><g id="C"><use transform="matrix(0.05,0,0,0.05,0,0)" xlink:href="#bg"/><use transform="matrix(0.05,0,0,0.05,12,0)" xlink:href="#bj"/><use transform="matrix(0.05,0,0,0.05,24,0)" xlink:href="#bk"/><use transform="matrix(0.05,0,0,0.05,40.3,0)" xlink:href="#bh"/></g><g id="D"><use transform="matrix(0.05,0,0,0.05,0,0)" xlink:href="#bc"/><use transform="matrix(0.05,0,0,0.05,10,0)" xlink:href="#an"/><use transform="matrix(0.05,0,0,0.05,15,0)" xlink:href="#an"/><use transform="matrix(0.05,0,0,0.05,20,0)" xlink:href="#au"/></g><path d="M145-31C134-9 116 4 85 4 32 4 16-35 15-94c0-59 17-99 70-100 32-1 48 14 60 33 0-11-1-24 2-32h30l-1 268h-32zM93-21c41 0 51-33 51-76s-8-73-50-73c-40 0-46 35-46 75s5 74 45 74" id="bl"/><path d="M84 4C-5 8 30-112 23-190h32v120c0 31 7 50 39 49 72-2 45-101 50-169h31l1 190h-30c-1-10 1-25-2-33-11 22-28 36-60 37" id="bm"/><g id="E"><use transform="matrix(0.05,0,0,0.05,0,0)" xlink:href="#ar"/><use transform="matrix(0.05,0,0,0.05,5.95,0)" xlink:href="#at"/><use transform="matrix(0.05,0,0,0.05,15.949999999999998,0)" xlink:href="#bl"/><use transform="matrix(0.05,0,0,0.05,25.950000000000003,0)" xlink:href="#bm"/><use transform="matrix(0.05,0,0,0.05,35.95,0)" xlink:href="#at"/><use transform="matrix(0.05,0,0,0.05,45.95,0)" xlink:href="#bf"/><use transform="matrix(0.05,0,0,0.05,54.95,0)" xlink:href="#an"/><use transform="matrix(0.05,0,0,0.05,59.95,0)" xlink:href="#bf"/></g><path d="M118-107v75H92v-75H18v-26h74v-75h26v75h74v26h-74" id="bn"/><use transform="matrix(0.05,0,0,0.05,0,0)" xlink:href="#bn" id="F"/><g id="G"><use transform="matrix(0.05,0,0,0.05,0,0)" xlink:href="#bd"/><use transform="matrix(0.05,0,0,0.05,10,0)" xlink:href="#ax"/><use transform="matrix(0.05,0,0,0.05,13.949999999999998,0)" xlink:href="#ar"/><use transform="matrix(0.05,0,0,0.05,19.9,0)" xlink:href="#at"/><use transform="matrix(0.05,0,0,0.05,29.899999999999995,0)" xlink:href="#be"/><use transform="matrix(0.05,0,0,0.05,38.9,0)" xlink:href="#an"/></g><path d="M101-234c-31-9-42 10-38 44h38v23H63V0H32v-167H5v-23h27c-7-52 17-82 69-68v24" id="bo"/><g id="H"><use transform="matrix(0.05,0,0,0.05,0,0)" xlink:href="#bo"/><use transform="matrix(0.05,0,0,0.05,5,0)" xlink:href="#ax"/><use transform="matrix(0.05,0,0,0.05,8.95,0)" xlink:href="#as"/><use transform="matrix(0.05,0,0,0.05,12.899999999999999,0)" xlink:href="#at"/></g><g id="J"><use transform="matrix(0.05,0,0,0.05,0,0)" xlink:href="#an"/><use transform="matrix(0.05,0,0,0.05,5,0)" xlink:href="#ar"/><use transform="matrix(0.05,0,0,0.05,10.95,0)" xlink:href="#am"/><use transform="matrix(0.05,0,0,0.05,20.95,0)" xlink:href="#aq"/><use transform="matrix(0.05,0,0,0.05,30.950000000000003,0)" xlink:href="#bf"/><use transform="matrix(0.05,0,0,0.05,39.95,0)" xlink:href="#bo"/><use transform="matrix(0.05,0,0,0.05,44.95,0)" xlink:href="#at"/><use transform="matrix(0.05,0,0,0.05,54.95,0)" xlink:href="#ar"/></g><g id="K"><use transform="matrix(0.05,0,0,0.05,0,0)" xlink:href="#bh"/><use transform="matrix(0.05,0,0,0.05,12,0)" xlink:href="#bm"/><use transform="matrix(0.05,0,0,0.05,22,0)" xlink:href="#an"/><use transform="matrix(0.05,0,0,0.05,27,0)" xlink:href="#bc"/><use transform="matrix(0.05,0,0,0.05,37,0)" xlink:href="#at"/><use transform="matrix(0.05,0,0,0.05,47,0)" xlink:href="#aq"/><use transform="matrix(0.05,0,0,0.05,57,0)" xlink:href="#an"/><use transform="matrix(0.05,0,0,0.05,62,0)" xlink:href="#ax"/><use transform="matrix(0.05,0,0,0.05,65.95,0)" xlink:href="#be"/><use transform="matrix(0.05,0,0,0.05,74.95,0)" xlink:href="#am"/><use transform="matrix(0.05,0,0,0.05,84.95,0)" xlink:href="#an"/><use transform="matrix(0.05,0,0,0.05,89.95,0)" xlink:href="#ax"/><use transform="matrix(0.05,0,0,0.05,93.9,0)" xlink:href="#ap"/><use transform="matrix(0.05,0,0,0.05,103.9,0)" xlink:href="#aq"/></g><path d="M0 4l72-265h28L28 4H0" id="bp"/><use transform="matrix(0.05,0,0,0.05,0,0)" xlink:href="#bp" id="L"/><g id="M"><use transform="matrix(0.05,0,0,0.05,0,0)" xlink:href="#bh"/><use transform="matrix(0.05,0,0,0.05,12,0)" xlink:href="#bm"/><use transform="matrix(0.05,0,0,0.05,22,0)" xlink:href="#an"/><use transform="matrix(0.05,0,0,0.05,27,0)" xlink:href="#bc"/><use transform="matrix(0.05,0,0,0.05,37,0)" xlink:href="#ap"/><use transform="matrix(0.05,0,0,0.05,47,0)" xlink:href="#ar"/><use transform="matrix(0.05,0,0,0.05,52.95,0)" xlink:href="#ax"/><use transform="matrix(0.05,0,0,0.05,56.900000000000006,0)" xlink:href="#bf"/><use transform="matrix(0.05,0,0,0.05,65.9,0)" xlink:href="#am"/><use transform="matrix(0.05,0,0,0.05,75.9,0)" xlink:href="#an"/><use transform="matrix(0.05,0,0,0.05,80.9,0)" xlink:href="#ax"/><use transform="matrix(0.05,0,0,0.05,84.85000000000001,0)" xlink:href="#ap"/><use transform="matrix(0.05,0,0,0.05,94.85000000000001,0)" xlink:href="#aq"/></g><path d="M233-177c-1 41-23 64-60 70L243 0h-38l-65-103H63V0H30v-248c88 3 205-21 203 71zM63-129c60-2 137 13 137-47 0-61-80-42-137-45v92" id="bq"/><g id="N"><use transform="matrix(0.05,0,0,0.05,0,0)" xlink:href="#bq"/><use transform="matrix(0.05,0,0,0.05,12.950000000000001,0)" xlink:href="#at"/><use transform="matrix(0.05,0,0,0.05,22.950000000000003,0)" xlink:href="#bl"/><use transform="matrix(0.05,0,0,0.05,32.95,0)" xlink:href="#bm"/><use transform="matrix(0.05,0,0,0.05,42.95,0)" xlink:href="#at"/><use transform="matrix(0.05,0,0,0.05,52.95,0)" xlink:href="#bf"/><use transform="matrix(0.05,0,0,0.05,61.95,0)" xlink:href="#an"/></g><g id="O"><use transform="matrix(0.05,0,0,0.05,0,0)" xlink:href="#bj"/><use transform="matrix(0.05,0,0,0.05,12,0)" xlink:href="#ar"/><use transform="matrix(0.05,0,0,0.05,17.95,0)" xlink:href="#ap"/><use transform="matrix(0.05,0,0,0.05,27.950000000000003,0)" xlink:href="#be"/><use transform="matrix(0.05,0,0,0.05,36.95,0)" xlink:href="#at"/><use transform="matrix(0.05,0,0,0.05,46.95,0)" xlink:href="#bf"/><use transform="matrix(0.05,0,0,0.05,55.95,0)" xlink:href="#bf"/><use transform="matrix(0.05,0,0,0.05,64.95,0)" xlink:href="#ax"/><use transform="matrix(0.05,0,0,0.05,68.9,0)" xlink:href="#aq"/><use transform="matrix(0.05,0,0,0.05,78.9,0)" xlink:href="#ay"/></g><path d="M115-194c53 0 69 39 70 98 0 66-23 100-70 100C84 3 66-7 56-30L54 0H23l1-261h32v101c10-23 28-34 59-34zm-8 174c40 0 45-34 45-75 0-40-5-75-45-74-42 0-51 32-51 76 0 43 10 73 51 73" id="br"/><g id="P"><use transform="matrix(0.05,0,0,0.05,0,0)" xlink:href="#al"/><use transform="matrix(0.05,0,0,0.05,12.950000000000001,0)" xlink:href="#am"/><use transform="matrix(0.05,0,0,0.05,22.950000000000003,0)" xlink:href="#an"/><use transform="matrix(0.05,0,0,0.05,27.950000000000003,0)" xlink:href="#am"/><use transform="matrix(0.05,0,0,0.05,37.95,0)" xlink:href="#br"/><use transform="matrix(0.05,0,0,0.05,47.95,0)" xlink:href="#am"/><use transform="matrix(0.05,0,0,0.05,57.95,0)" xlink:href="#bf"/><use transform="matrix(0.05,0,0,0.05,66.95,0)" xlink:href="#at"/></g><g id="Q"><use transform="matrix(0.05,0,0,0.05,0,0)" xlink:href="#ap"/><use transform="matrix(0.05,0,0,0.05,10,0)" xlink:href="#au"/><use transform="matrix(0.05,0,0,0.05,20,0)" xlink:href="#at"/><use transform="matrix(0.05,0,0,0.05,30,0)" xlink:href="#ar"/><use transform="matrix(0.05,0,0,0.05,35.95,0)" xlink:href="#am"/><use transform="matrix(0.05,0,0,0.05,45.95,0)" xlink:href="#an"/><use transform="matrix(0.05,0,0,0.05,50.95,0)" xlink:href="#ax"/><use transform="matrix(0.05,0,0,0.05,54.900000000000006,0)" xlink:href="#ap"/><use transform="matrix(0.05,0,0,0.05,64.9,0)" xlink:href="#aq"/><use transform="matrix(0.05,0,0,0.05,74.9,0)" xlink:href="#bf"/></g><path d="M240 0l2-218c-23 76-54 145-80 218h-23L58-218 59 0H30v-248h44l77 211c21-75 51-140 76-211h43V0h-30" id="bs"/><g id="R"><use transform="matrix(0.05,0,0,0.05,0,0)" xlink:href="#bs"/><use transform="matrix(0.05,0,0,0.05,14.950000000000001,0)" xlink:href="#at"/><use transform="matrix(0.05,0,0,0.05,24.950000000000003,0)" xlink:href="#an"/><use transform="matrix(0.05,0,0,0.05,29.950000000000003,0)" xlink:href="#am"/><use transform="matrix(0.05,0,0,0.05,39.95,0)" xlink:href="#bd"/><use transform="matrix(0.05,0,0,0.05,49.95,0)" xlink:href="#am"/><use transform="matrix(0.05,0,0,0.05,59.95,0)" xlink:href="#an"/><use transform="matrix(0.05,0,0,0.05,64.95,0)" xlink:href="#am"/></g><g id="S"><use transform="matrix(0.05,0,0,0.05,0,0)" xlink:href="#ar"/><use transform="matrix(0.05,0,0,0.05,5.95,0)" xlink:href="#at"/><use transform="matrix(0.05,0,0,0.05,15.949999999999998,0)" xlink:href="#bl"/><use transform="matrix(0.05,0,0,0.05,25.950000000000003,0)" xlink:href="#bm"/><use transform="matrix(0.05,0,0,0.05,35.95,0)" xlink:href="#at"/><use transform="matrix(0.05,0,0,0.05,45.95,0)" xlink:href="#bf"/><use transform="matrix(0.05,0,0,0.05,54.95,0)" xlink:href="#an"/><use transform="matrix(0.05,0,0,0.05,59.95,0)" xlink:href="#bf"/></g><g id="T"><use transform="matrix(0.05,0,0,0.05,0,0)" xlink:href="#aU"/><use transform="matrix(0.05,0,0,0.05,12.950000000000001,0)" xlink:href="#aC"/><use transform="matrix(0.05,0,0,0.05,17.950000000000003,0)" xlink:href="#aD"/><use transform="matrix(0.05,0,0,0.05,22.950000000000003,0)" xlink:href="#aJ"/><use transform="matrix(0.05,0,0,0.05,32.95,0)" xlink:href="#aI"/><use transform="matrix(0.05,0,0,0.05,43.900000000000006,0)" xlink:href="#aG"/></g><g id="U"><use transform="matrix(0.05,0,0,0.05,0,0)" xlink:href="#aQ"/><use transform="matrix(0.05,0,0,0.05,12.950000000000001,0)" xlink:href="#aJ"/><use transform="matrix(0.05,0,0,0.05,22.950000000000003,0)" xlink:href="#aL"/><use transform="matrix(0.05,0,0,0.05,32.95,0)" xlink:href="#aD"/><use transform="matrix(0.05,0,0,0.05,37.95,0)" xlink:href="#aE"/><use transform="matrix(0.05,0,0,0.05,47.95,0)" xlink:href="#aJ"/></g><path d="M182-130c37 4 62 22 62 59C244 23 116-4 24 0v-248c84 5 203-23 205 63 0 31-19 50-47 55zM76-148c40-3 101 13 101-30 0-44-60-28-101-31v61zm0 110c48-3 116 14 116-37 0-48-69-32-116-35v72" id="bt"/><path d="M231 0h-52l-39-155L100 0H48L-1-190h46L77-45c9-52 24-97 36-145h53l37 145 32-145h46" id="bu"/><g id="V"><use transform="matrix(0.05,0,0,0.05,0,0)" xlink:href="#bt"/><use transform="matrix(0.05,0,0,0.05,12.950000000000001,0)" xlink:href="#aK"/><use transform="matrix(0.05,0,0,0.05,19.950000000000003,0)" xlink:href="#aH"/><use transform="matrix(0.05,0,0,0.05,30.900000000000006,0)" xlink:href="#bu"/><use transform="matrix(0.05,0,0,0.05,44.900000000000006,0)" xlink:href="#aP"/><use transform="matrix(0.05,0,0,0.05,54.900000000000006,0)" xlink:href="#aJ"/><use transform="matrix(0.05,0,0,0.05,64.9,0)" xlink:href="#aK"/></g><g id="W"><use transform="matrix(0.05,0,0,0.05,0,0)" xlink:href="#ba"/><use transform="matrix(0.05,0,0,0.05,14.950000000000001,0)" xlink:href="#aJ"/><use transform="matrix(0.05,0,0,0.05,24.950000000000003,0)" xlink:href="#aG"/><use transform="matrix(0.05,0,0,0.05,30.900000000000002,0)" xlink:href="#aF"/><use transform="matrix(0.05,0,0,0.05,40.900000000000006,0)" xlink:href="#aN"/><use transform="matrix(0.05,0,0,0.05,51.85,0)" xlink:href="#aF"/><use transform="matrix(0.05,0,0,0.05,61.85,0)" xlink:href="#aG"/><use transform="matrix(0.05,0,0,0.05,67.80000000000001,0)" xlink:href="#aF"/></g><path d="M140-251c80 0 125 45 125 126S219 4 139 4C58 4 15-44 15-125s44-126 125-126zm-1 214c52 0 73-35 73-88 0-50-21-86-72-86-52 0-73 35-73 86s22 88 72 88" id="bv"/><path d="M25-224v-37h50v37H25zM75 22c2 45-34 59-81 51V38c22 5 31-5 31-27v-201h50V22" id="bw"/><g id="X"><use transform="matrix(0.05,0,0,0.05,0,0)" xlink:href="#bv"/><use transform="matrix(0.05,0,0,0.05,14,0)" xlink:href="#aR"/><use transform="matrix(0.05,0,0,0.05,24.950000000000003,0)" xlink:href="#bw"/><use transform="matrix(0.05,0,0,0.05,29.950000000000003,0)" xlink:href="#aJ"/><use transform="matrix(0.05,0,0,0.05,39.95,0)" xlink:href="#aE"/><use transform="matrix(0.05,0,0,0.05,49.95,0)" xlink:href="#aG"/><use transform="matrix(0.05,0,0,0.05,55.900000000000006,0)" xlink:href="#aP"/></g><g id="Y"><use transform="matrix(0.05,0,0,0.05,0,0)" xlink:href="#aU"/><use transform="matrix(0.05,0,0,0.05,12.950000000000001,0)" xlink:href="#aH"/><use transform="matrix(0.05,0,0,0.05,23.900000000000002,0)" xlink:href="#aI"/><use transform="matrix(0.05,0,0,0.05,34.85,0)" xlink:href="#aG"/><use transform="matrix(0.05,0,0,0.05,40.800000000000004,0)" xlink:href="#aK"/><use transform="matrix(0.05,0,0,0.05,47.800000000000004,0)" xlink:href="#aH"/><use transform="matrix(0.05,0,0,0.05,58.75,0)" xlink:href="#aC"/><use transform="matrix(0.05,0,0,0.05,63.75,0)" xlink:href="#aC"/><use transform="matrix(0.05,0,0,0.05,68.75,0)" xlink:href="#aJ"/><use transform="matrix(0.05,0,0,0.05,78.75,0)" xlink:href="#aK"/></g><path d="M123 10C108 53 80 86 19 72V37c35 8 53-11 59-39L3-190h52l48 148c12-52 28-100 44-148h51" id="bx"/><g id="Z"><use transform="matrix(0.05,0,0,0.05,0,0)" xlink:href="#aZ"/><use transform="matrix(0.05,0,0,0.05,10.950000000000001,0)" xlink:href="#aD"/><use transform="matrix(0.05,0,0,0.05,15.950000000000001,0)" xlink:href="#aR"/><use transform="matrix(0.05,0,0,0.05,26.900000000000002,0)" xlink:href="#aK"/><use transform="matrix(0.05,0,0,0.05,33.900000000000006,0)" xlink:href="#aF"/><use transform="matrix(0.05,0,0,0.05,43.900000000000006,0)" xlink:href="#aK"/><use transform="matrix(0.05,0,0,0.05,50.900000000000006,0)" xlink:href="#bx"/></g><path d="M125-100v72H85v-72H15v-39h70v-72h40v72h71v39h-71" id="by"/><use transform="matrix(0.05,0,0,0.05,0,0)" xlink:href="#by" id="aa"/><g id="ab"><use transform="matrix(0.05,0,0,0.05,0,0)" xlink:href="#aY"/><use transform="matrix(0.05,0,0,0.05,9.600000000000001,0)" xlink:href="#aF"/><use transform="matrix(0.05,0,0,0.05,19.6,0)" xlink:href="#aR"/><use transform="matrix(0.05,0,0,0.05,30.55,0)" xlink:href="#aC"/><use transform="matrix(0.05,0,0,0.05,35.550000000000004,0)" xlink:href="#aJ"/></g><g id="ac"><use transform="matrix(0.05,0,0,0.05,0,0)" xlink:href="#ba"/><use transform="matrix(0.05,0,0,0.05,14.950000000000001,0)" xlink:href="#aJ"/><use transform="matrix(0.05,0,0,0.05,24.950000000000003,0)" xlink:href="#aG"/><use transform="matrix(0.05,0,0,0.05,30.900000000000002,0)" xlink:href="#aN"/><use transform="matrix(0.05,0,0,0.05,41.85,0)" xlink:href="#aF"/><use transform="matrix(0.05,0,0,0.05,51.85,0)" xlink:href="#aG"/><use transform="matrix(0.05,0,0,0.05,57.800000000000004,0)" xlink:href="#aF"/></g><path d="M76-208v77h127v40H76V0H24v-248h183v40H76" id="bz"/><g id="ad"><use transform="matrix(0.05,0,0,0.05,0,0)" xlink:href="#bz"/><use transform="matrix(0.05,0,0,0.05,10.950000000000001,0)" xlink:href="#aH"/><use transform="matrix(0.05,0,0,0.05,21.900000000000002,0)" xlink:href="#aC"/><use transform="matrix(0.05,0,0,0.05,26.900000000000002,0)" xlink:href="#aN"/><use transform="matrix(0.05,0,0,0.05,37.85,0)" xlink:href="#aJ"/><use transform="matrix(0.05,0,0,0.05,47.85,0)" xlink:href="#aK"/></g><path d="M85 4C-2 5 27-109 22-190h50c7 57-23 150 33 157 60-5 35-97 40-157h50l1 190h-47c-2-12 1-28-3-38-12 25-28 42-61 42" id="bA"/><g id="ae"><use transform="matrix(0.05,0,0,0.05,0,0)" xlink:href="#az"/><use transform="matrix(0.05,0,0,0.05,12,0)" xlink:href="#bA"/><use transform="matrix(0.05,0,0,0.05,22.950000000000003,0)" xlink:href="#aR"/><use transform="matrix(0.05,0,0,0.05,33.900000000000006,0)" xlink:href="#aG"/><use transform="matrix(0.05,0,0,0.05,39.85000000000001,0)" xlink:href="#aK"/><use transform="matrix(0.05,0,0,0.05,46.85000000000001,0)" xlink:href="#aJ"/><use transform="matrix(0.05,0,0,0.05,56.85,0)" xlink:href="#aJ"/></g><path d="M195 0l-88-114-31 24V0H24v-248h52v113l112-113h60L142-143 257 0h-62" id="bB"/><g id="ah"><use transform="matrix(0.06172839506172839,0,0,0.06172839506172839,0,0)" xlink:href="#bB"/><use transform="matrix(0.06172839506172839,0,0,0.06172839506172839,15.987654320987653,0)" xlink:href="#aJ"/><use transform="matrix(0.06172839506172839,0,0,0.06172839506172839,28.333333333333332,0)" xlink:href="#bx"/></g><g id="ai"><use transform="matrix(0.05,0,0,0.05,0,0)" xlink:href="#bs"/><use transform="matrix(0.05,0,0,0.05,14.950000000000001,0)" xlink:href="#ap"/><use transform="matrix(0.05,0,0,0.05,24.950000000000003,0)" xlink:href="#bd"/><use transform="matrix(0.05,0,0,0.05,34.95,0)" xlink:href="#ax"/><use transform="matrix(0.05,0,0,0.05,38.900000000000006,0)" xlink:href="#bo"/><use transform="matrix(0.05,0,0,0.05,43.900000000000006,0)" xlink:href="#ax"/><use transform="matrix(0.05,0,0,0.05,47.85000000000001,0)" xlink:href="#at"/><use transform="matrix(0.05,0,0,0.05,57.85,0)" xlink:href="#bd"/></g><g id="aj"><use transform="matrix(0.05,0,0,0.05,0,0)" xlink:href="#ao"/><use transform="matrix(0.05,0,0,0.05,12.950000000000001,0)" xlink:href="#ap"/><use transform="matrix(0.05,0,0,0.05,22.950000000000003,0)" xlink:href="#aw"/><use transform="matrix(0.05,0,0,0.05,37.900000000000006,0)" xlink:href="#au"/><use transform="matrix(0.05,0,0,0.05,47.900000000000006,0)" xlink:href="#ap"/><use transform="matrix(0.05,0,0,0.05,57.900000000000006,0)" xlink:href="#aq"/><use transform="matrix(0.05,0,0,0.05,67.9,0)" xlink:href="#at"/><use transform="matrix(0.05,0,0,0.05,77.9,0)" xlink:href="#aq"/><use transform="matrix(0.05,0,0,0.05,87.9,0)" xlink:href="#an"/><use transform="matrix(0.05,0,0,0.05,92.9,0)" xlink:href="#bf"/></g><path d="M232-93c-1 65-40 97-104 97C67 4 28-28 28-90v-158h33c8 89-33 224 67 224 102 0 64-133 71-224h33v155" id="bC"/><g id="ak"><use transform="matrix(0.05,0,0,0.05,0,0)" xlink:href="#bC"/><use transform="matrix(0.05,0,0,0.05,12.950000000000001,0)" xlink:href="#aq"/><use transform="matrix(0.05,0,0,0.05,22.950000000000003,0)" xlink:href="#aw"/><use transform="matrix(0.05,0,0,0.05,37.900000000000006,0)" xlink:href="#ap"/><use transform="matrix(0.05,0,0,0.05,47.900000000000006,0)" xlink:href="#bd"/><use transform="matrix(0.05,0,0,0.05,57.900000000000006,0)" xlink:href="#ax"/><use transform="matrix(0.05,0,0,0.05,61.85,0)" xlink:href="#bo"/><use transform="matrix(0.05,0,0,0.05,66.85000000000001,0)" xlink:href="#ax"/><use transform="matrix(0.05,0,0,0.05,70.80000000000001,0)" xlink:href="#at"/><use transform="matrix(0.05,0,0,0.05,80.80000000000001,0)" xlink:href="#bd"/></g></defs></g></svg>