<svg xmlns="http://www.w3.org/2000/svg" xmlns:xlink="http://www.w3.org/1999/xlink" xmlns:lucid="lucid" width="1278.32" height="1029.32"><g transform="translate(-11.481170898361768 -8.814504231695011)" lucid:page-tab-id="0_0"><path d="M0 0h1360v1121.26H0z" fill="#fff"/><path d="M31.48 35.8c0-2.75 2.24-5 5-5h838c2.76 0 5 2.25 5 5v38c0 2.78-2.24 5-5 5h-838c-2.76 0-5-2.22-5-5z" fill="none"/><use xlink:href="#a" transform="matrix(1,0,0,1,31.481170898361768,30.81450423169501) translate(2.01 28.444444444444446)"/><use xlink:href="#b" transform="matrix(1,0,0,1,31.481170898361768,30.81450423169501) translate(103.63962962962965 28.444444444444446)"/><use xlink:href="#c" transform="matrix(1,0,0,1,31.481170898361768,30.81450423169501) translate(359.73839506172845 28.444444444444446)"/><use xlink:href="#d" transform="matrix(1,0,0,1,31.481170898361768,30.81450423169501) translate(381.3680246913581 28.444444444444446)"/><use xlink:href="#e" transform="matrix(1,0,0,1,31.481170898361768,30.81450423169501) translate(464.2322222222223 28.444444444444446)"/><use xlink:href="#f" transform="matrix(1,0,0,1,31.481170898361768,30.81450423169501) translate(572.6766666666667 28.444444444444446)"/><path d="M30.8 78.8h1248" stroke="#999" stroke-width="2" fill="none"/><path d="M620 230.17c0 30.14-36.67 54.58-81.9 54.58-45.24 0-81.9-24.44-81.9-54.58 0-30.14 36.66-54.58 81.9-54.58 45.23 0 81.9 24.43 81.9 54.57z" stroke="#666" stroke-width="2" fill="#fff"/><use xlink:href="#g" transform="matrix(1,0,0,1,456.1952492728173,175.59298034932195) translate(31.62999999999999 59.0875)"/><use xlink:href="#h" transform="matrix(1,0,0,1,456.1952492728173,175.59298034932195) translate(93.48 59.0875)"/><path d="M188.66 285.05l266.54-54.88" stroke="#999" stroke-width="2" fill="none"/><path d="M188.86 286.03l-.2.04v-1.02zM456.2 230.17v.8l-.8.18-.4-1.96 1.23-.26z" fill="#999"/><path d="M790.6 431c0 40.47-49.9 73.28-111.46 73.28-61.56 0-111.47-32.8-111.47-73.28 0-40.47 49.9-73.28 111.47-73.28S790.6 390.52 790.6 431z" stroke="#666" stroke-width="2" fill="#c7e8ac"/><use xlink:href="#i" transform="matrix(1,0,0,1,567.6683987648347,357.72390419769886) translate(65.905 78.7125)"/><use xlink:href="#j" transform="matrix(1,0,0,1,567.6683987648347,357.72390419769886) translate(111.55499999999999 78.7125)"/><path d="M656.85 931.18c0 48.02-49.9 86.96-111.48 86.96-61.56 0-111.47-38.94-111.47-86.96 0-48.03 49.9-86.96 111.47-86.96s111.48 38.93 111.48 86.96z" stroke="#666" stroke-width="2" fill="#c7e8ac"/><use xlink:href="#k" transform="matrix(1,0,0,1,433.90061937441385,844.2171899362671) translate(69.28 90.525)"/><use xlink:href="#j" transform="matrix(1,0,0,1,433.90061937441385,844.2171899362671) translate(108.18 90.525)"/><path d="M620 683.76c0 35.22-36.67 63.77-81.9 63.77-45.24 0-81.9-28.55-81.9-63.77 0-35.2 36.66-63.76 81.9-63.76 45.23 0 81.9 28.55 81.9 63.76z" stroke="#666" stroke-width="2" fill="#fff"/><use xlink:href="#l" transform="matrix(1,0,0,1,456.1952492728173,620) translate(34.779999999999994 66.4)"/><use xlink:href="#j" transform="matrix(1,0,0,1,456.1952492728173,620) translate(83.68 66.4)"/><path d="M924.38 931.18c0 32.62-34.93 59.07-78.03 59.07s-78.03-26.45-78.03-59.07c0-32.63 34.94-59.07 78.03-59.07 43.1 0 78.03 26.45 78.03 59.08z" stroke="#666" stroke-width="2" fill="#fff"/><use xlink:href="#m" transform="matrix(1,0,0,1,768.3200678504656,872.1085949681335) translate(18.154999999999994 62.74375)"/><use xlink:href="#n" transform="matrix(1,0,0,1,768.3200678504656,872.1085949681335) translate(72.05499999999999 62.74375)"/><path d="M924.38 674.25c0 47.02-49.9 85.13-111.47 85.13-61.56 0-111.46-38.1-111.46-85.13 0-47.02 49.9-85.14 111.47-85.14s111.48 38.13 111.48 85.15z" stroke="#666" stroke-width="2" fill="#c7e8ac"/><use xlink:href="#o" transform="matrix(1,0,0,1,701.4361781552554,589.1122732271053) translate(39.70499999999999 89.2125)"/><use xlink:href="#n" transform="matrix(1,0,0,1,701.4361781552554,589.1122732271053) translate(117.50500000000001 89.2125)"/><path d="M188.66 285.05l378 145.95" stroke="#999" stroke-width="2" fill="none"/><path d="M189.02 284.12l-.36.93v-1.07zM567.68 430.32v.73l.02 1.42-1.4-.54.73-1.86z" fill="#999"/><path d="M188.66 857l244.24 74.18" stroke="#999" stroke-width="2" fill="none"/><path d="M188.95 856.03l-.3.96v-1.06zM433.92 930.44l-.02.8.03 1.3-1.32-.4.6-1.92z" fill="#999"/><path d="M924.38 240.6c0 44.5-54.7 80.6-122.2 80.6-67.47 0-122.18-36.1-122.18-80.6 0-44.5 54.7-80.6 122.2-80.6 67.48 0 122.18 36.1 122.18 80.6z" stroke="#666" stroke-width="2" fill="#c7e8ac"/><use xlink:href="#i" transform="matrix(1,0,0,1,680,160) translate(43.355 85.275)"/><use xlink:href="#p" transform="matrix(1,0,0,1,680,160) translate(89.005 85.275)"/><use xlink:href="#q" transform="matrix(1,0,0,1,680,160) translate(139.805 85.275)"/><path d="M1169.62 285.05L925.38 240.6" stroke="#999" stroke-width="2" fill="none"/><path d="M1169.62 286.07l-.18-.03.18-1zM925.56 239.62l-.36 1.96-.83-.15v-2.03z" fill="#999"/><path d="M1215.2 857L925.4 240.6M1215.2 857l1.3 2.7" stroke="#999" stroke-width="2" fill="none"/><path d="M926.3 240.17l-1.82.85-.1-.2V239.45l-.08-1.67.7-.34z" fill="#999"/><path d="M166.37 197.9c0 12.3-10 22.28-22.3 22.28s-22.3-9.98-22.3-22.3c0-12.3 10-22.3 22.3-22.3s22.3 10 22.3 22.3z" stroke="#666" stroke-width="2" fill="#fff"/><path d="M99.48 180.6c0-2.77 2.24-5 5-5h79.18c2.76 0 5 2.23 5 5v186.9c0 2.78-2.24 5-5 5h-79.18c-2.76 0-5-2.22-5-5z" fill="none"/><path d="M144.07 220.18v68.57c0 2.76 1.1 6.94 2.46 9.35l42.13 74.4m-44.6-78.75L99.5 372.5m0-130.02h89.18" stroke="#666" stroke-width="2" fill="none"/><use xlink:href="#r" transform="matrix(1,0,0,1,19.48117089836174,372.51495893167794) translate(96.175 14.6)"/><path d="M166.37 769.82c0 12.3-10 22.3-22.3 22.3s-22.3-10-22.3-22.3 10-22.3 22.3-22.3 22.3 10 22.3 22.3z" stroke="#666" stroke-width="2" fill="#fff"/><path d="M99.48 752.53c0-2.76 2.24-5 5-5h79.18c2.76 0 5 2.24 5 5v186.92c0 2.76-2.24 5-5 5h-79.18c-2.76 0-5-2.24-5-5z" fill="none"/><path d="M144.07 792.12v68.56c0 2.76 1.1 6.95 2.46 9.35l42.13 74.42m-44.6-78.77L99.5 944.45m0-130.04h89.18" stroke="#666" stroke-width="2" fill="none"/><use xlink:href="#s" transform="matrix(1,0,0,1,19.48117089836174,944.4486279780829) translate(99.07499999999999 14.6)"/><path d="M1236.5 197.9c0 12.3-9.97 22.28-22.3 22.28-12.3 0-22.28-9.98-22.28-22.3 0-12.3 9.98-22.3 22.3-22.3 12.3 0 22.3 10 22.3 22.3z" stroke="#666" stroke-width="2" fill="#fff"/><path d="M1169.62 180.6c0-2.77 2.24-5 5-5h79.18c2.76 0 5 2.23 5 5v186.9c0 2.78-2.24 5-5 5h-79.18c-2.76 0-5-2.22-5-5z" fill="none"/><path d="M1214.2 220.18v68.57c0 2.76 1.12 6.94 2.48 9.35l42.12 74.4m-44.6-78.75l-44.58 78.76m0-130.02h89.18" stroke="#666" stroke-width="2" fill="none"/><use xlink:href="#t" transform="matrix(1,0,0,1,1089.623406021729,372.51495893167794) translate(93.125 14.6)"/><path d="M1236.5 769.82c0 12.3-9.97 22.3-22.3 22.3-12.3 0-22.28-10-22.28-22.3s9.98-22.3 22.3-22.3c12.3 0 22.3 10 22.3 22.3z" stroke="#666" stroke-width="2" fill="#fff"/><path d="M1169.62 752.53c0-2.76 2.24-5 5-5h79.18c2.76 0 5 2.24 5 5v186.92c0 2.76-2.24 5-5 5h-79.18c-2.76 0-5-2.24-5-5z" fill="none"/><path d="M1214.2 792.12v68.56c0 2.76 1.12 6.95 2.48 9.35l42.12 74.42m-44.6-78.77l-44.58 78.77m0-130.04h89.18" stroke="#666" stroke-width="2" fill="none"/><use xlink:href="#u" transform="matrix(1,0,0,1,1089.623406021729,944.4486279780829) translate(85.1 14.6)"/><path d="M559.55 621h-2v-8.8h2zm0-17.6h-2v-17.63h2zm0-26.44h-2v-3h2zm120.6-18.73l-.3 1.9-2.14 2.9-3.4 1.12h-9.37v-2h9.05l2.5-.82 1.46-2 .2-1.26v-8.4h2zm-24.44 5.92h-13.64v-2h13.65zm24.44-22.97h-2V524.2h2zm0-25.45h-2v-8.5h2zM559.55 622.26l-2-.44v-.8h2z" fill="#999"/><path d="M690.18 523.95l-1.72 1.02-9.32-15.76-9.32 15.77-1.72-1.02 11.04-18.67z" fill="#999"/><use xlink:href="#v" transform="matrix(1,0,0,1,532.212717940665,552.3474662316976) translate(0.005000000000002558 14.4)"/><path d="M546.37 841.25h-2v-13.9h2zm0-27.83h-2v-6.75h2zm-7.27-28.35h-2v-7.4h2zm0-21.97h-2v-14.57h2z" fill="#999"/><path d="M538.1 747.53l1-.03v1.03h-2v-1.03zM556.42 824.55l-11.05 18.67-11.04-18.67 1.72-1.02 9.32 15.76 9.32-15.77z" fill="#999"/><use xlink:href="#v" transform="matrix(1,0,0,1,486.8106967514199,785.0720427816286) translate(0.005000000000002558 14.4)"/><path d="M598.94 378.92v-41.6c0-2.75-2.24-5-5-5H543.1c-2.76 0-5-2.23-5-5v-39.6" stroke="#999" stroke-width="2" fill="none"/><path d="M599.94 379.44l-2 1.4v-1.92h2zM549.14 304.42l-1.72 1.02-9.32-15.76-9.32 15.76-1.72-1.02 11.04-18.67zM599.9 484.08L189.3 819.15l-1.27-1.55 410.6-335.07zM189.3 819.15l-.64.5v-1.28z" fill="#999"/><path d="M600.18 482.73l.77.48-1.06.88-1.28-1.55.6-.48zM706.7 926.02l.8 2.5 2 1.45 1.27.2h9.03v2h-9.2l-1.9-.3-2.9-2.12-1.1-3.4V913.3h2zm40.43 6.16H728.9v-2h18.23zm18.23 0h-9.12v-2h9.12zm-58.67-31.73h-2v-4.55h2zm-57.32-16.87h-10.26v-2h10.26z" fill="#999"/><path d="M639.12 883.58h-.46l-1.14-1.35-.6-.65h2.2zM767.32 931.18l-18.67 11.04-1.02-1.72 15.76-9.32-15.77-9.32 1.02-1.72z" fill="#999"/><g><use xlink:href="#w" transform="matrix(1,0,0,1,653.2654325738727,874.3009508296174) translate(0.005000000000002558 14.4)"/></g><path d="M1214.2 865.1L925.4 674.25M1214.2 865.1l2.52 1.65" stroke="#999" stroke-width="2" fill="none"/><path d="M925.93 673.4l-1.1 1.68-.46-.3V674.2l-.03-1.84zM1215.9 856.25l-1.36 1.48L781.57 461.5l1.35-1.5z" fill="#999"/><path d="M1218.1 858.28l-1.35 1.47-2.2-2.02 1.34-1.48zM782.92 460l-1.35 1.5-.64-.6.53-.77.58-.93zM836.55 869.72h-2v-8.12h2zm0-16.23h-2v-16.24h2zm0-24.35h-2v-2.32h2zm-22.64-23.92h-2v-2.64h2zm0-11.08h-2v-16.88h2zm0-25.32h-2v-8.45h2z" fill="#999"/><path d="M812.9 759.38h.14l.87-.02v1.02h-2v-1.02zM846.6 853l-11.05 18.68L824.5 853l1.73-1 9.32 15.75 9.32-15.76z" fill="#999"/><g><use xlink:href="#w" transform="matrix(1,0,0,1,762.0589484407797,805.2338090143687) translate(0.005000000000002558 14.4)"/></g><defs><path fill="#999" d="M24-248c120-7 223 5 221 122C244-46 201 0 124 0H24v-248zM76-40c74 7 117-18 117-86 0-67-45-88-117-82v168" id="x"/><path fill="#999" d="M199 0l-22-63H83L61 0H9l90-248h61L250 0h-51zm-33-102l-36-108c-10 38-24 72-36 108h72" id="y"/><path fill="#999" d="M136-208V0H84v-208H4v-40h212v40h-80" id="z"/><g id="a"><use transform="matrix(0.09876543209876544,0,0,0.09876543209876544,0,0)" xlink:href="#x"/><use transform="matrix(0.09876543209876544,0,0,0.09876543209876544,25.58024691358025,0)" xlink:href="#y"/><use transform="matrix(0.09876543209876544,0,0,0.09876543209876544,48.49382716049384,0)" xlink:href="#z"/><use transform="matrix(0.09876543209876544,0,0,0.09876543209876544,67.4567901234568,0)" xlink:href="#y"/></g><path fill="#999" d="M67-125c0 53 21 87 73 88 37 1 54-22 65-47l45 17C233-25 199 4 140 4 58 4 20-42 15-125 8-235 124-281 211-232c18 10 29 29 36 50l-46 12c-8-25-30-41-62-41-52 0-71 34-72 86" id="A"/><path fill="#999" d="M140-251c80 0 125 45 125 126S219 4 139 4C58 4 15-44 15-125s44-126 125-126zm-1 214c52 0 73-35 73-88 0-50-21-86-72-86-52 0-73 35-73 86s22 88 72 88" id="B"/><path fill="#999" d="M175 0L67-191c6 58 2 128 3 191H24v-248h59L193-55c-6-58-2-129-3-193h46V0h-61" id="C"/><path fill="#999" d="M240-174c0 40-23 61-54 70L253 0h-59l-57-94H76V0H24v-248c93 4 217-23 216 74zM76-134c48-2 112 12 112-38 0-48-66-32-112-35v73" id="D"/><path fill="#999" d="M24 0v-248h52v208h133V0H24" id="E"/><path fill="#999" d="M24 0v-248h195v40H76v63h132v40H76v65h150V0H24" id="F"/><g id="b"><use transform="matrix(0.09876543209876544,0,0,0.09876543209876544,0,0)" xlink:href="#A"/><use transform="matrix(0.09876543209876544,0,0,0.09876543209876544,25.58024691358025,0)" xlink:href="#B"/><use transform="matrix(0.09876543209876544,0,0,0.09876543209876544,53.23456790123457,0)" xlink:href="#C"/><use transform="matrix(0.09876543209876544,0,0,0.09876543209876544,78.81481481481482,0)" xlink:href="#z"/><use transform="matrix(0.09876543209876544,0,0,0.09876543209876544,100.44444444444446,0)" xlink:href="#D"/><use transform="matrix(0.09876543209876544,0,0,0.09876543209876544,126.0246913580247,0)" xlink:href="#B"/><use transform="matrix(0.09876543209876544,0,0,0.09876543209876544,153.67901234567904,0)" xlink:href="#E"/><use transform="matrix(0.09876543209876544,0,0,0.09876543209876544,175.30864197530866,0)" xlink:href="#E"/><use transform="matrix(0.09876543209876544,0,0,0.09876543209876544,196.93827160493828,0)" xlink:href="#F"/><use transform="matrix(0.09876543209876544,0,0,0.09876543209876544,220.641975308642,0)" xlink:href="#D"/></g><path fill="#999" d="M14-72v-43h91v43H14" id="G"/><use transform="matrix(0.09876543209876544,0,0,0.09876543209876544,0,0)" xlink:href="#G" id="c"/><path fill="#999" d="M238-95c0 69-44 99-111 99C63 4 22-25 22-93v-155h51v151c-1 38 19 59 55 60 90 1 49-130 58-211h52v153" id="H"/><path fill="#999" d="M169-182c-1-43-94-46-97-3 18 66 151 10 154 114 3 95-165 93-204 36-6-8-10-19-12-30l50-8c3 46 112 56 116 5-17-69-150-10-154-114-4-87 153-88 188-35 5 8 8 18 10 28" id="I"/><g id="d"><use transform="matrix(0.09876543209876544,0,0,0.09876543209876544,0,0)" xlink:href="#H"/><use transform="matrix(0.09876543209876544,0,0,0.09876543209876544,25.58024691358025,0)" xlink:href="#I"/><use transform="matrix(0.09876543209876544,0,0,0.09876543209876544,49.283950617283956,0)" xlink:href="#F"/></g><g id="e"><use transform="matrix(0.09876543209876544,0,0,0.09876543209876544,0,0)" xlink:href="#A"/><use transform="matrix(0.09876543209876544,0,0,0.09876543209876544,25.58024691358025,0)" xlink:href="#y"/><use transform="matrix(0.09876543209876544,0,0,0.09876543209876544,51.1604938271605,0)" xlink:href="#I"/><use transform="matrix(0.09876543209876544,0,0,0.09876543209876544,74.8641975308642,0)" xlink:href="#F"/></g><path fill="#999" d="M24 0v-248h52V0H24" id="J"/><path fill="#999" d="M67-125c0 54 23 88 75 88 28 0 53-7 68-21v-34h-60v-39h108v91C232-14 192 4 140 4 58 4 20-42 15-125 8-236 126-280 215-234c19 10 29 26 37 47l-47 15c-11-23-29-39-63-39-53 1-75 33-75 86" id="K"/><path fill="#999" d="M230 0l2-204L168 0h-37L68-204 70 0H24v-248h70l56 185 57-185h69V0h-46" id="L"/><g id="f"><use transform="matrix(0.09876543209876544,0,0,0.09876543209876544,0,0)" xlink:href="#x"/><use transform="matrix(0.09876543209876544,0,0,0.09876543209876544,25.58024691358025,0)" xlink:href="#J"/><use transform="matrix(0.09876543209876544,0,0,0.09876543209876544,35.4567901234568,0)" xlink:href="#y"/><use transform="matrix(0.09876543209876544,0,0,0.09876543209876544,61.03703703703705,0)" xlink:href="#K"/><use transform="matrix(0.09876543209876544,0,0,0.09876543209876544,88.69135802469137,0)" xlink:href="#D"/><use transform="matrix(0.09876543209876544,0,0,0.09876543209876544,114.27160493827161,0)" xlink:href="#y"/><use transform="matrix(0.09876543209876544,0,0,0.09876543209876544,139.85185185185188,0)" xlink:href="#L"/></g><path fill="#333" d="M24 0v-248h195v40H76v63h132v40H76v65h150V0H24" id="M"/><path fill="#333" d="M144 0l-44-69L55 0H2l70-98-66-92h53l41 62 40-62h54l-67 91 71 99h-54" id="N"/><path fill="#333" d="M135-194c53 0 70 44 70 98 0 56-19 98-73 100-31 1-45-17-59-34 3 33 2 69 2 105H25l-1-265h48c2 10 0 23 3 31 11-24 29-35 60-35zM114-30c33 0 39-31 40-66 0-38-9-64-40-64-56 0-55 130 0 130" id="O"/><path fill="#333" d="M110-194c64 0 96 36 96 99 0 64-35 99-97 99-61 0-95-36-95-99 0-62 34-99 96-99zm-1 164c35 0 45-28 45-65 0-40-10-65-43-65-34 0-45 26-45 65 0 36 10 65 43 65" id="P"/><path fill="#333" d="M135-150c-39-12-60 13-60 57V0H25l-1-190h47c2 13-1 29 3 40 6-28 27-53 61-41v41" id="Q"/><path fill="#333" d="M115-3C79 11 28 4 28-45v-112H4v-33h27l15-45h31v45h36v33H77v99c-1 23 16 31 38 25v30" id="R"/><g id="g"><use transform="matrix(0.05,0,0,0.05,0,0)" xlink:href="#M"/><use transform="matrix(0.05,0,0,0.05,12,0)" xlink:href="#N"/><use transform="matrix(0.05,0,0,0.05,22,0)" xlink:href="#O"/><use transform="matrix(0.05,0,0,0.05,32.95,0)" xlink:href="#P"/><use transform="matrix(0.05,0,0,0.05,43.900000000000006,0)" xlink:href="#Q"/><use transform="matrix(0.05,0,0,0.05,50.900000000000006,0)" xlink:href="#R"/></g><path fill="#333" d="M24-248c120-7 223 5 221 122C244-46 201 0 124 0H24v-248zM76-40c74 7 117-18 117-86 0-67-45-88-117-82v168" id="S"/><path fill="#333" d="M133-34C117-15 103 5 69 4 32 3 11-16 11-54c-1-60 55-63 116-61 1-26-3-47-28-47-18 1-26 9-28 27l-52-2c7-38 36-58 82-57s74 22 75 68l1 82c-1 14 12 18 25 15v27c-30 8-71 5-69-32zm-48 3c29 0 43-24 42-57-32 0-66-3-65 30 0 17 8 27 23 27" id="T"/><g id="h"><use transform="matrix(0.05,0,0,0.05,0,0)" xlink:href="#S"/><use transform="matrix(0.05,0,0,0.05,12.950000000000001,0)" xlink:href="#T"/><use transform="matrix(0.05,0,0,0.05,22.950000000000003,0)" xlink:href="#R"/><use transform="matrix(0.05,0,0,0.05,28.900000000000002,0)" xlink:href="#T"/></g><path fill="#333" d="M147 0H94L2-248h55l64 206c17-72 42-137 63-206h54" id="U"/><path fill="#333" d="M25-224v-37h50v37H25zM25 0v-190h50V0H25" id="V"/><path fill="#333" d="M185-48c-13 30-37 53-82 52C43 2 14-33 14-96s30-98 90-98c62 0 83 45 84 108H66c0 31 8 55 39 56 18 0 30-7 34-22zm-45-69c5-46-57-63-70-21-2 6-4 13-4 21h74" id="W"/><path fill="#333" d="M231 0h-52l-39-155L100 0H48L-1-190h46L77-45c9-52 24-97 36-145h53l37 145 32-145h46" id="X"/><g id="i"><use transform="matrix(0.05,0,0,0.05,0,0)" xlink:href="#U"/><use transform="matrix(0.05,0,0,0.05,11.65,0)" xlink:href="#V"/><use transform="matrix(0.05,0,0,0.05,16.65,0)" xlink:href="#W"/><use transform="matrix(0.05,0,0,0.05,26.649999999999995,0)" xlink:href="#X"/></g><path fill="#333" d="M136-208V0H84v-208H4v-40h212v40h-80" id="Y"/><path fill="#333" d="M135-194c52 0 70 43 70 98 0 56-19 99-73 100-30 1-46-15-58-35L72 0H24l1-261h50v104c11-23 29-37 60-37zM114-30c31 0 40-27 40-66 0-37-7-63-39-63s-41 28-41 65c0 36 8 64 40 64" id="Z"/><path fill="#333" d="M25 0v-261h50V0H25" id="aa"/><g id="j"><use transform="matrix(0.05,0,0,0.05,0,0)" xlink:href="#Y"/><use transform="matrix(0.05,0,0,0.05,9.600000000000001,0)" xlink:href="#T"/><use transform="matrix(0.05,0,0,0.05,19.6,0)" xlink:href="#Z"/><use transform="matrix(0.05,0,0,0.05,30.55,0)" xlink:href="#aa"/><use transform="matrix(0.05,0,0,0.05,35.550000000000004,0)" xlink:href="#W"/></g><path fill="#333" d="M88-194c31-1 46 15 58 34l-1-101h50l1 261h-48c-2-10 0-23-3-31C134-8 116 4 84 4 32 4 16-41 15-95c0-56 19-97 73-99zm17 164c33 0 40-30 41-66 1-37-9-64-41-64s-38 30-39 65c0 43 13 65 39 65" id="ab"/><g id="k"><use transform="matrix(0.05,0,0,0.05,0,0)" xlink:href="#M"/><use transform="matrix(0.05,0,0,0.05,12,0)" xlink:href="#ab"/><use transform="matrix(0.05,0,0,0.05,22.950000000000003,0)" xlink:href="#V"/><use transform="matrix(0.05,0,0,0.05,27.950000000000003,0)" xlink:href="#R"/></g><path fill="#333" d="M76-208v77h127v40H76V0H24v-248h183v40H76" id="ac"/><g id="l"><use transform="matrix(0.05,0,0,0.05,0,0)" xlink:href="#ac"/><use transform="matrix(0.05,0,0,0.05,10.950000000000001,0)" xlink:href="#V"/><use transform="matrix(0.05,0,0,0.05,15.950000000000001,0)" xlink:href="#aa"/><use transform="matrix(0.05,0,0,0.05,20.950000000000003,0)" xlink:href="#R"/><use transform="matrix(0.05,0,0,0.05,26.900000000000002,0)" xlink:href="#W"/><use transform="matrix(0.05,0,0,0.05,36.900000000000006,0)" xlink:href="#Q"/></g><path fill="#333" d="M169-182c-1-43-94-46-97-3 18 66 151 10 154 114 3 95-165 93-204 36-6-8-10-19-12-30l50-8c3 46 112 56 116 5-17-69-150-10-154-114-4-87 153-88 188-35 5 8 8 18 10 28" id="ad"/><path fill="#333" d="M195-6C206 82 75 100 31 46c-4-6-6-13-8-21l49-6c3 16 16 24 34 25 40 0 42-37 40-79-11 22-30 35-61 35-53 0-70-43-70-97 0-56 18-96 73-97 30 0 46 14 59 34l2-30h47zm-90-29c32 0 41-27 41-63 0-35-9-62-40-62-32 0-39 29-40 63 0 36 9 62 39 62" id="ae"/><g id="m"><use transform="matrix(0.05,0,0,0.05,0,0)" xlink:href="#ad"/><use transform="matrix(0.05,0,0,0.05,12,0)" xlink:href="#R"/><use transform="matrix(0.05,0,0,0.05,17.95,0)" xlink:href="#T"/><use transform="matrix(0.05,0,0,0.05,27.950000000000003,0)" xlink:href="#ae"/><use transform="matrix(0.05,0,0,0.05,38.9,0)" xlink:href="#W"/></g><path fill="#333" d="M67-125c0 53 21 87 73 88 37 1 54-22 65-47l45 17C233-25 199 4 140 4 58 4 20-42 15-125 8-235 124-281 211-232c18 10 29 29 36 50l-46 12c-8-25-30-41-62-41-52 0-71 34-72 86" id="af"/><path fill="#333" d="M114-157C55-157 80-60 75 0H25v-261h50l-1 109c12-26 28-41 61-42 86-1 58 113 63 194h-50c-7-57 23-157-34-157" id="ag"/><path fill="#333" d="M135-194c87-1 58 113 63 194h-50c-7-57 23-157-34-157-59 0-34 97-39 157H25l-1-190h47c2 12-1 28 3 38 12-26 28-41 61-42" id="ah"/><g id="n"><use transform="matrix(0.05,0,0,0.05,0,0)" xlink:href="#af"/><use transform="matrix(0.05,0,0,0.05,12.950000000000001,0)" xlink:href="#ag"/><use transform="matrix(0.05,0,0,0.05,23.900000000000002,0)" xlink:href="#T"/><use transform="matrix(0.05,0,0,0.05,33.900000000000006,0)" xlink:href="#ah"/><use transform="matrix(0.05,0,0,0.05,44.85000000000001,0)" xlink:href="#ae"/><use transform="matrix(0.05,0,0,0.05,55.80000000000001,0)" xlink:href="#W"/></g><path fill="#333" d="M199 0l-22-63H83L61 0H9l90-248h61L250 0h-51zm-33-102l-36-108c-10 38-24 72-36 108h72" id="ai"/><path fill="#333" d="M128 0H69L1-190h53L99-40l48-150h52" id="aj"/><g id="o"><use transform="matrix(0.05,0,0,0.05,0,0)" xlink:href="#ai"/><use transform="matrix(0.05,0,0,0.05,12.950000000000001,0)" xlink:href="#O"/><use transform="matrix(0.05,0,0,0.05,23.900000000000002,0)" xlink:href="#O"/><use transform="matrix(0.05,0,0,0.05,34.85,0)" xlink:href="#Q"/><use transform="matrix(0.05,0,0,0.05,41.85,0)" xlink:href="#P"/><use transform="matrix(0.05,0,0,0.05,52.800000000000004,0)" xlink:href="#aj"/><use transform="matrix(0.05,0,0,0.05,62.800000000000004,0)" xlink:href="#W"/></g><path fill="#333" d="M85 4C-2 5 27-109 22-190h50c7 57-23 150 33 157 60-5 35-97 40-157h50l1 190h-47c-2-12 1-28-3-38-12 25-28 42-61 42" id="ak"/><g id="p"><use transform="matrix(0.05,0,0,0.05,0,0)" xlink:href="#ai"/><use transform="matrix(0.05,0,0,0.05,12.950000000000001,0)" xlink:href="#ak"/><use transform="matrix(0.05,0,0,0.05,23.900000000000002,0)" xlink:href="#ab"/><use transform="matrix(0.05,0,0,0.05,34.85,0)" xlink:href="#V"/><use transform="matrix(0.05,0,0,0.05,39.85,0)" xlink:href="#R"/></g><path fill="#333" d="M186 0v-106H76V0H24v-248h52v99h110v-99h50V0h-50" id="al"/><path fill="#333" d="M137-138c1-29-70-34-71-4 15 46 118 7 119 86 1 83-164 76-172 9l43-7c4 19 20 25 44 25 33 8 57-30 24-41C81-84 22-81 20-136c-2-80 154-74 161-7" id="am"/><path fill="#333" d="M123 10C108 53 80 86 19 72V37c35 8 53-11 59-39L3-190h52l48 148c12-52 28-100 44-148h51" id="an"/><g id="q"><use transform="matrix(0.05,0,0,0.05,0,0)" xlink:href="#al"/><use transform="matrix(0.05,0,0,0.05,12.950000000000001,0)" xlink:href="#V"/><use transform="matrix(0.05,0,0,0.05,17.950000000000003,0)" xlink:href="#am"/><use transform="matrix(0.05,0,0,0.05,27.950000000000003,0)" xlink:href="#R"/><use transform="matrix(0.05,0,0,0.05,33.900000000000006,0)" xlink:href="#P"/><use transform="matrix(0.05,0,0,0.05,44.85000000000001,0)" xlink:href="#Q"/><use transform="matrix(0.05,0,0,0.05,51.85,0)" xlink:href="#an"/></g><g id="r"><use transform="matrix(0.05,0,0,0.05,0,0)" xlink:href="#U"/><use transform="matrix(0.05,0,0,0.05,11.65,0)" xlink:href="#V"/><use transform="matrix(0.05,0,0,0.05,16.65,0)" xlink:href="#W"/><use transform="matrix(0.05,0,0,0.05,26.649999999999995,0)" xlink:href="#X"/><use transform="matrix(0.05,0,0,0.05,40.65,0)" xlink:href="#W"/><use transform="matrix(0.05,0,0,0.05,50.65,0)" xlink:href="#Q"/></g><g id="s"><use transform="matrix(0.05,0,0,0.05,0,0)" xlink:href="#M"/><use transform="matrix(0.05,0,0,0.05,12,0)" xlink:href="#ab"/><use transform="matrix(0.05,0,0,0.05,22.950000000000003,0)" xlink:href="#V"/><use transform="matrix(0.05,0,0,0.05,27.950000000000003,0)" xlink:href="#R"/><use transform="matrix(0.05,0,0,0.05,33.900000000000006,0)" xlink:href="#P"/><use transform="matrix(0.05,0,0,0.05,44.85000000000001,0)" xlink:href="#Q"/></g><g id="t"><use transform="matrix(0.05,0,0,0.05,0,0)" xlink:href="#ai"/><use transform="matrix(0.05,0,0,0.05,12.950000000000001,0)" xlink:href="#ak"/><use transform="matrix(0.05,0,0,0.05,23.900000000000002,0)" xlink:href="#ab"/><use transform="matrix(0.05,0,0,0.05,34.85,0)" xlink:href="#V"/><use transform="matrix(0.05,0,0,0.05,39.85,0)" xlink:href="#R"/><use transform="matrix(0.05,0,0,0.05,45.800000000000004,0)" xlink:href="#P"/><use transform="matrix(0.05,0,0,0.05,56.75,0)" xlink:href="#Q"/></g><g id="u"><use transform="matrix(0.05,0,0,0.05,0,0)" xlink:href="#ai"/><use transform="matrix(0.05,0,0,0.05,12.950000000000001,0)" xlink:href="#O"/><use transform="matrix(0.05,0,0,0.05,23.900000000000002,0)" xlink:href="#O"/><use transform="matrix(0.05,0,0,0.05,34.85,0)" xlink:href="#Q"/><use transform="matrix(0.05,0,0,0.05,41.85,0)" xlink:href="#P"/><use transform="matrix(0.05,0,0,0.05,52.800000000000004,0)" xlink:href="#aj"/><use transform="matrix(0.05,0,0,0.05,62.800000000000004,0)" xlink:href="#W"/><use transform="matrix(0.05,0,0,0.05,72.80000000000001,0)" xlink:href="#Q"/></g><path fill="#333" d="M15-91v-56l181-69v40L49-119l147 57v40" id="ao"/><path fill="#333" d="M15-22v-40l146-57-146-57v-40l181 69v56" id="ap"/><g id="v"><use transform="matrix(0.05,0,0,0.05,0,0)" xlink:href="#ao"/><use transform="matrix(0.05,0,0,0.05,10.5,0)" xlink:href="#ao"/><use transform="matrix(0.05,0,0,0.05,21,0)" xlink:href="#W"/><use transform="matrix(0.05,0,0,0.05,31,0)" xlink:href="#N"/><use transform="matrix(0.05,0,0,0.05,41,0)" xlink:href="#R"/><use transform="matrix(0.05,0,0,0.05,46.95,0)" xlink:href="#W"/><use transform="matrix(0.05,0,0,0.05,56.95,0)" xlink:href="#ah"/><use transform="matrix(0.05,0,0,0.05,67.9,0)" xlink:href="#ab"/><use transform="matrix(0.05,0,0,0.05,78.85000000000001,0)" xlink:href="#am"/><use transform="matrix(0.05,0,0,0.05,88.85000000000001,0)" xlink:href="#ap"/><use transform="matrix(0.05,0,0,0.05,99.35000000000001,0)" xlink:href="#ap"/></g><path fill="#333" d="M190-63c-7 42-38 67-86 67-59 0-84-38-90-98-12-110 154-137 174-36l-49 2c-2-19-15-32-35-32-30 0-35 28-38 64-6 74 65 87 74 30" id="aq"/><g id="w"><use transform="matrix(0.05,0,0,0.05,0,0)" xlink:href="#ao"/><use transform="matrix(0.05,0,0,0.05,10.5,0)" xlink:href="#ao"/><use transform="matrix(0.05,0,0,0.05,21,0)" xlink:href="#V"/><use transform="matrix(0.05,0,0,0.05,26,0)" xlink:href="#ah"/><use transform="matrix(0.05,0,0,0.05,36.95,0)" xlink:href="#aq"/><use transform="matrix(0.05,0,0,0.05,46.95,0)" xlink:href="#aa"/><use transform="matrix(0.05,0,0,0.05,51.95,0)" xlink:href="#ak"/><use transform="matrix(0.05,0,0,0.05,62.900000000000006,0)" xlink:href="#ab"/><use transform="matrix(0.05,0,0,0.05,73.85000000000001,0)" xlink:href="#W"/><use transform="matrix(0.05,0,0,0.05,83.85000000000001,0)" xlink:href="#ap"/><use transform="matrix(0.05,0,0,0.05,94.35000000000001,0)" xlink:href="#ap"/></g></defs></g></svg>