<svg xmlns="http://www.w3.org/2000/svg" xmlns:xlink="http://www.w3.org/1999/xlink" xmlns:lucid="lucid" width="1700" height="940"><g transform="translate(-85.19999999999993 -220)" lucid:page-tab-id="zESAseJvf9q~"><path d="M0 0h1870.4v1323.2H0z" fill="#fff"/><path d="M1151.2 266h614v874h-1660V240h996zm-1046 0h1046" stroke="#000" stroke-width="2" fill="#fff"/><use xlink:href="#a" transform="matrix(1,0,0,1,113.19999999999993,240) translate(0 16.6)"/><use xlink:href="#b" transform="matrix(1,0,0,1,113.19999999999993,240) translate(42.25 16.6)"/><use xlink:href="#c" transform="matrix(1,0,0,1,113.19999999999993,240) translate(143.10000000000002 16.6)"/><path d="M770 828l33.6-28H1100v246.4l-28 33.6H770z" stroke="#000" stroke-width="2" fill="#fff"/><path d="M770 828l33.6-28H1100l-28 28z" stroke="#000" stroke-width="2" fill="#e6e6e6"/><path d="M1072 828l28-28v246.4l-28 33.6z" stroke="#000" stroke-width="2" fill="#ccc"/><use xlink:href="#d" transform="matrix(1,0,0,1,778,836) translate(0 16.6)"/><use xlink:href="#e" transform="matrix(1,0,0,1,778,836) translate(41.95 16.6)"/><use xlink:href="#f" transform="matrix(1,0,0,1,778,836) translate(124.70000000000002 16.6)"/><path d="M810 869h213v171H810z" stroke="#000" stroke-width="2" fill="#c7e8ac"/><path d="M790 901.75h40v20h-40zM790 987.25h40v20h-40z" stroke="#000" stroke-width="2" fill="#c7e8ac"/><use xlink:href="#g" transform="matrix(1,0,0,1,836.6,886.1) translate(26.625 14.4)"/><use xlink:href="#h" transform="matrix(1,0,0,1,836.6,886.1) translate(97.425 14.4)"/><path d="M1340 840l33.6-28H1660v246.4l-28 33.6h-292z" stroke="#000" stroke-width="2" fill="#fff"/><path d="M1340 840l33.6-28H1660l-28 28z" stroke="#000" stroke-width="2" fill="#e6e6e6"/><path d="M1632 840l28-28v246.4l-28 33.6z" stroke="#000" stroke-width="2" fill="#ccc"/><use xlink:href="#i" transform="matrix(1,0,0,1,1348,848) translate(0 16.6)"/><path d="M1382.86 992h231.43v70h-231.44z" stroke="#000" stroke-width="2" fill="#fff"/><path d="M1362.86 999.5h40v20h-40zM1362.86 1034.5h40v20h-40z" stroke="#000" stroke-width="2" fill="#fff"/><use xlink:href="#j" transform="matrix(1,0,0,1,1413.1428571428569,999) translate(20.799999999999997 14.4)"/><use xlink:href="#k" transform="matrix(1,0,0,1,1413.1428571428569,999) translate(79.30000000000001 14.4)"/><path d="M1393.57 884h215.72v70h-215.73z" stroke="#000" stroke-width="2" fill="#c7e8ac"/><path d="M1373.57 891.5h40v20h-40zM1373.57 926.5h40v20h-40z" stroke="#000" stroke-width="2" fill="#c7e8ac"/><use xlink:href="#l" transform="matrix(1,0,0,1,1420.7142857142856,891) translate(17.674999999999997 14.4)"/><use xlink:href="#m" transform="matrix(1,0,0,1,1420.7142857142856,891) translate(61.575 14.4)"/><use xlink:href="#n" transform="matrix(1,0,0,1,1420.7142857142856,891) translate(12.75 36)"/><use xlink:href="#o" transform="matrix(1,0,0,1,1420.7142857142856,891) translate(86.7 36)"/><use xlink:href="#p" transform="matrix(1,0,0,1,1420.7142857142856,891) translate(96.7 36)"/><path d="M1340 372l38.4-32H1660v321.6l-32 38.4h-288z" stroke="#000" stroke-width="2" fill="#fff"/><path d="M1340 372l38.4-32H1660l-32 32z" stroke="#000" stroke-width="2" fill="#e6e6e6"/><path d="M1628 372l32-32v321.6l-32 38.4z" stroke="#000" stroke-width="2" fill="#ccc"/><use xlink:href="#d" transform="matrix(1,0,0,1,1348,380) translate(0 16.6)"/><use xlink:href="#q" transform="matrix(1,0,0,1,1348,380) translate(41.95 16.6)"/><use xlink:href="#r" transform="matrix(1,0,0,1,1348,380) translate(94.85000000000001 16.6)"/><use xlink:href="#s" transform="matrix(1,0,0,1,1348,380) translate(129.8 16.6)"/><use xlink:href="#t" transform="matrix(1,0,0,1,1348,380) translate(139.8 16.6)"/><path d="M1400 520h200v74.12h-200z" stroke="#000" stroke-width="2" fill="#c7e8ac"/><path d="M1380 528.53h40v20h-40zM1380 565.6h40v20h-40z" stroke="#000" stroke-width="2" fill="#c7e8ac"/><use xlink:href="#u" transform="matrix(1,0,0,1,1424,527.4117647058823) translate(15.649999999999991 14.4)"/><use xlink:href="#v" transform="matrix(1,0,0,1,1424,527.4117647058823) translate(52.55 14.4)"/><use xlink:href="#w" transform="matrix(1,0,0,1,1424,527.4117647058823) translate(45 36)"/><use xlink:href="#x" transform="matrix(1,0,0,1,1424,527.4117647058823) translate(30.64999999999999 57.6)"/><path d="M1400 612.65h200v74.1h-200z" stroke="#000" stroke-width="2" fill="#c7e8ac"/><path d="M1380 621.18h40v20h-40zM1380 658.24h40v20h-40z" stroke="#000" stroke-width="2" fill="#c7e8ac"/><use xlink:href="#y" transform="matrix(1,0,0,1,1424,620.0588235294118) translate(14.649999999999991 14.4)"/><use xlink:href="#z" transform="matrix(1,0,0,1,1424,620.0588235294118) translate(19.64999999999999 14.4)"/><use xlink:href="#A" transform="matrix(1,0,0,1,1424,620.0588235294118) translate(61.599999999999994 14.4)"/><use xlink:href="#B" transform="matrix(1,0,0,1,1424,620.0588235294118) translate(43.625 36)"/><use xlink:href="#C" transform="matrix(1,0,0,1,1424,620.0588235294118) translate(35.64999999999999 57.6)"/><path d="M1401.43 420h200v74.12h-200z" stroke="#000" stroke-width="2" fill="#c7e8ac"/><path d="M1381.43 428.53h40v20h-40zM1381.43 465.6h40v20h-40z" stroke="#000" stroke-width="2" fill="#c7e8ac"/><use xlink:href="#D" transform="matrix(1,0,0,1,1425.4285714285713,427.4117647058824) translate(0.7249999999999943 14.4)"/><use xlink:href="#E" transform="matrix(1,0,0,1,1425.4285714285713,427.4117647058824) translate(60.574999999999996 14.4)"/><path d="M770 373l39.6-33H1100v320.4l-33 39.6H770z" stroke="#000" stroke-width="2" fill="#fff"/><path d="M770 373l39.6-33H1100l-33 33z" stroke="#000" stroke-width="2" fill="#e6e6e6"/><path d="M1067 373l33-33v320.4l-33 39.6z" stroke="#000" stroke-width="2" fill="#ccc"/><use xlink:href="#d" transform="matrix(1,0,0,1,778,381) translate(0 16.6)"/><use xlink:href="#F" transform="matrix(1,0,0,1,778,381) translate(41.95 16.6)"/><use xlink:href="#f" transform="matrix(1,0,0,1,778,381) translate(84.5 16.6)"/><path d="M817.5 421h222v100h-222z" stroke="#000" stroke-width="2" fill="#fff"/><path d="M797.5 436h40v20h-40zM797.5 486h40v20h-40z" stroke="#000" stroke-width="2" fill="#fff"/><use xlink:href="#G" transform="matrix(1,0,0,1,845.9,431) translate(35.725 14.4)"/><use xlink:href="#H" transform="matrix(1,0,0,1,845.9,431) translate(78.275 14.4)"/><path d="M852.5 461H1023v39H852.5z" stroke="#000" stroke-width="2" fill="#c7e8ac"/><use xlink:href="#I" transform="matrix(1,0,0,1,852.5,461) translate(59.005 24.15)"/><path d="M812 540h222v140H812z" stroke="#000" stroke-width="2" fill="#fff"/><path d="M792 565h40v20h-40zM792 635h40v20h-40z" stroke="#000" stroke-width="2" fill="#fff"/><use xlink:href="#G" transform="matrix(1,0,0,1,840.4,554) translate(15.799999999999997 14.4)"/><use xlink:href="#J" transform="matrix(1,0,0,1,840.4,554) translate(58.349999999999994 14.4)"/><use xlink:href="#f" transform="matrix(1,0,0,1,840.4,554) translate(98.2 14.4)"/><path d="M847 580h176v40H847z" stroke="#000" stroke-width="2" fill="#fff"/><use xlink:href="#K" transform="matrix(1,0,0,1,847,580) translate(42.505 24.4)"/><use xlink:href="#L" transform="matrix(1,0,0,1,847,580) translate(83.505 24.4)"/><path d="M847 629h176v40H847z" stroke="#000" stroke-width="2" fill="#fff"/><use xlink:href="#M" transform="matrix(1,0,0,1,847,629) translate(21.57999999999999 24.4)"/><use xlink:href="#N" transform="matrix(1,0,0,1,847,629) translate(99.53 24.4)"/><path d="M180 370l36-30h264v324l-30 36H180z" stroke="#000" stroke-width="2" fill="#fff"/><path d="M180 370l36-30h264l-30 30z" stroke="#000" stroke-width="2" fill="#e6e6e6"/><path d="M450 370l30-30v324l-30 36z" stroke="#000" stroke-width="2" fill="#ccc"/><use xlink:href="#O" transform="matrix(1,0,0,1,188,378) translate(0 16.6)"/><use xlink:href="#P" transform="matrix(1,0,0,1,188,378) translate(59.85000000000001 16.6)"/><path d="M220 421h200v66.85H220z" stroke="#000" stroke-width="2" fill="#fff"/><path d="M200 427.7h40v20h-40zM200 461.14h40v20h-40z" stroke="#000" stroke-width="2" fill="#fff"/><use xlink:href="#Q" transform="matrix(1,0,0,1,244,427.68529411764706) translate(41.05 14.4)"/><path d="M220 600h200v78H220z" stroke="#000" stroke-width="2" fill="#fff"/><path d="M200 609.5h40v20h-40zM200 648.5h40v20h-40z" stroke="#000" stroke-width="2" fill="#fff"/><use xlink:href="#R" transform="matrix(1,0,0,1,244,607.8) translate(10.924999999999997 14.4)"/><use xlink:href="#S" transform="matrix(1,0,0,1,244,607.8) translate(62.925 14.4)"/><use xlink:href="#T" transform="matrix(1,0,0,1,244,607.8) translate(105.175 14.4)"/><use xlink:href="#U" transform="matrix(1,0,0,1,244,607.8) translate(7.625 36)"/><use xlink:href="#V" transform="matrix(1,0,0,1,244,607.8) translate(36.525000000000006 36)"/><use xlink:href="#W" transform="matrix(1,0,0,1,244,607.8) translate(72.525 36)"/><use xlink:href="#X" transform="matrix(1,0,0,1,244,607.8) translate(114.47500000000001 36)"/><path d="M311 598h-2v-35h2zm0-56.6h-2v-34.05h2z"/><path d="M311 599h-2v-1.03h2zM314.64 506.35h-9.28L310 492.1z"/><path d="M316 507.35h-12l6-18.5zm-9.26-2h6.52L310 495.33z"/><g><use xlink:href="#Y" transform="matrix(1,0,0,1,224.14999999999998,541.3951219512196) translate(0 14.4)"/><use xlink:href="#Z" transform="matrix(1,0,0,1,224.14999999999998,541.3951219512196) translate(61.900000000000006 14.4)"/><use xlink:href="#aa" transform="matrix(1,0,0,1,224.14999999999998,541.3951219512196) translate(71.9 14.4)"/><use xlink:href="#ab" transform="matrix(1,0,0,1,224.14999999999998,541.3951219512196) translate(115.80000000000001 14.4)"/><use xlink:href="#ac" transform="matrix(1,0,0,1,224.14999999999998,541.3951219512196) translate(132.8 14.4)"/></g><path d="M767.5 452.97v3l-103.65-.03v-3zm-345 2.96v-3h103.65v3z"/><path d="M422.54 455.93H421v-3h1.54zM769 455.97h-1.54v-3H769z"/><g><use xlink:href="#ad" transform="matrix(1,0,0,1,526.15,432.8462097602436) translate(11.879999999999988 14.4)"/><use xlink:href="#ae" transform="matrix(1,0,0,1,526.15,432.8462097602436) translate(46.87999999999999 14.4)"/><use xlink:href="#af" transform="matrix(1,0,0,1,526.15,432.8462097602436) translate(120.82999999999998 14.4)"/><use xlink:href="#ag" transform="matrix(1,0,0,1,526.15,432.8462097602436) translate(0.0049999999999954525 36)"/><use xlink:href="#ah" transform="matrix(1,0,0,1,526.15,432.8462097602436) translate(48.904999999999994 36)"/><use xlink:href="#ai" transform="matrix(1,0,0,1,526.15,432.8462097602436) translate(76.80499999999999 36)"/></g><path d="M1320.5 479.02v2h-58.58v-2zM1071 481v-2h76.08v2z"/><path d="M1071.03 481H1070v-2h1.03zM1335.76 480.02l-14.26 4.63v-9.27z"/><path d="M1339 480.02l-18.5 6V474zm-16.5 3.26l10.03-3.26-10.03-3.26z"/><g><use xlink:href="#aj" transform="matrix(1,0,0,1,1147.075,458.40827814569536) translate(0 14.4)"/><use xlink:href="#ak" transform="matrix(1,0,0,1,1147.075,458.40827814569536) translate(0 36)"/><use xlink:href="#al" transform="matrix(1,0,0,1,1147.075,458.40827814569536) translate(10 36)"/></g><path d="M936 798h-2v-26.4h2zm0-69.6h-2V702h2z"/><path d="M936 702.03h-2V701h2zM936 799h-2v-1.03h2z"/><g><use xlink:href="#am" transform="matrix(1,0,0,1,890.55,728.4) translate(10.980000000000004 14.4)"/><use xlink:href="#an" transform="matrix(1,0,0,1,890.55,728.4) translate(0.005000000000002558 36)"/></g><path d="M1338 951v2h-90.88v-2zm-265.67-16v-2h90.9v2z"/><path d="M1072.36 935h-1.03v-2h1.03zM1339 953h-1.03v-2h1.03z"/><g><use xlink:href="#ao" transform="matrix(1,0,0,1,1163.2166666666665,921.4000000000001) translate(3.480000000000004 14.4)"/><use xlink:href="#ap" transform="matrix(1,0,0,1,1163.2166666666665,921.4000000000001) translate(0.005000000000002558 36)"/></g><path d="M1102.4 839.66l-1.13-1.66 101.03-68.54h3.56zm236.33-160.34l-101.03 68.54h-3.56l103.47-70.2z"/><path d="M1102.4 839.65l-1.4.95v-2.4l.3-.2zM1339 679.14l-.3.2-1.1-1.66 1.4-.95z"/><g><use xlink:href="#aq" transform="matrix(1,0,0,1,1123.55,747.8642710214731) translate(0 14.4)"/><use xlink:href="#Z" transform="matrix(1,0,0,1,1123.55,747.8642710214731) translate(79.95 14.4)"/><use xlink:href="#ar" transform="matrix(1,0,0,1,1123.55,747.8642710214731) translate(89.95 14.4)"/><use xlink:href="#as" transform="matrix(1,0,0,1,1123.55,747.8642710214731) translate(123.95 14.4)"/></g><path d="M205 820h275v64H205z" stroke="#000" stroke-width="2" fill="#c7e8ac"/><g><use xlink:href="#at" transform="matrix(1,0,0,1,205,820) translate(50.12999999999999 34.4)"/><use xlink:href="#au" transform="matrix(1,0,0,1,205,820) translate(122.98 34.4)"/></g><path d="M205 920h275v64H205z" stroke="#000" stroke-width="2" fill="#fff"/><g><use xlink:href="#av" transform="matrix(1,0,0,1,205,920) translate(38.65499999999998 34.4)"/><use xlink:href="#au" transform="matrix(1,0,0,1,205,920) translate(134.45499999999998 34.4)"/></g><path d="M840 920h160v83H840z" stroke="#000" stroke-width="2" fill="#fff"/><g><use xlink:href="#aw" transform="matrix(1,0,0,1,840,920) translate(28.054999999999993 24.775)"/><use xlink:href="#ax" transform="matrix(1,0,0,1,840,920) translate(71.005 24.775)"/><use xlink:href="#ay" transform="matrix(1,0,0,1,840,920) translate(95.005 24.775)"/><use xlink:href="#az" transform="matrix(1,0,0,1,840,920) translate(27.57999999999999 46.375)"/><use xlink:href="#aA" transform="matrix(1,0,0,1,840,920) translate(74.53 46.375)"/><use xlink:href="#aB" transform="matrix(1,0,0,1,840,920) translate(94.53 46.375)"/><use xlink:href="#aC" transform="matrix(1,0,0,1,840,920) translate(60.505 67.97500000000001)"/></g><defs><path d="M232-93c-1 65-40 97-104 97C67 4 28-28 28-90v-158h33c8 89-33 224 67 224 102 0 64-133 71-224h33v155" id="aD"/><path d="M240 0l2-218c-23 76-54 145-80 218h-23L58-218 59 0H30v-248h44l77 211c21-75 51-140 76-211h43V0h-30" id="aE"/><path d="M30 0v-248h33v221h125V0H30" id="aF"/><g id="a"><use transform="matrix(0.05,0,0,0.05,0,0)" xlink:href="#aD"/><use transform="matrix(0.05,0,0,0.05,12.950000000000001,0)" xlink:href="#aE"/><use transform="matrix(0.05,0,0,0.05,27.900000000000002,0)" xlink:href="#aF"/></g><path d="M30-248c118-7 216 8 213 122C240-48 200 0 122 0H30v-248zM63-27c89 8 146-16 146-99s-60-101-146-95v194" id="aG"/><path d="M100-194c63 0 86 42 84 106H49c0 40 14 67 53 68 26 1 43-12 49-29l28 8c-11 28-37 45-77 45C44 4 14-33 15-96c1-61 26-98 85-98zm52 81c6-60-76-77-97-28-3 7-6 17-6 28h103" id="aH"/><path d="M115-194c55 1 70 41 70 98S169 2 115 4C84 4 66-9 55-30l1 105H24l-1-265h31l2 30c10-21 28-34 59-34zm-8 174c40 0 45-34 45-75s-6-73-45-74c-42 0-51 32-51 76 0 43 10 73 51 73" id="aI"/><path d="M24 0v-261h32V0H24" id="aJ"/><path d="M100-194c62-1 85 37 85 99 1 63-27 99-86 99S16-35 15-95c0-66 28-99 85-99zM99-20c44 1 53-31 53-75 0-43-8-75-51-75s-53 32-53 75 10 74 51 75" id="aK"/><path d="M179-190L93 31C79 59 56 82 12 73V49c39 6 53-20 64-50L1-190h34L92-34l54-156h33" id="aL"/><path d="M210-169c-67 3-38 105-44 169h-31v-121c0-29-5-50-35-48C34-165 62-65 56 0H25l-1-190h30c1 10-1 24 2 32 10-44 99-50 107 0 11-21 27-35 58-36 85-2 47 119 55 194h-31v-121c0-29-5-49-35-48" id="aM"/><path d="M117-194c89-4 53 116 60 194h-32v-121c0-31-8-49-39-48C34-167 62-67 57 0H25l-1-190h30c1 10-1 24 2 32 11-22 29-35 61-36" id="aN"/><path d="M59-47c-2 24 18 29 38 22v24C64 9 27 4 27-40v-127H5v-23h24l9-43h21v43h35v23H59v120" id="aO"/><g id="b"><use transform="matrix(0.05,0,0,0.05,0,0)" xlink:href="#aG"/><use transform="matrix(0.05,0,0,0.05,12.950000000000001,0)" xlink:href="#aH"/><use transform="matrix(0.05,0,0,0.05,22.950000000000003,0)" xlink:href="#aI"/><use transform="matrix(0.05,0,0,0.05,32.95,0)" xlink:href="#aJ"/><use transform="matrix(0.05,0,0,0.05,36.900000000000006,0)" xlink:href="#aK"/><use transform="matrix(0.05,0,0,0.05,46.900000000000006,0)" xlink:href="#aL"/><use transform="matrix(0.05,0,0,0.05,55.900000000000006,0)" xlink:href="#aM"/><use transform="matrix(0.05,0,0,0.05,70.85000000000001,0)" xlink:href="#aH"/><use transform="matrix(0.05,0,0,0.05,80.85000000000001,0)" xlink:href="#aN"/><use transform="matrix(0.05,0,0,0.05,90.85000000000001,0)" xlink:href="#aO"/></g><path d="M24-231v-30h32v30H24zM24 0v-190h32V0H24" id="aP"/><path d="M141-36C126-15 110 5 73 4 37 3 15-17 15-53c-1-64 63-63 125-63 3-35-9-54-41-54-24 1-41 7-42 31l-33-3c5-37 33-52 76-52 45 0 72 20 72 64v82c-1 20 7 32 28 27v20c-31 9-61-2-59-35zM48-53c0 20 12 33 32 33 41-3 63-29 60-74-43 2-92-5-92 41" id="aQ"/><path d="M177-190C167-65 218 103 67 71c-23-6-38-20-44-43l32-5c15 47 100 32 89-28v-30C133-14 115 1 83 1 29 1 15-40 15-95c0-56 16-97 71-98 29-1 48 16 59 35 1-10 0-23 2-32h30zM94-22c36 0 50-32 50-73 0-42-14-75-50-75-39 0-46 34-46 75s6 73 46 73" id="aR"/><path d="M114-163C36-179 61-72 57 0H25l-1-190h30c1 12-1 29 2 39 6-27 23-49 58-41v29" id="aS"/><g id="c"><use transform="matrix(0.05,0,0,0.05,0,0)" xlink:href="#aG"/><use transform="matrix(0.05,0,0,0.05,12.950000000000001,0)" xlink:href="#aP"/><use transform="matrix(0.05,0,0,0.05,16.900000000000002,0)" xlink:href="#aQ"/><use transform="matrix(0.05,0,0,0.05,26.900000000000002,0)" xlink:href="#aR"/><use transform="matrix(0.05,0,0,0.05,36.900000000000006,0)" xlink:href="#aS"/><use transform="matrix(0.05,0,0,0.05,42.85000000000001,0)" xlink:href="#aQ"/><use transform="matrix(0.05,0,0,0.05,52.85,0)" xlink:href="#aM"/></g><path d="M169-182c-1-43-94-46-97-3 18 66 151 10 154 114 3 95-165 93-204 36-6-8-10-19-12-30l50-8c3 46 112 56 116 5-17-69-150-10-154-114-4-87 153-88 188-35 5 8 8 18 10 28" id="aT"/><path d="M199 0l-22-63H83L61 0H9l90-248h61L250 0h-51zm-33-102l-36-108c-10 38-24 72-36 108h72" id="aU"/><g id="d"><use transform="matrix(0.05,0,0,0.05,0,0)" xlink:href="#aT"/><use transform="matrix(0.05,0,0,0.05,12,0)" xlink:href="#aU"/><use transform="matrix(0.05,0,0,0.05,24.950000000000003,0)" xlink:href="#aT"/></g><path d="M67-125c0 53 21 87 73 88 37 1 54-22 65-47l45 17C233-25 199 4 140 4 58 4 20-42 15-125 8-235 124-281 211-232c18 10 29 29 36 50l-46 12c-8-25-30-41-62-41-52 0-71 34-72 86" id="aV"/><path d="M110-194c64 0 96 36 96 99 0 64-35 99-97 99-61 0-95-36-95-99 0-62 34-99 96-99zm-1 164c35 0 45-28 45-65 0-40-10-65-43-65-34 0-45 26-45 65 0 36 10 65 43 65" id="aW"/><path d="M220-157c-53 9-28 100-34 157h-49v-107c1-27-5-49-29-50C55-147 81-57 75 0H25l-1-190h47c2 12-1 28 3 38 10-53 101-56 108 0 13-22 24-43 59-42 82 1 51 116 57 194h-49v-107c-1-25-5-48-29-50" id="aX"/><path d="M135-194c53 0 70 44 70 98 0 56-19 98-73 100-31 1-45-17-59-34 3 33 2 69 2 105H25l-1-265h48c2 10 0 23 3 31 11-24 29-35 60-35zM114-30c33 0 39-31 40-66 0-38-9-64-40-64-56 0-55 130 0 130" id="aY"/><path d="M85 4C-2 5 27-109 22-190h50c7 57-23 150 33 157 60-5 35-97 40-157h50l1 190h-47c-2-12 1-28-3-38-12 25-28 42-61 42" id="aZ"/><path d="M115-3C79 11 28 4 28-45v-112H4v-33h27l15-45h31v45h36v33H77v99c-1 23 16 31 38 25v30" id="ba"/><path d="M185-48c-13 30-37 53-82 52C43 2 14-33 14-96s30-98 90-98c62 0 83 45 84 108H66c0 31 8 55 39 56 18 0 30-7 34-22zm-45-69c5-46-57-63-70-21-2 6-4 13-4 21h74" id="bb"/><g id="e"><use transform="matrix(0.05,0,0,0.05,0,0)" xlink:href="#aV"/><use transform="matrix(0.05,0,0,0.05,12.950000000000001,0)" xlink:href="#aW"/><use transform="matrix(0.05,0,0,0.05,23.900000000000002,0)" xlink:href="#aX"/><use transform="matrix(0.05,0,0,0.05,39.900000000000006,0)" xlink:href="#aY"/><use transform="matrix(0.05,0,0,0.05,50.85000000000001,0)" xlink:href="#aZ"/><use transform="matrix(0.05,0,0,0.05,61.80000000000001,0)" xlink:href="#ba"/><use transform="matrix(0.05,0,0,0.05,67.75000000000001,0)" xlink:href="#bb"/></g><path d="M135-150c-39-12-60 13-60 57V0H25l-1-190h47c2 13-1 29 3 40 6-28 27-53 61-41v41" id="bc"/><path d="M128 0H69L1-190h53L99-40l48-150h52" id="bd"/><g id="f"><use transform="matrix(0.05,0,0,0.05,0,0)" xlink:href="#aT"/><use transform="matrix(0.05,0,0,0.05,12,0)" xlink:href="#bb"/><use transform="matrix(0.05,0,0,0.05,22,0)" xlink:href="#bc"/><use transform="matrix(0.05,0,0,0.05,29,0)" xlink:href="#bd"/><use transform="matrix(0.05,0,0,0.05,39,0)" xlink:href="#bb"/><use transform="matrix(0.05,0,0,0.05,49,0)" xlink:href="#bc"/></g><path d="M133-34C117-15 103 5 69 4 32 3 11-16 11-54c-1-60 55-63 116-61 1-26-3-47-28-47-18 1-26 9-28 27l-52-2c7-38 36-58 82-57s74 22 75 68l1 82c-1 14 12 18 25 15v27c-30 8-71 5-69-32zm-48 3c29 0 43-24 42-57-32 0-66-3-65 30 0 17 8 27 23 27" id="be"/><path d="M195-6C206 82 75 100 31 46c-4-6-6-13-8-21l49-6c3 16 16 24 34 25 40 0 42-37 40-79-11 22-30 35-61 35-53 0-70-43-70-97 0-56 18-96 73-97 30 0 46 14 59 34l2-30h47zm-90-29c32 0 41-27 41-63 0-35-9-62-40-62-32 0-39 29-40 63 0 36 9 62 39 62" id="bf"/><path d="M25-224v-37h50v37H25zM25 0v-190h50V0H25" id="bg"/><path d="M135-194c87-1 58 113 63 194h-50c-7-57 23-157-34-157-59 0-34 97-39 157H25l-1-190h47c2 12-1 28 3 38 12-26 28-41 61-42" id="bh"/><g id="g"><use transform="matrix(0.05,0,0,0.05,0,0)" xlink:href="#aT"/><use transform="matrix(0.05,0,0,0.05,12,0)" xlink:href="#ba"/><use transform="matrix(0.05,0,0,0.05,17.95,0)" xlink:href="#be"/><use transform="matrix(0.05,0,0,0.05,27.950000000000003,0)" xlink:href="#bf"/><use transform="matrix(0.05,0,0,0.05,38.9,0)" xlink:href="#bg"/><use transform="matrix(0.05,0,0,0.05,43.9,0)" xlink:href="#bh"/><use transform="matrix(0.05,0,0,0.05,54.85,0)" xlink:href="#bf"/></g><g id="h"><use transform="matrix(0.05,0,0,0.05,0,0)" xlink:href="#aU"/><use transform="matrix(0.05,0,0,0.05,12.950000000000001,0)" xlink:href="#bc"/><use transform="matrix(0.05,0,0,0.05,19.950000000000003,0)" xlink:href="#bb"/><use transform="matrix(0.05,0,0,0.05,29.950000000000003,0)" xlink:href="#be"/></g><path d="M24-248c120-7 223 5 221 122C244-46 201 0 124 0H24v-248zM76-40c74 7 117-18 117-86 0-67-45-88-117-82v168" id="bi"/><path d="M135-194c52 0 70 43 70 98 0 56-19 99-73 100-30 1-46-15-58-35L72 0H24l1-261h50v104c11-23 29-37 60-37zM114-30c31 0 40-27 40-66 0-37-7-63-39-63s-41 28-41 65c0 36 8 64 40 64" id="bj"/><path d="M137-138c1-29-70-34-71-4 15 46 118 7 119 86 1 83-164 76-172 9l43-7c4 19 20 25 44 25 33 8 57-30 24-41C81-84 22-81 20-136c-2-80 154-74 161-7" id="bk"/><path d="M67-93c0 74 22 123 53 168H70C40 30 18-18 18-93s22-123 52-168h50c-32 44-53 94-53 168" id="bl"/><path d="M102-93c0 74-22 123-52 168H0C30 29 54-18 53-93c0-74-22-123-53-168h50c30 45 52 94 52 168" id="bm"/><g id="i"><use transform="matrix(0.05,0,0,0.05,0,0)" xlink:href="#bi"/><use transform="matrix(0.05,0,0,0.05,12.950000000000001,0)" xlink:href="#be"/><use transform="matrix(0.05,0,0,0.05,22.950000000000003,0)" xlink:href="#ba"/><use transform="matrix(0.05,0,0,0.05,28.900000000000002,0)" xlink:href="#be"/><use transform="matrix(0.05,0,0,0.05,38.900000000000006,0)" xlink:href="#bj"/><use transform="matrix(0.05,0,0,0.05,49.85000000000001,0)" xlink:href="#be"/><use transform="matrix(0.05,0,0,0.05,59.85,0)" xlink:href="#bk"/><use transform="matrix(0.05,0,0,0.05,69.85000000000001,0)" xlink:href="#bb"/><use transform="matrix(0.05,0,0,0.05,79.85000000000001,0)" xlink:href="#bl"/><use transform="matrix(0.05,0,0,0.05,85.80000000000001,0)" xlink:href="#bk"/><use transform="matrix(0.05,0,0,0.05,95.80000000000001,0)" xlink:href="#bm"/></g><path d="M136-208V0H84v-208H4v-40h212v40h-80" id="bn"/><g id="j"><use transform="matrix(0.05,0,0,0.05,0,0)" xlink:href="#bn"/><use transform="matrix(0.05,0,0,0.05,9.600000000000001,0)" xlink:href="#be"/><use transform="matrix(0.05,0,0,0.05,19.6,0)" xlink:href="#bc"/><use transform="matrix(0.05,0,0,0.05,26.6,0)" xlink:href="#bf"/><use transform="matrix(0.05,0,0,0.05,37.550000000000004,0)" xlink:href="#bb"/><use transform="matrix(0.05,0,0,0.05,47.550000000000004,0)" xlink:href="#ba"/></g><path d="M24 0v-248h52v208h133V0H24" id="bo"/><g id="k"><use transform="matrix(0.05,0,0,0.05,0,0)" xlink:href="#bo"/><use transform="matrix(0.05,0,0,0.05,10.950000000000001,0)" xlink:href="#bg"/><use transform="matrix(0.05,0,0,0.05,15.950000000000001,0)" xlink:href="#bj"/><use transform="matrix(0.05,0,0,0.05,26.900000000000002,0)" xlink:href="#bc"/><use transform="matrix(0.05,0,0,0.05,33.900000000000006,0)" xlink:href="#be"/><use transform="matrix(0.05,0,0,0.05,43.900000000000006,0)" xlink:href="#bc"/><use transform="matrix(0.05,0,0,0.05,50.900000000000006,0)" xlink:href="#bg"/><use transform="matrix(0.05,0,0,0.05,55.900000000000006,0)" xlink:href="#bb"/><use transform="matrix(0.05,0,0,0.05,65.9,0)" xlink:href="#bk"/></g><g id="l"><use transform="matrix(0.05,0,0,0.05,0,0)" xlink:href="#bi"/><use transform="matrix(0.05,0,0,0.05,12.950000000000001,0)" xlink:href="#be"/><use transform="matrix(0.05,0,0,0.05,22.950000000000003,0)" xlink:href="#ba"/><use transform="matrix(0.05,0,0,0.05,28.900000000000002,0)" xlink:href="#be"/></g><path d="M25 0v-261h50V0H25" id="bp"/><g id="m"><use transform="matrix(0.05,0,0,0.05,0,0)" xlink:href="#aV"/><use transform="matrix(0.05,0,0,0.05,12.950000000000001,0)" xlink:href="#aW"/><use transform="matrix(0.05,0,0,0.05,23.900000000000002,0)" xlink:href="#bh"/><use transform="matrix(0.05,0,0,0.05,34.85,0)" xlink:href="#ba"/><use transform="matrix(0.05,0,0,0.05,40.800000000000004,0)" xlink:href="#bc"/><use transform="matrix(0.05,0,0,0.05,47.800000000000004,0)" xlink:href="#aW"/><use transform="matrix(0.05,0,0,0.05,58.75,0)" xlink:href="#bp"/><use transform="matrix(0.05,0,0,0.05,63.75,0)" xlink:href="#bp"/><use transform="matrix(0.05,0,0,0.05,68.75,0)" xlink:href="#bb"/><use transform="matrix(0.05,0,0,0.05,78.75,0)" xlink:href="#bc"/></g><path d="M190-63c-7 42-38 67-86 67-59 0-84-38-90-98-12-110 154-137 174-36l-49 2c-2-19-15-32-35-32-30 0-35 28-38 64-6 74 65 87 74 30" id="bq"/><path d="M114-157C55-157 80-60 75 0H25v-261h50l-1 109c12-26 28-41 61-42 86-1 58 113 63 194h-50c-7-57 23-157-34-157" id="br"/><g id="n"><use transform="matrix(0.05,0,0,0.05,0,0)" xlink:href="#aT"/><use transform="matrix(0.05,0,0,0.05,12,0)" xlink:href="#bq"/><use transform="matrix(0.05,0,0,0.05,22,0)" xlink:href="#br"/><use transform="matrix(0.05,0,0,0.05,32.95,0)" xlink:href="#bb"/><use transform="matrix(0.05,0,0,0.05,42.95,0)" xlink:href="#aX"/><use transform="matrix(0.05,0,0,0.05,58.95,0)" xlink:href="#be"/></g><path d="M4 7l51-268h42L46 7H4" id="bs"/><use transform="matrix(0.05,0,0,0.05,0,0)" xlink:href="#bs" id="o"/><g id="p"><use transform="matrix(0.05,0,0,0.05,0,0)" xlink:href="#bn"/><use transform="matrix(0.05,0,0,0.05,9.600000000000001,0)" xlink:href="#be"/><use transform="matrix(0.05,0,0,0.05,19.6,0)" xlink:href="#bj"/><use transform="matrix(0.05,0,0,0.05,30.55,0)" xlink:href="#bp"/><use transform="matrix(0.05,0,0,0.05,35.550000000000004,0)" xlink:href="#bb"/><use transform="matrix(0.05,0,0,0.05,45.550000000000004,0)" xlink:href="#bk"/></g><path d="M240-174c0 40-23 61-54 70L253 0h-59l-57-94H76V0H24v-248c93 4 217-23 216 74zM76-134c48-2 112 12 112-38 0-48-66-32-112-35v73" id="bt"/><path d="M24 0v-248h195v40H76v63h132v40H76v65h150V0H24" id="bu"/><g id="q"><use transform="matrix(0.05,0,0,0.05,0,0)" xlink:href="#bt"/><use transform="matrix(0.05,0,0,0.05,12.950000000000001,0)" xlink:href="#bu"/><use transform="matrix(0.05,0,0,0.05,24.950000000000003,0)" xlink:href="#aT"/><use transform="matrix(0.05,0,0,0.05,36.95,0)" xlink:href="#bn"/></g><path d="M24-248c93 1 206-16 204 79-1 75-69 88-152 82V0H24v-248zm52 121c47 0 100 7 100-41 0-47-54-39-100-39v80" id="bv"/><path d="M24 0v-248h52V0H24" id="bw"/><g id="r"><use transform="matrix(0.05,0,0,0.05,0,0)" xlink:href="#aU"/><use transform="matrix(0.05,0,0,0.05,12.950000000000001,0)" xlink:href="#bv"/><use transform="matrix(0.05,0,0,0.05,24.950000000000003,0)" xlink:href="#bw"/></g><use transform="matrix(0.05,0,0,0.05,0,0)" xlink:href="#bs" id="s"/><g id="t"><use transform="matrix(0.05,0,0,0.05,0,0)" xlink:href="#bv"/><use transform="matrix(0.05,0,0,0.05,12,0)" xlink:href="#aW"/><use transform="matrix(0.05,0,0,0.05,22.950000000000003,0)" xlink:href="#bk"/><use transform="matrix(0.05,0,0,0.05,32.95,0)" xlink:href="#ba"/><use transform="matrix(0.05,0,0,0.05,38.900000000000006,0)" xlink:href="#bf"/><use transform="matrix(0.05,0,0,0.05,49.85000000000001,0)" xlink:href="#bc"/><use transform="matrix(0.05,0,0,0.05,56.85,0)" xlink:href="#bb"/><use transform="matrix(0.05,0,0,0.05,66.85000000000001,0)" xlink:href="#bk"/></g><path d="M176-78C186 10 51 31 16-35c-5-9-9-19-11-32l52-8c4 21 12 37 35 38 23 0 32-16 32-40v-130H75v-41h101v170" id="bx"/><g id="u"><use transform="matrix(0.05,0,0,0.05,0,0)" xlink:href="#bx"/><use transform="matrix(0.05,0,0,0.05,10,0)" xlink:href="#aW"/><use transform="matrix(0.05,0,0,0.05,20.950000000000003,0)" xlink:href="#bj"/></g><path d="M144 0l-44-69L55 0H2l70-98-66-92h53l41 62 40-62h54l-67 91 71 99h-54" id="by"/><g id="v"><use transform="matrix(0.05,0,0,0.05,0,0)" xlink:href="#bu"/><use transform="matrix(0.05,0,0,0.05,12,0)" xlink:href="#by"/><use transform="matrix(0.05,0,0,0.05,22,0)" xlink:href="#bb"/><use transform="matrix(0.05,0,0,0.05,32,0)" xlink:href="#bq"/><use transform="matrix(0.05,0,0,0.05,42,0)" xlink:href="#aZ"/><use transform="matrix(0.05,0,0,0.05,52.95,0)" xlink:href="#ba"/><use transform="matrix(0.05,0,0,0.05,58.900000000000006,0)" xlink:href="#bg"/><use transform="matrix(0.05,0,0,0.05,63.900000000000006,0)" xlink:href="#aW"/><use transform="matrix(0.05,0,0,0.05,74.85000000000001,0)" xlink:href="#bh"/></g><g id="w"><use transform="matrix(0.05,0,0,0.05,0,0)" xlink:href="#aT"/><use transform="matrix(0.05,0,0,0.05,12,0)" xlink:href="#bb"/><use transform="matrix(0.05,0,0,0.05,22,0)" xlink:href="#bc"/><use transform="matrix(0.05,0,0,0.05,29,0)" xlink:href="#bd"/><use transform="matrix(0.05,0,0,0.05,39,0)" xlink:href="#bg"/><use transform="matrix(0.05,0,0,0.05,44,0)" xlink:href="#bq"/><use transform="matrix(0.05,0,0,0.05,54,0)" xlink:href="#bb"/></g><path d="M121-226c-27-7-43 5-38 36h38v33H83V0H34v-157H6v-33h28c-9-59 32-81 87-68v32" id="bz"/><g id="x"><use transform="matrix(0.05,0,0,0.05,0,0)" xlink:href="#bi"/><use transform="matrix(0.05,0,0,0.05,12.950000000000001,0)" xlink:href="#bb"/><use transform="matrix(0.05,0,0,0.05,22.950000000000003,0)" xlink:href="#bz"/><use transform="matrix(0.05,0,0,0.05,28.900000000000002,0)" xlink:href="#bg"/><use transform="matrix(0.05,0,0,0.05,33.900000000000006,0)" xlink:href="#bh"/><use transform="matrix(0.05,0,0,0.05,44.85000000000001,0)" xlink:href="#bg"/><use transform="matrix(0.05,0,0,0.05,49.85000000000001,0)" xlink:href="#ba"/><use transform="matrix(0.05,0,0,0.05,55.80000000000001,0)" xlink:href="#bg"/><use transform="matrix(0.05,0,0,0.05,60.80000000000001,0)" xlink:href="#aW"/><use transform="matrix(0.05,0,0,0.05,71.75000000000001,0)" xlink:href="#bh"/><use transform="matrix(0.05,0,0,0.05,82.70000000000002,0)" xlink:href="#bk"/></g><g id="z"><use transform="matrix(0.05,0,0,0.05,0,0)" xlink:href="#aT"/><use transform="matrix(0.05,0,0,0.05,12,0)" xlink:href="#aU"/><use transform="matrix(0.05,0,0,0.05,24.950000000000003,0)" xlink:href="#aT"/></g><g id="A"><use transform="matrix(0.05,0,0,0.05,0,0)" xlink:href="#aV"/><use transform="matrix(0.05,0,0,0.05,12.950000000000001,0)" xlink:href="#aW"/><use transform="matrix(0.05,0,0,0.05,23.900000000000002,0)" xlink:href="#aX"/><use transform="matrix(0.05,0,0,0.05,39.900000000000006,0)" xlink:href="#aY"/><use transform="matrix(0.05,0,0,0.05,50.85000000000001,0)" xlink:href="#aZ"/><use transform="matrix(0.05,0,0,0.05,61.80000000000001,0)" xlink:href="#ba"/><use transform="matrix(0.05,0,0,0.05,67.75000000000001,0)" xlink:href="#bb"/></g><g id="B"><use transform="matrix(0.05,0,0,0.05,0,0)" xlink:href="#aV"/><use transform="matrix(0.05,0,0,0.05,12.950000000000001,0)" xlink:href="#aW"/><use transform="matrix(0.05,0,0,0.05,23.900000000000002,0)" xlink:href="#bh"/><use transform="matrix(0.05,0,0,0.05,34.85,0)" xlink:href="#ba"/><use transform="matrix(0.05,0,0,0.05,40.800000000000004,0)" xlink:href="#bb"/><use transform="matrix(0.05,0,0,0.05,50.800000000000004,0)" xlink:href="#by"/><use transform="matrix(0.05,0,0,0.05,60.800000000000004,0)" xlink:href="#ba"/></g><g id="C"><use transform="matrix(0.05,0,0,0.05,0,0)" xlink:href="#bi"/><use transform="matrix(0.05,0,0,0.05,12.950000000000001,0)" xlink:href="#bb"/><use transform="matrix(0.05,0,0,0.05,22.950000000000003,0)" xlink:href="#bz"/><use transform="matrix(0.05,0,0,0.05,28.900000000000002,0)" xlink:href="#bg"/><use transform="matrix(0.05,0,0,0.05,33.900000000000006,0)" xlink:href="#bh"/><use transform="matrix(0.05,0,0,0.05,44.85000000000001,0)" xlink:href="#bg"/><use transform="matrix(0.05,0,0,0.05,49.85000000000001,0)" xlink:href="#ba"/><use transform="matrix(0.05,0,0,0.05,55.80000000000001,0)" xlink:href="#bg"/><use transform="matrix(0.05,0,0,0.05,60.80000000000001,0)" xlink:href="#aW"/><use transform="matrix(0.05,0,0,0.05,71.75000000000001,0)" xlink:href="#bh"/></g><path d="M76-208v77h127v40H76V0H24v-248h183v40H76" id="bA"/><path d="M88-194c31-1 46 15 58 34l-1-101h50l1 261h-48c-2-10 0-23-3-31C134-8 116 4 84 4 32 4 16-41 15-95c0-56 19-97 73-99zm17 164c33 0 40-30 41-66 1-37-9-64-41-64s-38 30-39 65c0 43 13 65 39 65" id="bB"/><g id="D"><use transform="matrix(0.05,0,0,0.05,0,0)" xlink:href="#bA"/><use transform="matrix(0.05,0,0,0.05,10.950000000000001,0)" xlink:href="#aW"/><use transform="matrix(0.05,0,0,0.05,21.900000000000002,0)" xlink:href="#bp"/><use transform="matrix(0.05,0,0,0.05,26.900000000000002,0)" xlink:href="#bB"/><use transform="matrix(0.05,0,0,0.05,37.85,0)" xlink:href="#bb"/><use transform="matrix(0.05,0,0,0.05,47.85,0)" xlink:href="#bc"/></g><g id="E"><use transform="matrix(0.05,0,0,0.05,0,0)" xlink:href="#bi"/><use transform="matrix(0.05,0,0,0.05,12.950000000000001,0)" xlink:href="#bb"/><use transform="matrix(0.05,0,0,0.05,22.950000000000003,0)" xlink:href="#bz"/><use transform="matrix(0.05,0,0,0.05,28.900000000000002,0)" xlink:href="#bg"/><use transform="matrix(0.05,0,0,0.05,33.900000000000006,0)" xlink:href="#bh"/><use transform="matrix(0.05,0,0,0.05,44.85000000000001,0)" xlink:href="#bg"/><use transform="matrix(0.05,0,0,0.05,49.85000000000001,0)" xlink:href="#ba"/><use transform="matrix(0.05,0,0,0.05,55.80000000000001,0)" xlink:href="#bg"/><use transform="matrix(0.05,0,0,0.05,60.80000000000001,0)" xlink:href="#aW"/><use transform="matrix(0.05,0,0,0.05,71.75000000000001,0)" xlink:href="#bh"/><use transform="matrix(0.05,0,0,0.05,82.70000000000002,0)" xlink:href="#bk"/></g><path d="M275 0h-61l-44-196L126 0H64L0-248h53L97-49l45-199h58l43 199 44-199h52" id="bC"/><g id="F"><use transform="matrix(0.05,0,0,0.05,0,0)" xlink:href="#bC"/><use transform="matrix(0.05,0,0,0.05,16.599999999999998,0)" xlink:href="#bb"/><use transform="matrix(0.05,0,0,0.05,26.599999999999994,0)" xlink:href="#bj"/></g><g id="G"><use transform="matrix(0.05,0,0,0.05,0,0)" xlink:href="#bC"/><use transform="matrix(0.05,0,0,0.05,16.599999999999998,0)" xlink:href="#bb"/><use transform="matrix(0.05,0,0,0.05,26.599999999999994,0)" xlink:href="#bj"/></g><g id="H"><use transform="matrix(0.05,0,0,0.05,0,0)" xlink:href="#aT"/><use transform="matrix(0.05,0,0,0.05,12,0)" xlink:href="#bb"/><use transform="matrix(0.05,0,0,0.05,22,0)" xlink:href="#bc"/><use transform="matrix(0.05,0,0,0.05,29,0)" xlink:href="#bd"/><use transform="matrix(0.05,0,0,0.05,39,0)" xlink:href="#bb"/><use transform="matrix(0.05,0,0,0.05,49,0)" xlink:href="#bc"/></g><path d="M106-169C34-169 62-67 57 0H25v-261h32l-1 103c12-21 28-36 61-36 89 0 53 116 60 194h-32v-121c2-32-8-49-39-48" id="bD"/><path d="M85-194c31 0 48 13 60 33l-1-100h32l1 261h-30c-2-10 0-23-3-31C134-8 116 4 85 4 32 4 16-35 15-94c0-66 23-100 70-100zm9 24c-40 0-46 34-46 75 0 40 6 74 45 74 42 0 51-32 51-76 0-42-9-74-50-73" id="bE"/><path d="M96-169c-40 0-48 33-48 73s9 75 48 75c24 0 41-14 43-38l32 2c-6 37-31 61-74 61-59 0-76-41-82-99-10-93 101-131 147-64 4 7 5 14 7 22l-32 3c-4-21-16-35-41-35" id="bF"/><path d="M135-143c-3-34-86-38-87 0 15 53 115 12 119 90S17 21 10-45l28-5c4 36 97 45 98 0-10-56-113-15-118-90-4-57 82-63 122-42 12 7 21 19 24 35" id="bG"/><g id="I"><use transform="matrix(0.05,0,0,0.05,0,0)" xlink:href="#bD"/><use transform="matrix(0.05,0,0,0.05,10,0)" xlink:href="#aO"/><use transform="matrix(0.05,0,0,0.05,15,0)" xlink:href="#bE"/><use transform="matrix(0.05,0,0,0.05,25,0)" xlink:href="#aK"/><use transform="matrix(0.05,0,0,0.05,35,0)" xlink:href="#bF"/><use transform="matrix(0.05,0,0,0.05,44,0)" xlink:href="#bG"/></g><g id="J"><use transform="matrix(0.05,0,0,0.05,0,0)" xlink:href="#aU"/><use transform="matrix(0.05,0,0,0.05,12.950000000000001,0)" xlink:href="#aY"/><use transform="matrix(0.05,0,0,0.05,23.900000000000002,0)" xlink:href="#aY"/></g><path d="M185-189c-5-48-123-54-124 2 14 75 158 14 163 119 3 78-121 87-175 55-17-10-28-26-33-46l33-7c5 56 141 63 141-1 0-78-155-14-162-118-5-82 145-84 179-34 5 7 8 16 11 25" id="bH"/><path d="M205 0l-28-72H64L36 0H1l101-248h38L239 0h-34zm-38-99l-47-123c-12 45-31 82-46 123h93" id="bI"/><g id="K"><use transform="matrix(0.05,0,0,0.05,0,0)" xlink:href="#bH"/><use transform="matrix(0.05,0,0,0.05,12,0)" xlink:href="#bI"/><use transform="matrix(0.05,0,0,0.05,24,0)" xlink:href="#bH"/></g><g id="L"><use transform="matrix(0.05,0,0,0.05,0,0)" xlink:href="#aF"/><use transform="matrix(0.05,0,0,0.05,10,0)" xlink:href="#aK"/><use transform="matrix(0.05,0,0,0.05,20,0)" xlink:href="#aR"/><use transform="matrix(0.05,0,0,0.05,30,0)" xlink:href="#aK"/><use transform="matrix(0.05,0,0,0.05,40,0)" xlink:href="#aN"/></g><path d="M127-220V0H93v-220H8v-28h204v28h-85" id="bJ"/><path d="M30-248c87 1 191-15 191 75 0 78-77 80-158 76V0H30v-248zm33 125c57 0 124 11 124-50 0-59-68-47-124-48v98" id="bK"/><path d="M0 4l72-265h28L28 4H0" id="bL"/><path d="M153-248C145-148 188 4 80 4 36 3 13-21 6-62l32-5c4 25 16 42 43 43 27 0 39-20 39-49v-147H72v-28h81" id="bM"/><path d="M30 0v-248h187v28H63v79h144v27H63v87h162V0H30" id="bN"/><g id="M"><use transform="matrix(0.05,0,0,0.05,0,0)" xlink:href="#bH"/><use transform="matrix(0.05,0,0,0.05,12,0)" xlink:href="#bJ"/><use transform="matrix(0.05,0,0,0.05,22.950000000000003,0)" xlink:href="#bK"/><use transform="matrix(0.05,0,0,0.05,34.95,0)" xlink:href="#bL"/><use transform="matrix(0.05,0,0,0.05,39.95,0)" xlink:href="#bM"/><use transform="matrix(0.05,0,0,0.05,48.95,0)" xlink:href="#bN"/><use transform="matrix(0.05,0,0,0.05,60.95,0)" xlink:href="#bH"/></g><path d="M84 4C-5 8 30-112 23-190h32v120c0 31 7 50 39 49 72-2 45-101 50-169h31l1 190h-30c-1-10 1-25-2-33-11 22-28 36-60 37" id="bO"/><g id="N"><use transform="matrix(0.05,0,0,0.05,0,0)" xlink:href="#aS"/><use transform="matrix(0.05,0,0,0.05,5.95,0)" xlink:href="#aK"/><use transform="matrix(0.05,0,0,0.05,15.949999999999998,0)" xlink:href="#bO"/><use transform="matrix(0.05,0,0,0.05,25.950000000000003,0)" xlink:href="#aO"/><use transform="matrix(0.05,0,0,0.05,30.950000000000003,0)" xlink:href="#aP"/><use transform="matrix(0.05,0,0,0.05,34.9,0)" xlink:href="#aN"/><use transform="matrix(0.05,0,0,0.05,44.9,0)" xlink:href="#aR"/></g><g id="O"><use transform="matrix(0.05,0,0,0.05,0,0)" xlink:href="#aV"/><use transform="matrix(0.05,0,0,0.05,12.950000000000001,0)" xlink:href="#bp"/><use transform="matrix(0.05,0,0,0.05,17.950000000000003,0)" xlink:href="#bg"/><use transform="matrix(0.05,0,0,0.05,22.950000000000003,0)" xlink:href="#bb"/><use transform="matrix(0.05,0,0,0.05,32.95,0)" xlink:href="#bh"/><use transform="matrix(0.05,0,0,0.05,43.900000000000006,0)" xlink:href="#ba"/></g><g id="P"><use transform="matrix(0.05,0,0,0.05,0,0)" xlink:href="#bi"/><use transform="matrix(0.05,0,0,0.05,12.950000000000001,0)" xlink:href="#bb"/><use transform="matrix(0.05,0,0,0.05,22.950000000000003,0)" xlink:href="#bd"/><use transform="matrix(0.05,0,0,0.05,32.95,0)" xlink:href="#bg"/><use transform="matrix(0.05,0,0,0.05,37.95,0)" xlink:href="#bq"/><use transform="matrix(0.05,0,0,0.05,47.95,0)" xlink:href="#bb"/></g><path d="M182-130c37 4 62 22 62 59C244 23 116-4 24 0v-248c84 5 203-23 205 63 0 31-19 50-47 55zM76-148c40-3 101 13 101-30 0-44-60-28-101-31v61zm0 110c48-3 116 14 116-37 0-48-69-32-116-35v72" id="bP"/><path d="M231 0h-52l-39-155L100 0H48L-1-190h46L77-45c9-52 24-97 36-145h53l37 145 32-145h46" id="bQ"/><g id="Q"><use transform="matrix(0.05,0,0,0.05,0,0)" xlink:href="#bP"/><use transform="matrix(0.05,0,0,0.05,12.950000000000001,0)" xlink:href="#bc"/><use transform="matrix(0.05,0,0,0.05,19.950000000000003,0)" xlink:href="#aW"/><use transform="matrix(0.05,0,0,0.05,30.900000000000006,0)" xlink:href="#bQ"/><use transform="matrix(0.05,0,0,0.05,44.900000000000006,0)" xlink:href="#bk"/><use transform="matrix(0.05,0,0,0.05,54.900000000000006,0)" xlink:href="#bb"/><use transform="matrix(0.05,0,0,0.05,64.9,0)" xlink:href="#bc"/></g><g id="R"><use transform="matrix(0.05,0,0,0.05,0,0)" xlink:href="#bu"/><use transform="matrix(0.05,0,0,0.05,12,0)" xlink:href="#by"/><use transform="matrix(0.05,0,0,0.05,22,0)" xlink:href="#bq"/><use transform="matrix(0.05,0,0,0.05,32,0)" xlink:href="#bb"/><use transform="matrix(0.05,0,0,0.05,42,0)" xlink:href="#bp"/></g><path d="M147 0H94L2-248h55l64 206c17-72 42-137 63-206h54" id="bR"/><g id="S"><use transform="matrix(0.05,0,0,0.05,0,0)" xlink:href="#bR"/><use transform="matrix(0.05,0,0,0.05,12,0)" xlink:href="#bP"/><use transform="matrix(0.05,0,0,0.05,24.950000000000003,0)" xlink:href="#aU"/></g><path d="M238-95c0 69-44 99-111 99C63 4 22-25 22-93v-155h51v151c-1 38 19 59 55 60 90 1 49-130 58-211h52v153" id="bS"/><g id="T"><use transform="matrix(0.05,0,0,0.05,0,0)" xlink:href="#bu"/><use transform="matrix(0.05,0,0,0.05,12,0)" xlink:href="#bS"/><use transform="matrix(0.05,0,0,0.05,24.950000000000003,0)" xlink:href="#aV"/></g><g id="U"><use transform="matrix(0.05,0,0,0.05,0,0)" xlink:href="#bl"/><use transform="matrix(0.05,0,0,0.05,5.95,0)" xlink:href="#aW"/><use transform="matrix(0.05,0,0,0.05,16.900000000000002,0)" xlink:href="#bc"/></g><g id="V"><use transform="matrix(0.05,0,0,0.05,0,0)" xlink:href="#bc"/><use transform="matrix(0.05,0,0,0.05,7,0)" xlink:href="#be"/><use transform="matrix(0.05,0,0,0.05,17,0)" xlink:href="#bQ"/></g><g id="W"><use transform="matrix(0.05,0,0,0.05,0,0)" xlink:href="#aV"/><use transform="matrix(0.05,0,0,0.05,12.950000000000001,0)" xlink:href="#aT"/><use transform="matrix(0.05,0,0,0.05,24.950000000000003,0)" xlink:href="#bR"/></g><g id="X"><use transform="matrix(0.05,0,0,0.05,0,0)" xlink:href="#bz"/><use transform="matrix(0.05,0,0,0.05,5.95,0)" xlink:href="#bg"/><use transform="matrix(0.05,0,0,0.05,10.95,0)" xlink:href="#bp"/><use transform="matrix(0.05,0,0,0.05,15.949999999999998,0)" xlink:href="#bb"/><use transform="matrix(0.05,0,0,0.05,25.950000000000003,0)" xlink:href="#bm"/></g><g id="Y"><use transform="matrix(0.05,0,0,0.05,0,0)" xlink:href="#aD"/><use transform="matrix(0.05,0,0,0.05,12.950000000000001,0)" xlink:href="#aI"/><use transform="matrix(0.05,0,0,0.05,22.950000000000003,0)" xlink:href="#aJ"/><use transform="matrix(0.05,0,0,0.05,26.900000000000002,0)" xlink:href="#aK"/><use transform="matrix(0.05,0,0,0.05,36.900000000000006,0)" xlink:href="#aQ"/><use transform="matrix(0.05,0,0,0.05,46.900000000000006,0)" xlink:href="#bE"/></g><use transform="matrix(0.05,0,0,0.05,0,0)" xlink:href="#bL" id="Z"/><g id="aa"><use transform="matrix(0.05,0,0,0.05,0,0)" xlink:href="#aG"/><use transform="matrix(0.05,0,0,0.05,12.950000000000001,0)" xlink:href="#aS"/><use transform="matrix(0.05,0,0,0.05,18.900000000000002,0)" xlink:href="#aQ"/><use transform="matrix(0.05,0,0,0.05,28.900000000000002,0)" xlink:href="#aR"/></g><path d="M234-2c-28 10-62 0-77-18C117 19 8 12 13-65c3-43 29-61 60-76-25-40-17-114 47-108 35 3 59 15 59 50 0 44-40 53-71 69 14 26 32 50 51 72 14-21 24-43 30-72l26 8c-9 33-21 57-38 82 13 13 33 22 57 15v23zM97-151c25-10 52-18 56-48-1-18-13-29-33-29-42 0-39 50-23 77zM42-66c-3 51 71 58 98 28-20-24-41-51-56-80-23 10-40 24-42 52" id="bT"/><use transform="matrix(0.05,0,0,0.05,0,0)" xlink:href="#bT" id="ab"/><g id="ac"><use transform="matrix(0.05,0,0,0.05,0,0)" xlink:href="#aG"/><use transform="matrix(0.05,0,0,0.05,12.950000000000001,0)" xlink:href="#aS"/><use transform="matrix(0.05,0,0,0.05,18.900000000000002,0)" xlink:href="#aK"/><use transform="matrix(0.05,0,0,0.05,28.900000000000002,0)" xlink:href="#aI"/></g><g id="ad"><use transform="matrix(0.05,0,0,0.05,0,0)" xlink:href="#bD"/><use transform="matrix(0.05,0,0,0.05,10,0)" xlink:href="#aO"/><use transform="matrix(0.05,0,0,0.05,15,0)" xlink:href="#aO"/><use transform="matrix(0.05,0,0,0.05,20,0)" xlink:href="#aI"/></g><path d="M145-31C134-9 116 4 85 4 32 4 16-35 15-94c0-59 17-99 70-100 32-1 48 14 60 33 0-11-1-24 2-32h30l-1 268h-32zM93-21c41 0 51-33 51-76s-8-73-50-73c-40 0-46 35-46 75s5 74 45 74" id="bU"/><g id="ae"><use transform="matrix(0.05,0,0,0.05,0,0)" xlink:href="#aS"/><use transform="matrix(0.05,0,0,0.05,5.95,0)" xlink:href="#aH"/><use transform="matrix(0.05,0,0,0.05,15.949999999999998,0)" xlink:href="#bU"/><use transform="matrix(0.05,0,0,0.05,25.950000000000003,0)" xlink:href="#bO"/><use transform="matrix(0.05,0,0,0.05,35.95,0)" xlink:href="#aH"/><use transform="matrix(0.05,0,0,0.05,45.95,0)" xlink:href="#bG"/><use transform="matrix(0.05,0,0,0.05,54.95,0)" xlink:href="#aO"/><use transform="matrix(0.05,0,0,0.05,59.95,0)" xlink:href="#bG"/></g><use transform="matrix(0.05,0,0,0.05,0,0)" xlink:href="#bL" id="af"/><g id="ag"><use transform="matrix(0.05,0,0,0.05,0,0)" xlink:href="#bE"/><use transform="matrix(0.05,0,0,0.05,10,0)" xlink:href="#aP"/><use transform="matrix(0.05,0,0,0.05,13.949999999999998,0)" xlink:href="#aS"/><use transform="matrix(0.05,0,0,0.05,19.9,0)" xlink:href="#aH"/><use transform="matrix(0.05,0,0,0.05,29.899999999999995,0)" xlink:href="#bF"/><use transform="matrix(0.05,0,0,0.05,38.9,0)" xlink:href="#aO"/></g><path d="M101-234c-31-9-42 10-38 44h38v23H63V0H32v-167H5v-23h27c-7-52 17-82 69-68v24" id="bV"/><g id="ah"><use transform="matrix(0.05,0,0,0.05,0,0)" xlink:href="#bV"/><use transform="matrix(0.05,0,0,0.05,5,0)" xlink:href="#aP"/><use transform="matrix(0.05,0,0,0.05,8.95,0)" xlink:href="#aJ"/><use transform="matrix(0.05,0,0,0.05,12.899999999999999,0)" xlink:href="#aH"/></g><g id="ai"><use transform="matrix(0.05,0,0,0.05,0,0)" xlink:href="#aO"/><use transform="matrix(0.05,0,0,0.05,5,0)" xlink:href="#aS"/><use transform="matrix(0.05,0,0,0.05,10.95,0)" xlink:href="#aQ"/><use transform="matrix(0.05,0,0,0.05,20.95,0)" xlink:href="#aN"/><use transform="matrix(0.05,0,0,0.05,30.950000000000003,0)" xlink:href="#bG"/><use transform="matrix(0.05,0,0,0.05,39.95,0)" xlink:href="#bV"/><use transform="matrix(0.05,0,0,0.05,44.95,0)" xlink:href="#aH"/><use transform="matrix(0.05,0,0,0.05,54.95,0)" xlink:href="#aS"/></g><g id="aj"><use transform="matrix(0.05,0,0,0.05,0,0)" xlink:href="#bI"/><use transform="matrix(0.05,0,0,0.05,12,0)" xlink:href="#bO"/><use transform="matrix(0.05,0,0,0.05,22,0)" xlink:href="#aO"/><use transform="matrix(0.05,0,0,0.05,27,0)" xlink:href="#bD"/><use transform="matrix(0.05,0,0,0.05,37,0)" xlink:href="#aH"/><use transform="matrix(0.05,0,0,0.05,47,0)" xlink:href="#aN"/><use transform="matrix(0.05,0,0,0.05,57,0)" xlink:href="#aO"/><use transform="matrix(0.05,0,0,0.05,62,0)" xlink:href="#aP"/><use transform="matrix(0.05,0,0,0.05,65.95,0)" xlink:href="#bF"/><use transform="matrix(0.05,0,0,0.05,74.95,0)" xlink:href="#aQ"/><use transform="matrix(0.05,0,0,0.05,84.95,0)" xlink:href="#aO"/><use transform="matrix(0.05,0,0,0.05,89.95,0)" xlink:href="#aP"/><use transform="matrix(0.05,0,0,0.05,93.9,0)" xlink:href="#aK"/><use transform="matrix(0.05,0,0,0.05,103.9,0)" xlink:href="#aN"/></g><use transform="matrix(0.05,0,0,0.05,0,0)" xlink:href="#bL" id="ak"/><g id="al"><use transform="matrix(0.05,0,0,0.05,0,0)" xlink:href="#bI"/><use transform="matrix(0.05,0,0,0.05,12,0)" xlink:href="#bO"/><use transform="matrix(0.05,0,0,0.05,22,0)" xlink:href="#aO"/><use transform="matrix(0.05,0,0,0.05,27,0)" xlink:href="#bD"/><use transform="matrix(0.05,0,0,0.05,37,0)" xlink:href="#aK"/><use transform="matrix(0.05,0,0,0.05,47,0)" xlink:href="#aS"/><use transform="matrix(0.05,0,0,0.05,52.95,0)" xlink:href="#aP"/><use transform="matrix(0.05,0,0,0.05,56.900000000000006,0)" xlink:href="#bG"/><use transform="matrix(0.05,0,0,0.05,65.9,0)" xlink:href="#aQ"/><use transform="matrix(0.05,0,0,0.05,75.9,0)" xlink:href="#aO"/><use transform="matrix(0.05,0,0,0.05,80.9,0)" xlink:href="#aP"/><use transform="matrix(0.05,0,0,0.05,84.85000000000001,0)" xlink:href="#aK"/><use transform="matrix(0.05,0,0,0.05,94.85000000000001,0)" xlink:href="#aN"/></g><path d="M233-177c-1 41-23 64-60 70L243 0h-38l-65-103H63V0H30v-248c88 3 205-21 203 71zM63-129c60-2 137 13 137-47 0-61-80-42-137-45v92" id="bW"/><g id="am"><use transform="matrix(0.05,0,0,0.05,0,0)" xlink:href="#bW"/><use transform="matrix(0.05,0,0,0.05,12.950000000000001,0)" xlink:href="#aH"/><use transform="matrix(0.05,0,0,0.05,22.950000000000003,0)" xlink:href="#bU"/><use transform="matrix(0.05,0,0,0.05,32.95,0)" xlink:href="#bO"/><use transform="matrix(0.05,0,0,0.05,42.95,0)" xlink:href="#aH"/><use transform="matrix(0.05,0,0,0.05,52.95,0)" xlink:href="#bG"/><use transform="matrix(0.05,0,0,0.05,61.95,0)" xlink:href="#aO"/></g><g id="an"><use transform="matrix(0.05,0,0,0.05,0,0)" xlink:href="#bK"/><use transform="matrix(0.05,0,0,0.05,12,0)" xlink:href="#aS"/><use transform="matrix(0.05,0,0,0.05,17.95,0)" xlink:href="#aK"/><use transform="matrix(0.05,0,0,0.05,27.950000000000003,0)" xlink:href="#bF"/><use transform="matrix(0.05,0,0,0.05,36.95,0)" xlink:href="#aH"/><use transform="matrix(0.05,0,0,0.05,46.95,0)" xlink:href="#bG"/><use transform="matrix(0.05,0,0,0.05,55.95,0)" xlink:href="#bG"/><use transform="matrix(0.05,0,0,0.05,64.95,0)" xlink:href="#aP"/><use transform="matrix(0.05,0,0,0.05,68.9,0)" xlink:href="#aN"/><use transform="matrix(0.05,0,0,0.05,78.9,0)" xlink:href="#aR"/></g><path d="M115-194c53 0 69 39 70 98 0 66-23 100-70 100C84 3 66-7 56-30L54 0H23l1-261h32v101c10-23 28-34 59-34zm-8 174c40 0 45-34 45-75 0-40-5-75-45-74-42 0-51 32-51 76 0 43 10 73 51 73" id="bX"/><g id="ao"><use transform="matrix(0.05,0,0,0.05,0,0)" xlink:href="#aG"/><use transform="matrix(0.05,0,0,0.05,12.950000000000001,0)" xlink:href="#aQ"/><use transform="matrix(0.05,0,0,0.05,22.950000000000003,0)" xlink:href="#aO"/><use transform="matrix(0.05,0,0,0.05,27.950000000000003,0)" xlink:href="#aQ"/><use transform="matrix(0.05,0,0,0.05,37.95,0)" xlink:href="#bX"/><use transform="matrix(0.05,0,0,0.05,47.95,0)" xlink:href="#aQ"/><use transform="matrix(0.05,0,0,0.05,57.95,0)" xlink:href="#bG"/><use transform="matrix(0.05,0,0,0.05,66.95,0)" xlink:href="#aH"/></g><g id="ap"><use transform="matrix(0.05,0,0,0.05,0,0)" xlink:href="#aK"/><use transform="matrix(0.05,0,0,0.05,10,0)" xlink:href="#aI"/><use transform="matrix(0.05,0,0,0.05,20,0)" xlink:href="#aH"/><use transform="matrix(0.05,0,0,0.05,30,0)" xlink:href="#aS"/><use transform="matrix(0.05,0,0,0.05,35.95,0)" xlink:href="#aQ"/><use transform="matrix(0.05,0,0,0.05,45.95,0)" xlink:href="#aO"/><use transform="matrix(0.05,0,0,0.05,50.95,0)" xlink:href="#aP"/><use transform="matrix(0.05,0,0,0.05,54.900000000000006,0)" xlink:href="#aK"/><use transform="matrix(0.05,0,0,0.05,64.9,0)" xlink:href="#aN"/><use transform="matrix(0.05,0,0,0.05,74.9,0)" xlink:href="#bG"/></g><g id="aq"><use transform="matrix(0.05,0,0,0.05,0,0)" xlink:href="#aE"/><use transform="matrix(0.05,0,0,0.05,14.950000000000001,0)" xlink:href="#aH"/><use transform="matrix(0.05,0,0,0.05,24.950000000000003,0)" xlink:href="#aO"/><use transform="matrix(0.05,0,0,0.05,29.950000000000003,0)" xlink:href="#aQ"/><use transform="matrix(0.05,0,0,0.05,39.95,0)" xlink:href="#bE"/><use transform="matrix(0.05,0,0,0.05,49.95,0)" xlink:href="#aQ"/><use transform="matrix(0.05,0,0,0.05,59.95,0)" xlink:href="#aO"/><use transform="matrix(0.05,0,0,0.05,64.95,0)" xlink:href="#aQ"/></g><path d="M33 0v-248h34V0H33" id="bY"/><g id="ar"><use transform="matrix(0.05,0,0,0.05,0,0)" xlink:href="#bI"/><use transform="matrix(0.05,0,0,0.05,12,0)" xlink:href="#bK"/><use transform="matrix(0.05,0,0,0.05,24,0)" xlink:href="#bY"/></g><g id="as"><use transform="matrix(0.05,0,0,0.05,0,0)" xlink:href="#aS"/><use transform="matrix(0.05,0,0,0.05,5.95,0)" xlink:href="#aH"/><use transform="matrix(0.05,0,0,0.05,15.949999999999998,0)" xlink:href="#bU"/><use transform="matrix(0.05,0,0,0.05,25.950000000000003,0)" xlink:href="#bO"/><use transform="matrix(0.05,0,0,0.05,35.95,0)" xlink:href="#aH"/><use transform="matrix(0.05,0,0,0.05,45.95,0)" xlink:href="#bG"/><use transform="matrix(0.05,0,0,0.05,54.95,0)" xlink:href="#aO"/><use transform="matrix(0.05,0,0,0.05,59.95,0)" xlink:href="#bG"/></g><g id="at"><use transform="matrix(0.05,0,0,0.05,0,0)" xlink:href="#aE"/><use transform="matrix(0.05,0,0,0.05,14.950000000000001,0)" xlink:href="#aK"/><use transform="matrix(0.05,0,0,0.05,24.950000000000003,0)" xlink:href="#bE"/><use transform="matrix(0.05,0,0,0.05,34.95,0)" xlink:href="#aP"/><use transform="matrix(0.05,0,0,0.05,38.900000000000006,0)" xlink:href="#bV"/><use transform="matrix(0.05,0,0,0.05,43.900000000000006,0)" xlink:href="#aP"/><use transform="matrix(0.05,0,0,0.05,47.85000000000001,0)" xlink:href="#aH"/><use transform="matrix(0.05,0,0,0.05,57.85,0)" xlink:href="#bE"/></g><path d="M212-179c-10-28-35-45-73-45-59 0-87 40-87 99 0 60 29 101 89 101 43 0 62-24 78-52l27 14C228-24 195 4 139 4 59 4 22-46 18-125c-6-104 99-153 187-111 19 9 31 26 39 46" id="bZ"/><g id="au"><use transform="matrix(0.05,0,0,0.05,0,0)" xlink:href="#bZ"/><use transform="matrix(0.05,0,0,0.05,12.950000000000001,0)" xlink:href="#aK"/><use transform="matrix(0.05,0,0,0.05,22.950000000000003,0)" xlink:href="#aM"/><use transform="matrix(0.05,0,0,0.05,37.900000000000006,0)" xlink:href="#aI"/><use transform="matrix(0.05,0,0,0.05,47.900000000000006,0)" xlink:href="#aK"/><use transform="matrix(0.05,0,0,0.05,57.900000000000006,0)" xlink:href="#aN"/><use transform="matrix(0.05,0,0,0.05,67.9,0)" xlink:href="#aH"/><use transform="matrix(0.05,0,0,0.05,77.9,0)" xlink:href="#aN"/><use transform="matrix(0.05,0,0,0.05,87.9,0)" xlink:href="#aO"/><use transform="matrix(0.05,0,0,0.05,92.9,0)" xlink:href="#bG"/></g><g id="av"><use transform="matrix(0.05,0,0,0.05,0,0)" xlink:href="#aD"/><use transform="matrix(0.05,0,0,0.05,12.950000000000001,0)" xlink:href="#aN"/><use transform="matrix(0.05,0,0,0.05,22.950000000000003,0)" xlink:href="#aM"/><use transform="matrix(0.05,0,0,0.05,37.900000000000006,0)" xlink:href="#aK"/><use transform="matrix(0.05,0,0,0.05,47.900000000000006,0)" xlink:href="#bE"/><use transform="matrix(0.05,0,0,0.05,57.900000000000006,0)" xlink:href="#aP"/><use transform="matrix(0.05,0,0,0.05,61.85,0)" xlink:href="#bV"/><use transform="matrix(0.05,0,0,0.05,66.85000000000001,0)" xlink:href="#aP"/><use transform="matrix(0.05,0,0,0.05,70.80000000000001,0)" xlink:href="#aH"/><use transform="matrix(0.05,0,0,0.05,80.80000000000001,0)" xlink:href="#bE"/></g><g id="aw"><use transform="matrix(0.05,0,0,0.05,0,0)" xlink:href="#aG"/><use transform="matrix(0.05,0,0,0.05,12.950000000000001,0)" xlink:href="#aQ"/><use transform="matrix(0.05,0,0,0.05,22.950000000000003,0)" xlink:href="#aO"/><use transform="matrix(0.05,0,0,0.05,27.950000000000003,0)" xlink:href="#aQ"/></g><g id="ax"><use transform="matrix(0.05,0,0,0.05,0,0)" xlink:href="#aQ"/><use transform="matrix(0.05,0,0,0.05,10,0)" xlink:href="#bG"/></g><path d="M137 0h-34L2-248h35l83 218 83-218h36" id="ca"/><g id="ay"><use transform="matrix(0.05,0,0,0.05,0,0)" xlink:href="#bZ"/><use transform="matrix(0.05,0,0,0.05,12.950000000000001,0)" xlink:href="#bH"/><use transform="matrix(0.05,0,0,0.05,24.950000000000003,0)" xlink:href="#ca"/></g><g id="az"><use transform="matrix(0.05,0,0,0.05,0,0)" xlink:href="#bZ"/><use transform="matrix(0.05,0,0,0.05,12.950000000000001,0)" xlink:href="#aK"/><use transform="matrix(0.05,0,0,0.05,22.950000000000003,0)" xlink:href="#aI"/><use transform="matrix(0.05,0,0,0.05,32.95,0)" xlink:href="#aL"/></g><g id="aA"><use transform="matrix(0.05,0,0,0.05,0,0)" xlink:href="#aK"/><use transform="matrix(0.05,0,0,0.05,10,0)" xlink:href="#bV"/></g><g id="aB"><use transform="matrix(0.05,0,0,0.05,0,0)" xlink:href="#bN"/><use transform="matrix(0.05,0,0,0.05,12,0)" xlink:href="#aD"/><use transform="matrix(0.05,0,0,0.05,24.950000000000003,0)" xlink:href="#bZ"/></g><g id="aC"><use transform="matrix(0.05,0,0,0.05,0,0)" xlink:href="#aF"/><use transform="matrix(0.05,0,0,0.05,10,0)" xlink:href="#aK"/><use transform="matrix(0.05,0,0,0.05,20,0)" xlink:href="#aR"/><use transform="matrix(0.05,0,0,0.05,30,0)" xlink:href="#bG"/></g></defs></g></svg>