<svg xmlns="http://www.w3.org/2000/svg" xmlns:xlink="http://www.w3.org/1999/xlink" xmlns:lucid="lucid" width="1278.32" height="1037.22"><g transform="translate(-11.481170898361768 -8.814504231695011)" lucid:page-tab-id="0_0"><path d="M0 0h1360v1121.26H0z" fill="#fff"/><path d="M31.48 35.8c0-2.75 2.24-5 5-5h838c2.76 0 5 2.25 5 5v38c0 2.78-2.24 5-5 5h-838c-2.76 0-5-2.22-5-5z" fill="none"/><use xlink:href="#a" transform="matrix(1,0,0,1,31.481170898361768,30.81450423169501) translate(2.01 28.444444444444446)"/><use xlink:href="#b" transform="matrix(1,0,0,1,31.481170898361768,30.81450423169501) translate(103.63962962962965 28.444444444444446)"/><use xlink:href="#c" transform="matrix(1,0,0,1,31.481170898361768,30.81450423169501) translate(359.73839506172845 28.444444444444446)"/><use xlink:href="#d" transform="matrix(1,0,0,1,31.481170898361768,30.81450423169501) translate(381.3680246913581 28.444444444444446)"/><use xlink:href="#e" transform="matrix(1,0,0,1,31.481170898361768,30.81450423169501) translate(464.2322222222223 28.444444444444446)"/><use xlink:href="#f" transform="matrix(1,0,0,1,31.481170898361768,30.81450423169501) translate(572.6766666666667 28.444444444444446)"/><path d="M30.8 78.8h1248" stroke="#999" stroke-width="2" fill="none"/><path d="M743.8 302.8c0 23.64-27.7 42.8-61.9 42.8S620 326.44 620 302.8c0-23.64 27.7-42.8 61.9-42.8s61.9 19.16 61.9 42.8z" stroke="#666" stroke-width="2" fill="#fff"/><use xlink:href="#g" transform="matrix(1,0,0,1,620,260) translate(33.58 35.9)"/><use xlink:href="#h" transform="matrix(1,0,0,1,620,260) translate(42.55499999999999 57.5)"/><path d="M842.95 513.28c0 40.47-49.9 73.28-111.48 73.28-61.56 0-111.47-32.8-111.47-73.28C620 472.8 669.9 440 731.47 440s111.48 32.8 111.48 73.28z" stroke="#666" stroke-width="2" fill="#c7e8ac"/><use xlink:href="#i" transform="matrix(1,0,0,1,620,440) translate(65.905 78.7125)"/><use xlink:href="#j" transform="matrix(1,0,0,1,620,440) translate(111.55499999999999 78.7125)"/><path d="M640 939.07c0 48.03-49.9 86.96-111.47 86.96s-111.48-38.93-111.48-86.96c0-48.03 49.9-86.96 111.48-86.96 61.56 0 111.47 38.94 111.47 86.97z" stroke="#666" stroke-width="2" fill="#c7e8ac"/><use xlink:href="#k" transform="matrix(1,0,0,1,417.0537010159653,852.1085949681336) translate(69.28 90.525)"/><use xlink:href="#j" transform="matrix(1,0,0,1,417.0537010159653,852.1085949681336) translate(108.18 90.525)"/><path d="M683.8 709.33c0 35.22-36.66 63.77-81.9 63.77-45.23 0-81.9-28.55-81.9-63.77 0-35.2 36.67-63.76 81.9-63.76 45.24 0 81.9 28.55 81.9 63.76z" stroke="#666" stroke-width="2" fill="#fff"/><use xlink:href="#l" transform="matrix(1,0,0,1,520,645.5690239505752) translate(34.779999999999994 66.4)"/><use xlink:href="#j" transform="matrix(1,0,0,1,520,645.5690239505752) translate(83.68 66.4)"/><path d="M949.5 966.96c0 32.62-34.93 59.07-78.03 59.07s-78.03-26.45-78.03-59.07c0-32.62 34.94-59.07 78.03-59.07 43.1 0 78.03 26.44 78.03 59.06z" stroke="#666" stroke-width="2" fill="#fff"/><use xlink:href="#m" transform="matrix(1,0,0,1,793.4419448476051,907.8914050318665) translate(18.154999999999994 62.74375)"/><use xlink:href="#n" transform="matrix(1,0,0,1,793.4419448476051,907.8914050318665) translate(72.05499999999999 62.74375)"/><path d="M962.95 726.1c0 47-49.9 85.13-111.48 85.13C789.9 811.23 740 773.1 740 726.1c0-47.03 49.9-85.14 111.47-85.14s111.48 38.1 111.48 85.13z" stroke="#666" stroke-width="2" fill="#c7e8ac"/><use xlink:href="#o" transform="matrix(1,0,0,1,740,640.9568326712458) translate(39.70499999999999 89.2125)"/><use xlink:href="#n" transform="matrix(1,0,0,1,740,640.9568326712458) translate(117.50500000000001 89.2125)"/><path d="M188.66 571.02L619 513.28" stroke="#999" stroke-width="2" fill="none"/><path d="M188.8 572l-.14.03v-1zM620 513.32l.02.83-.9.12-.25-1.98 1.16-.17z" fill="#999"/><path d="M188.66 857l227.4 82.07" stroke="#999" stroke-width="2" fill="none"/><path d="M189 856.05l-.34.94v-1.08zM417.07 938.37l-.02.76.04 1.37-1.38-.5.67-1.87z" fill="#999"/><path d="M962.95 233.28c0 40.47-45.43 73.28-101.48 73.28-56.04 0-101.47-32.8-101.47-73.28C760 192.8 805.43 160 861.47 160c56.05 0 101.48 32.8 101.48 73.28z" stroke="#666" stroke-width="2" fill="#c7e8ac"/><use xlink:href="#i" transform="matrix(1,0,0,1,760,160) translate(22.354999999999997 78.7125)"/><use xlink:href="#p" transform="matrix(1,0,0,1,760,160) translate(68.005 78.7125)"/><use xlink:href="#q" transform="matrix(1,0,0,1,760,160) translate(118.805 78.7125)"/><path d="M1169.62 285.05l-205.67-51.77" stroke="#999" stroke-width="2" fill="none"/><path d="M1169.62 286.1l-.24-.08.24-.97zM964.2 232.3l-.5 1.95-.77-.2.02-.77-.03-1.3z" fill="#999"/><path d="M166.37 483.85c0 12.32-10 22.3-22.3 22.3s-22.3-9.98-22.3-22.3c0-12.3 10-22.3 22.3-22.3s22.3 10 22.3 22.3z" stroke="#666" stroke-width="2" fill="#fff"/><path d="M99.48 466.56c0-2.76 2.24-5 5-5h79.18c2.76 0 5 2.24 5 5v186.92c0 2.76-2.24 5-5 5h-79.18c-2.76 0-5-2.24-5-5z" fill="none"/><path d="M144.07 506.15v68.56c0 2.77 1.1 6.96 2.46 9.36l42.13 74.42m-44.6-78.77L99.5 658.5m0-130.04h89.18" stroke="#666" stroke-width="2" fill="none"/><use xlink:href="#r" transform="matrix(1,0,0,1,19.48117089836174,658.4817934548803) translate(96.175 14.6)"/><path d="M166.37 769.82c0 12.3-10 22.3-22.3 22.3s-22.3-10-22.3-22.3 10-22.3 22.3-22.3 22.3 10 22.3 22.3z" stroke="#666" stroke-width="2" fill="#fff"/><path d="M99.48 752.53c0-2.76 2.24-5 5-5h79.18c2.76 0 5 2.24 5 5v186.92c0 2.76-2.24 5-5 5h-79.18c-2.76 0-5-2.24-5-5z" fill="none"/><path d="M144.07 792.12v68.56c0 2.76 1.1 6.95 2.46 9.35l42.13 74.42m-44.6-78.77L99.5 944.45m0-130.04h89.18" stroke="#666" stroke-width="2" fill="none"/><use xlink:href="#s" transform="matrix(1,0,0,1,19.48117089836174,944.4486279780829) translate(99.07499999999999 14.6)"/><path d="M1236.5 197.9c0 12.3-9.97 22.28-22.3 22.28-12.3 0-22.28-9.98-22.28-22.3 0-12.3 9.98-22.3 22.3-22.3 12.3 0 22.3 10 22.3 22.3z" stroke="#666" stroke-width="2" fill="#fff"/><path d="M1169.62 180.6c0-2.77 2.24-5 5-5h79.18c2.76 0 5 2.23 5 5v186.9c0 2.78-2.24 5-5 5h-79.18c-2.76 0-5-2.22-5-5z" fill="none"/><path d="M1214.2 220.18v68.57c0 2.76 1.12 6.94 2.48 9.35l42.12 74.4m-44.6-78.75l-44.58 78.76m0-130.02h89.18" stroke="#666" stroke-width="2" fill="none"/><use xlink:href="#t" transform="matrix(1,0,0,1,1089.623406021729,372.51495893167794) translate(93.125 14.6)"/><path d="M1236.5 769.82c0 12.3-9.97 22.3-22.3 22.3-12.3 0-22.28-10-22.28-22.3s9.98-22.3 22.3-22.3c12.3 0 22.3 10 22.3 22.3z" stroke="#666" stroke-width="2" fill="#fff"/><path d="M1169.62 752.53c0-2.76 2.24-5 5-5h79.18c2.76 0 5 2.24 5 5v186.92c0 2.76-2.24 5-5 5h-79.18c-2.76 0-5-2.24-5-5z" fill="none"/><path d="M1214.2 792.12v68.56c0 2.76 1.12 6.95 2.48 9.35l42.12 74.42m-44.6-78.77l-44.58 78.77m0-130.04h89.18" stroke="#666" stroke-width="2" fill="none"/><use xlink:href="#u" transform="matrix(1,0,0,1,1089.623406021729,944.4486279780829) translate(85.1 14.6)"/><path d="M623.35 646.58h-2v-8.17h2zm0-16.34h-2v-2.37h2zm109.12-18.1l-.3 1.9-2.13 2.92-3.4 1.1h-11.18v-2h10.85l2.5-.8 1.47-2 .2-1.27v-7.45h2zm-28.02 5.93h-.17v-2h.17zm28.02-21.03h-2v-7.52h2z" fill="#999"/><path d="M623.35 647.82l-2-.43v-.82h2zM742.5 606.23l-1.7 1-9.33-15.74-9.32 15.74-1.72-1 11.04-18.68z" fill="#999"/><use xlink:href="#v" transform="matrix(1,0,0,1,604.4282953857578,606.2700261081359) translate(0.005000000000002558 14.4)"/><path d="M529.53 849.14h-2v-10.5h2zm0-21.02h-2v-4.72h2zm73.37-26.32h-2v-5.37h2zm0-16.54h-2V774.1h2zM601.9 773.1l1-.03v1.03h-2v-1.03z" fill="#999"/><path d="M539.57 832.44l-11.04 18.67-11.04-18.66 1.7-1.02 9.33 15.76 9.32-15.76z" fill="#999"/><use xlink:href="#v" transform="matrix(1,0,0,1,515.2896129357871,801.8022572728495) translate(0.005000000000002558 14.4)"/><path d="M652.12 566.43L189.2 857.83l-1.07-1.7 462.92-291.4z" fill="#999"/><path d="M652.5 565l.95.6-1.33.83-1.07-1.7.56-.35zM706.7 961.8l.8 2.5 2 1.46 1.27.2h8.8v2h-8.96l-1.9-.3-2.9-2.13-1.1-3.4v-11.25h2zm39.45 6.16h-17.73v-2h17.73zm26.6 0h-17.73v-2h17.73zm17.73 0h-8.87v-2h8.88zm-83.8-28.16h-2v-12h2zm-2.42-49.2l2.12 2.9.3 1.9v10.8h-2v-10.64l-.2-1.27-1.45-2-2.5-.82h-8.55v-2h8.87zm-73.27.88h-8.72v-2h8.7zm26.13 0H639.7v-2h17.43zm26.14 0h-17.43v-2h17.43z" fill="#999"/><path d="M622.28 891.48h-.47l-1.12-1.36-.6-.64h2.2zM792.44 966.96L773.77 978l-1.02-1.72 15.76-9.32-15.75-9.32 1.02-1.72z" fill="#999"/><use xlink:href="#w" transform="matrix(1,0,0,1,653.2654325738727,906.2) translate(0.005000000000002558 14.4)"/><path d="M1169.62 857L963.95 726.1" stroke="#999" stroke-width="2" fill="none"/><path d="M1169.62 858.17l-.53-.34.52-.84zM964.48 725.25l-1.07 1.7-.47-.32.02-.54v-.07l-.05-1.8z" fill="#999"/><path d="M1170.3 856.26l-1.36 1.46L833.9 543.75l1.36-1.46z" fill="#999"/><path d="M1169.62 858.36l-.68-.64.68-.73zM835.26 542.3l-1.36 1.45-.63-.6.52-.75.58-.93zM861.67 905.5h-2v-13.68h2zm0-27.37h-2v-10.48h2zm-9.2-32.08h-2v-5.14h2zm0-19.48h-2v-14.34h2z" fill="#999"/><path d="M851.47 811.23h.14l.87-.02v1.03h-2v-1.02zM871.72 888.8l-11.05 18.67-11.04-18.67 1.72-1.02 9.32 15.76 9.33-15.76z" fill="#999"/><use xlink:href="#w" transform="matrix(1,0,0,1,799.0481494920173,846.048193106663) translate(0.005000000000002558 14.4)"/><path d="M1169.62 285.05L843.95 513.28" stroke="#999" stroke-width="2" fill="none"/><path d="M844.52 514.1l-1.62 1.13.05-1.95v-.51l.42-.3z" fill="#999"/><path d="M166.37 197.9c0 12.3-10 22.28-22.3 22.28s-22.3-9.98-22.3-22.3c0-12.3 10-22.3 22.3-22.3s22.3 10 22.3 22.3z" stroke="#666" stroke-width="2" fill="#fff"/><path d="M99.48 180.6c0-2.77 2.24-5 5-5h79.18c2.76 0 5 2.23 5 5v186.9c0 2.78-2.24 5-5 5h-79.18c-2.76 0-5-2.22-5-5z" fill="none"/><path d="M144.07 220.18v68.57c0 2.76 1.1 6.94 2.46 9.35l42.13 74.4m-44.6-78.75L99.5 372.5m0-130.02h89.18" stroke="#666" stroke-width="2" fill="none"/><use xlink:href="#x" transform="matrix(1,0,0,1,19.48117089836174,372.51495893167794) translate(66.14999999999999 14.6)"/><path d="M681.9 346.6v41.2c0 2.76 2.24 5 5 5h39.57c2.76 0 5 2.24 5 5v39.24" fill="none"/><path d="M681.9 346.6v13.73m0 13.74v13.73l.97 2.95 2.45 1.8 1.58.25h13.2m13.18 0h13.2l2.95.96 1.8 2.46.24 1.58v13.08m0 13.08v13.08" stroke="#999" stroke-width="2" fill="none"/><path d="M681.9 345.6l1-.02v1.02h-2v-1.04zM742.5 420.33L731.48 439l-11.04-18.67 1.72-1.02 9.32 15.77 9.32-15.76z" fill="#999"/><g><use xlink:href="#v" transform="matrix(1,0,0,1,689.9023753635913,364.2) translate(0.005000000000002558 14.4)"/></g><path d="M620 233.28c0 40.47-45.43 73.28-101.47 73.28-56.05 0-101.48-32.8-101.48-73.28 0-40.47 45.43-73.28 101.48-73.28C574.57 160 620 192.8 620 233.28z" stroke="#666" stroke-width="2" fill="#c7e8ac"/><g><use xlink:href="#y" transform="matrix(1,0,0,1,417.0537010159653,160) translate(33.87999999999999 78.7125)"/><use xlink:href="#j" transform="matrix(1,0,0,1,417.0537010159653,160) translate(123.58 78.7125)"/></g><path d="M188.66 285.05l232.62-28.3" stroke="#999" stroke-width="2" fill="none"/><path d="M188.78 286.05h-.12v-1zM422.37 256.74l.42.85-1.4.15-.24-1.98.74-.1z" fill="#999"/><path d="M188.66 285.05l440.27 197.67" stroke="#999" stroke-width="2" fill="none"/><path d="M189.07 284.14l-.4.9v-1.08zM630.43 482.3l-1.15 1.67-.76-.34.82-1.82z" fill="#999"/><defs><path fill="#999" d="M24-248c120-7 223 5 221 122C244-46 201 0 124 0H24v-248zM76-40c74 7 117-18 117-86 0-67-45-88-117-82v168" id="z"/><path fill="#999" d="M199 0l-22-63H83L61 0H9l90-248h61L250 0h-51zm-33-102l-36-108c-10 38-24 72-36 108h72" id="A"/><path fill="#999" d="M136-208V0H84v-208H4v-40h212v40h-80" id="B"/><g id="a"><use transform="matrix(0.09876543209876544,0,0,0.09876543209876544,0,0)" xlink:href="#z"/><use transform="matrix(0.09876543209876544,0,0,0.09876543209876544,25.58024691358025,0)" xlink:href="#A"/><use transform="matrix(0.09876543209876544,0,0,0.09876543209876544,48.49382716049384,0)" xlink:href="#B"/><use transform="matrix(0.09876543209876544,0,0,0.09876543209876544,67.4567901234568,0)" xlink:href="#A"/></g><path fill="#999" d="M67-125c0 53 21 87 73 88 37 1 54-22 65-47l45 17C233-25 199 4 140 4 58 4 20-42 15-125 8-235 124-281 211-232c18 10 29 29 36 50l-46 12c-8-25-30-41-62-41-52 0-71 34-72 86" id="C"/><path fill="#999" d="M140-251c80 0 125 45 125 126S219 4 139 4C58 4 15-44 15-125s44-126 125-126zm-1 214c52 0 73-35 73-88 0-50-21-86-72-86-52 0-73 35-73 86s22 88 72 88" id="D"/><path fill="#999" d="M175 0L67-191c6 58 2 128 3 191H24v-248h59L193-55c-6-58-2-129-3-193h46V0h-61" id="E"/><path fill="#999" d="M240-174c0 40-23 61-54 70L253 0h-59l-57-94H76V0H24v-248c93 4 217-23 216 74zM76-134c48-2 112 12 112-38 0-48-66-32-112-35v73" id="F"/><path fill="#999" d="M24 0v-248h52v208h133V0H24" id="G"/><path fill="#999" d="M24 0v-248h195v40H76v63h132v40H76v65h150V0H24" id="H"/><g id="b"><use transform="matrix(0.09876543209876544,0,0,0.09876543209876544,0,0)" xlink:href="#C"/><use transform="matrix(0.09876543209876544,0,0,0.09876543209876544,25.58024691358025,0)" xlink:href="#D"/><use transform="matrix(0.09876543209876544,0,0,0.09876543209876544,53.23456790123457,0)" xlink:href="#E"/><use transform="matrix(0.09876543209876544,0,0,0.09876543209876544,78.81481481481482,0)" xlink:href="#B"/><use transform="matrix(0.09876543209876544,0,0,0.09876543209876544,100.44444444444446,0)" xlink:href="#F"/><use transform="matrix(0.09876543209876544,0,0,0.09876543209876544,126.0246913580247,0)" xlink:href="#D"/><use transform="matrix(0.09876543209876544,0,0,0.09876543209876544,153.67901234567904,0)" xlink:href="#G"/><use transform="matrix(0.09876543209876544,0,0,0.09876543209876544,175.30864197530866,0)" xlink:href="#G"/><use transform="matrix(0.09876543209876544,0,0,0.09876543209876544,196.93827160493828,0)" xlink:href="#H"/><use transform="matrix(0.09876543209876544,0,0,0.09876543209876544,220.641975308642,0)" xlink:href="#F"/></g><path fill="#999" d="M14-72v-43h91v43H14" id="I"/><use transform="matrix(0.09876543209876544,0,0,0.09876543209876544,0,0)" xlink:href="#I" id="c"/><path fill="#999" d="M238-95c0 69-44 99-111 99C63 4 22-25 22-93v-155h51v151c-1 38 19 59 55 60 90 1 49-130 58-211h52v153" id="J"/><path fill="#999" d="M169-182c-1-43-94-46-97-3 18 66 151 10 154 114 3 95-165 93-204 36-6-8-10-19-12-30l50-8c3 46 112 56 116 5-17-69-150-10-154-114-4-87 153-88 188-35 5 8 8 18 10 28" id="K"/><g id="d"><use transform="matrix(0.09876543209876544,0,0,0.09876543209876544,0,0)" xlink:href="#J"/><use transform="matrix(0.09876543209876544,0,0,0.09876543209876544,25.58024691358025,0)" xlink:href="#K"/><use transform="matrix(0.09876543209876544,0,0,0.09876543209876544,49.283950617283956,0)" xlink:href="#H"/></g><g id="e"><use transform="matrix(0.09876543209876544,0,0,0.09876543209876544,0,0)" xlink:href="#C"/><use transform="matrix(0.09876543209876544,0,0,0.09876543209876544,25.58024691358025,0)" xlink:href="#A"/><use transform="matrix(0.09876543209876544,0,0,0.09876543209876544,51.1604938271605,0)" xlink:href="#K"/><use transform="matrix(0.09876543209876544,0,0,0.09876543209876544,74.8641975308642,0)" xlink:href="#H"/></g><path fill="#999" d="M24 0v-248h52V0H24" id="L"/><path fill="#999" d="M67-125c0 54 23 88 75 88 28 0 53-7 68-21v-34h-60v-39h108v91C232-14 192 4 140 4 58 4 20-42 15-125 8-236 126-280 215-234c19 10 29 26 37 47l-47 15c-11-23-29-39-63-39-53 1-75 33-75 86" id="M"/><path fill="#999" d="M230 0l2-204L168 0h-37L68-204 70 0H24v-248h70l56 185 57-185h69V0h-46" id="N"/><g id="f"><use transform="matrix(0.09876543209876544,0,0,0.09876543209876544,0,0)" xlink:href="#z"/><use transform="matrix(0.09876543209876544,0,0,0.09876543209876544,25.58024691358025,0)" xlink:href="#L"/><use transform="matrix(0.09876543209876544,0,0,0.09876543209876544,35.4567901234568,0)" xlink:href="#A"/><use transform="matrix(0.09876543209876544,0,0,0.09876543209876544,61.03703703703705,0)" xlink:href="#M"/><use transform="matrix(0.09876543209876544,0,0,0.09876543209876544,88.69135802469137,0)" xlink:href="#F"/><use transform="matrix(0.09876543209876544,0,0,0.09876543209876544,114.27160493827161,0)" xlink:href="#A"/><use transform="matrix(0.09876543209876544,0,0,0.09876543209876544,139.85185185185188,0)" xlink:href="#N"/></g><path fill="#333" d="M24 0v-248h195v40H76v63h132v40H76v65h150V0H24" id="O"/><path fill="#333" d="M144 0l-44-69L55 0H2l70-98-66-92h53l41 62 40-62h54l-67 91 71 99h-54" id="P"/><path fill="#333" d="M135-194c53 0 70 44 70 98 0 56-19 98-73 100-31 1-45-17-59-34 3 33 2 69 2 105H25l-1-265h48c2 10 0 23 3 31 11-24 29-35 60-35zM114-30c33 0 39-31 40-66 0-38-9-64-40-64-56 0-55 130 0 130" id="Q"/><path fill="#333" d="M110-194c64 0 96 36 96 99 0 64-35 99-97 99-61 0-95-36-95-99 0-62 34-99 96-99zm-1 164c35 0 45-28 45-65 0-40-10-65-43-65-34 0-45 26-45 65 0 36 10 65 43 65" id="R"/><path fill="#333" d="M135-150c-39-12-60 13-60 57V0H25l-1-190h47c2 13-1 29 3 40 6-28 27-53 61-41v41" id="S"/><path fill="#333" d="M115-3C79 11 28 4 28-45v-112H4v-33h27l15-45h31v45h36v33H77v99c-1 23 16 31 38 25v30" id="T"/><g id="g"><use transform="matrix(0.05,0,0,0.05,0,0)" xlink:href="#O"/><use transform="matrix(0.05,0,0,0.05,12,0)" xlink:href="#P"/><use transform="matrix(0.05,0,0,0.05,22,0)" xlink:href="#Q"/><use transform="matrix(0.05,0,0,0.05,32.95,0)" xlink:href="#R"/><use transform="matrix(0.05,0,0,0.05,43.900000000000006,0)" xlink:href="#S"/><use transform="matrix(0.05,0,0,0.05,50.900000000000006,0)" xlink:href="#T"/></g><path fill="#333" d="M24-248c120-7 223 5 221 122C244-46 201 0 124 0H24v-248zM76-40c74 7 117-18 117-86 0-67-45-88-117-82v168" id="U"/><path fill="#333" d="M133-34C117-15 103 5 69 4 32 3 11-16 11-54c-1-60 55-63 116-61 1-26-3-47-28-47-18 1-26 9-28 27l-52-2c7-38 36-58 82-57s74 22 75 68l1 82c-1 14 12 18 25 15v27c-30 8-71 5-69-32zm-48 3c29 0 43-24 42-57-32 0-66-3-65 30 0 17 8 27 23 27" id="V"/><g id="h"><use transform="matrix(0.05,0,0,0.05,0,0)" xlink:href="#U"/><use transform="matrix(0.05,0,0,0.05,12.950000000000001,0)" xlink:href="#V"/><use transform="matrix(0.05,0,0,0.05,22.950000000000003,0)" xlink:href="#T"/><use transform="matrix(0.05,0,0,0.05,28.900000000000002,0)" xlink:href="#V"/></g><path fill="#333" d="M147 0H94L2-248h55l64 206c17-72 42-137 63-206h54" id="W"/><path fill="#333" d="M25-224v-37h50v37H25zM25 0v-190h50V0H25" id="X"/><path fill="#333" d="M185-48c-13 30-37 53-82 52C43 2 14-33 14-96s30-98 90-98c62 0 83 45 84 108H66c0 31 8 55 39 56 18 0 30-7 34-22zm-45-69c5-46-57-63-70-21-2 6-4 13-4 21h74" id="Y"/><path fill="#333" d="M231 0h-52l-39-155L100 0H48L-1-190h46L77-45c9-52 24-97 36-145h53l37 145 32-145h46" id="Z"/><g id="i"><use transform="matrix(0.05,0,0,0.05,0,0)" xlink:href="#W"/><use transform="matrix(0.05,0,0,0.05,11.65,0)" xlink:href="#X"/><use transform="matrix(0.05,0,0,0.05,16.65,0)" xlink:href="#Y"/><use transform="matrix(0.05,0,0,0.05,26.649999999999995,0)" xlink:href="#Z"/></g><path fill="#333" d="M136-208V0H84v-208H4v-40h212v40h-80" id="aa"/><path fill="#333" d="M135-194c52 0 70 43 70 98 0 56-19 99-73 100-30 1-46-15-58-35L72 0H24l1-261h50v104c11-23 29-37 60-37zM114-30c31 0 40-27 40-66 0-37-7-63-39-63s-41 28-41 65c0 36 8 64 40 64" id="ab"/><path fill="#333" d="M25 0v-261h50V0H25" id="ac"/><g id="j"><use transform="matrix(0.05,0,0,0.05,0,0)" xlink:href="#aa"/><use transform="matrix(0.05,0,0,0.05,9.600000000000001,0)" xlink:href="#V"/><use transform="matrix(0.05,0,0,0.05,19.6,0)" xlink:href="#ab"/><use transform="matrix(0.05,0,0,0.05,30.55,0)" xlink:href="#ac"/><use transform="matrix(0.05,0,0,0.05,35.550000000000004,0)" xlink:href="#Y"/></g><path fill="#333" d="M88-194c31-1 46 15 58 34l-1-101h50l1 261h-48c-2-10 0-23-3-31C134-8 116 4 84 4 32 4 16-41 15-95c0-56 19-97 73-99zm17 164c33 0 40-30 41-66 1-37-9-64-41-64s-38 30-39 65c0 43 13 65 39 65" id="ad"/><g id="k"><use transform="matrix(0.05,0,0,0.05,0,0)" xlink:href="#O"/><use transform="matrix(0.05,0,0,0.05,12,0)" xlink:href="#ad"/><use transform="matrix(0.05,0,0,0.05,22.950000000000003,0)" xlink:href="#X"/><use transform="matrix(0.05,0,0,0.05,27.950000000000003,0)" xlink:href="#T"/></g><path fill="#333" d="M76-208v77h127v40H76V0H24v-248h183v40H76" id="ae"/><g id="l"><use transform="matrix(0.05,0,0,0.05,0,0)" xlink:href="#ae"/><use transform="matrix(0.05,0,0,0.05,10.950000000000001,0)" xlink:href="#X"/><use transform="matrix(0.05,0,0,0.05,15.950000000000001,0)" xlink:href="#ac"/><use transform="matrix(0.05,0,0,0.05,20.950000000000003,0)" xlink:href="#T"/><use transform="matrix(0.05,0,0,0.05,26.900000000000002,0)" xlink:href="#Y"/><use transform="matrix(0.05,0,0,0.05,36.900000000000006,0)" xlink:href="#S"/></g><path fill="#333" d="M169-182c-1-43-94-46-97-3 18 66 151 10 154 114 3 95-165 93-204 36-6-8-10-19-12-30l50-8c3 46 112 56 116 5-17-69-150-10-154-114-4-87 153-88 188-35 5 8 8 18 10 28" id="af"/><path fill="#333" d="M195-6C206 82 75 100 31 46c-4-6-6-13-8-21l49-6c3 16 16 24 34 25 40 0 42-37 40-79-11 22-30 35-61 35-53 0-70-43-70-97 0-56 18-96 73-97 30 0 46 14 59 34l2-30h47zm-90-29c32 0 41-27 41-63 0-35-9-62-40-62-32 0-39 29-40 63 0 36 9 62 39 62" id="ag"/><g id="m"><use transform="matrix(0.05,0,0,0.05,0,0)" xlink:href="#af"/><use transform="matrix(0.05,0,0,0.05,12,0)" xlink:href="#T"/><use transform="matrix(0.05,0,0,0.05,17.95,0)" xlink:href="#V"/><use transform="matrix(0.05,0,0,0.05,27.950000000000003,0)" xlink:href="#ag"/><use transform="matrix(0.05,0,0,0.05,38.9,0)" xlink:href="#Y"/></g><path fill="#333" d="M67-125c0 53 21 87 73 88 37 1 54-22 65-47l45 17C233-25 199 4 140 4 58 4 20-42 15-125 8-235 124-281 211-232c18 10 29 29 36 50l-46 12c-8-25-30-41-62-41-52 0-71 34-72 86" id="ah"/><path fill="#333" d="M114-157C55-157 80-60 75 0H25v-261h50l-1 109c12-26 28-41 61-42 86-1 58 113 63 194h-50c-7-57 23-157-34-157" id="ai"/><path fill="#333" d="M135-194c87-1 58 113 63 194h-50c-7-57 23-157-34-157-59 0-34 97-39 157H25l-1-190h47c2 12-1 28 3 38 12-26 28-41 61-42" id="aj"/><g id="n"><use transform="matrix(0.05,0,0,0.05,0,0)" xlink:href="#ah"/><use transform="matrix(0.05,0,0,0.05,12.950000000000001,0)" xlink:href="#ai"/><use transform="matrix(0.05,0,0,0.05,23.900000000000002,0)" xlink:href="#V"/><use transform="matrix(0.05,0,0,0.05,33.900000000000006,0)" xlink:href="#aj"/><use transform="matrix(0.05,0,0,0.05,44.85000000000001,0)" xlink:href="#ag"/><use transform="matrix(0.05,0,0,0.05,55.80000000000001,0)" xlink:href="#Y"/></g><path fill="#333" d="M199 0l-22-63H83L61 0H9l90-248h61L250 0h-51zm-33-102l-36-108c-10 38-24 72-36 108h72" id="ak"/><path fill="#333" d="M128 0H69L1-190h53L99-40l48-150h52" id="al"/><g id="o"><use transform="matrix(0.05,0,0,0.05,0,0)" xlink:href="#ak"/><use transform="matrix(0.05,0,0,0.05,12.950000000000001,0)" xlink:href="#Q"/><use transform="matrix(0.05,0,0,0.05,23.900000000000002,0)" xlink:href="#Q"/><use transform="matrix(0.05,0,0,0.05,34.85,0)" xlink:href="#S"/><use transform="matrix(0.05,0,0,0.05,41.85,0)" xlink:href="#R"/><use transform="matrix(0.05,0,0,0.05,52.800000000000004,0)" xlink:href="#al"/><use transform="matrix(0.05,0,0,0.05,62.800000000000004,0)" xlink:href="#Y"/></g><path fill="#333" d="M85 4C-2 5 27-109 22-190h50c7 57-23 150 33 157 60-5 35-97 40-157h50l1 190h-47c-2-12 1-28-3-38-12 25-28 42-61 42" id="am"/><g id="p"><use transform="matrix(0.05,0,0,0.05,0,0)" xlink:href="#ak"/><use transform="matrix(0.05,0,0,0.05,12.950000000000001,0)" xlink:href="#am"/><use transform="matrix(0.05,0,0,0.05,23.900000000000002,0)" xlink:href="#ad"/><use transform="matrix(0.05,0,0,0.05,34.85,0)" xlink:href="#X"/><use transform="matrix(0.05,0,0,0.05,39.85,0)" xlink:href="#T"/></g><path fill="#333" d="M186 0v-106H76V0H24v-248h52v99h110v-99h50V0h-50" id="an"/><path fill="#333" d="M137-138c1-29-70-34-71-4 15 46 118 7 119 86 1 83-164 76-172 9l43-7c4 19 20 25 44 25 33 8 57-30 24-41C81-84 22-81 20-136c-2-80 154-74 161-7" id="ao"/><path fill="#333" d="M123 10C108 53 80 86 19 72V37c35 8 53-11 59-39L3-190h52l48 148c12-52 28-100 44-148h51" id="ap"/><g id="q"><use transform="matrix(0.05,0,0,0.05,0,0)" xlink:href="#an"/><use transform="matrix(0.05,0,0,0.05,12.950000000000001,0)" xlink:href="#X"/><use transform="matrix(0.05,0,0,0.05,17.950000000000003,0)" xlink:href="#ao"/><use transform="matrix(0.05,0,0,0.05,27.950000000000003,0)" xlink:href="#T"/><use transform="matrix(0.05,0,0,0.05,33.900000000000006,0)" xlink:href="#R"/><use transform="matrix(0.05,0,0,0.05,44.85000000000001,0)" xlink:href="#S"/><use transform="matrix(0.05,0,0,0.05,51.85,0)" xlink:href="#ap"/></g><g id="r"><use transform="matrix(0.05,0,0,0.05,0,0)" xlink:href="#W"/><use transform="matrix(0.05,0,0,0.05,11.65,0)" xlink:href="#X"/><use transform="matrix(0.05,0,0,0.05,16.65,0)" xlink:href="#Y"/><use transform="matrix(0.05,0,0,0.05,26.649999999999995,0)" xlink:href="#Z"/><use transform="matrix(0.05,0,0,0.05,40.65,0)" xlink:href="#Y"/><use transform="matrix(0.05,0,0,0.05,50.65,0)" xlink:href="#S"/></g><g id="s"><use transform="matrix(0.05,0,0,0.05,0,0)" xlink:href="#O"/><use transform="matrix(0.05,0,0,0.05,12,0)" xlink:href="#ad"/><use transform="matrix(0.05,0,0,0.05,22.950000000000003,0)" xlink:href="#X"/><use transform="matrix(0.05,0,0,0.05,27.950000000000003,0)" xlink:href="#T"/><use transform="matrix(0.05,0,0,0.05,33.900000000000006,0)" xlink:href="#R"/><use transform="matrix(0.05,0,0,0.05,44.85000000000001,0)" xlink:href="#S"/></g><g id="t"><use transform="matrix(0.05,0,0,0.05,0,0)" xlink:href="#ak"/><use transform="matrix(0.05,0,0,0.05,12.950000000000001,0)" xlink:href="#am"/><use transform="matrix(0.05,0,0,0.05,23.900000000000002,0)" xlink:href="#ad"/><use transform="matrix(0.05,0,0,0.05,34.85,0)" xlink:href="#X"/><use transform="matrix(0.05,0,0,0.05,39.85,0)" xlink:href="#T"/><use transform="matrix(0.05,0,0,0.05,45.800000000000004,0)" xlink:href="#R"/><use transform="matrix(0.05,0,0,0.05,56.75,0)" xlink:href="#S"/></g><g id="u"><use transform="matrix(0.05,0,0,0.05,0,0)" xlink:href="#ak"/><use transform="matrix(0.05,0,0,0.05,12.950000000000001,0)" xlink:href="#Q"/><use transform="matrix(0.05,0,0,0.05,23.900000000000002,0)" xlink:href="#Q"/><use transform="matrix(0.05,0,0,0.05,34.85,0)" xlink:href="#S"/><use transform="matrix(0.05,0,0,0.05,41.85,0)" xlink:href="#R"/><use transform="matrix(0.05,0,0,0.05,52.800000000000004,0)" xlink:href="#al"/><use transform="matrix(0.05,0,0,0.05,62.800000000000004,0)" xlink:href="#Y"/><use transform="matrix(0.05,0,0,0.05,72.80000000000001,0)" xlink:href="#S"/></g><path fill="#333" d="M15-91v-56l181-69v40L49-119l147 57v40" id="aq"/><path fill="#333" d="M15-22v-40l146-57-146-57v-40l181 69v56" id="ar"/><g id="v"><use transform="matrix(0.05,0,0,0.05,0,0)" xlink:href="#aq"/><use transform="matrix(0.05,0,0,0.05,10.5,0)" xlink:href="#aq"/><use transform="matrix(0.05,0,0,0.05,21,0)" xlink:href="#Y"/><use transform="matrix(0.05,0,0,0.05,31,0)" xlink:href="#P"/><use transform="matrix(0.05,0,0,0.05,41,0)" xlink:href="#T"/><use transform="matrix(0.05,0,0,0.05,46.95,0)" xlink:href="#Y"/><use transform="matrix(0.05,0,0,0.05,56.95,0)" xlink:href="#aj"/><use transform="matrix(0.05,0,0,0.05,67.9,0)" xlink:href="#ad"/><use transform="matrix(0.05,0,0,0.05,78.85000000000001,0)" xlink:href="#ar"/><use transform="matrix(0.05,0,0,0.05,89.35000000000001,0)" xlink:href="#ar"/></g><path fill="#333" d="M190-63c-7 42-38 67-86 67-59 0-84-38-90-98-12-110 154-137 174-36l-49 2c-2-19-15-32-35-32-30 0-35 28-38 64-6 74 65 87 74 30" id="as"/><g id="w"><use transform="matrix(0.05,0,0,0.05,0,0)" xlink:href="#aq"/><use transform="matrix(0.05,0,0,0.05,10.5,0)" xlink:href="#aq"/><use transform="matrix(0.05,0,0,0.05,21,0)" xlink:href="#X"/><use transform="matrix(0.05,0,0,0.05,26,0)" xlink:href="#aj"/><use transform="matrix(0.05,0,0,0.05,36.95,0)" xlink:href="#as"/><use transform="matrix(0.05,0,0,0.05,46.95,0)" xlink:href="#ac"/><use transform="matrix(0.05,0,0,0.05,51.95,0)" xlink:href="#am"/><use transform="matrix(0.05,0,0,0.05,62.900000000000006,0)" xlink:href="#ad"/><use transform="matrix(0.05,0,0,0.05,73.85000000000001,0)" xlink:href="#Y"/><use transform="matrix(0.05,0,0,0.05,83.85000000000001,0)" xlink:href="#ar"/><use transform="matrix(0.05,0,0,0.05,94.35000000000001,0)" xlink:href="#ar"/></g><path fill="#333" d="M220-157c-53 9-28 100-34 157h-49v-107c1-27-5-49-29-50C55-147 81-57 75 0H25l-1-190h47c2 12-1 28 3 38 10-53 101-56 108 0 13-22 24-43 59-42 82 1 51 116 57 194h-49v-107c-1-25-5-48-29-50" id="at"/><g id="x"><use transform="matrix(0.05,0,0,0.05,0,0)" xlink:href="#ak"/><use transform="matrix(0.05,0,0,0.05,12.950000000000001,0)" xlink:href="#ad"/><use transform="matrix(0.05,0,0,0.05,23.900000000000002,0)" xlink:href="#at"/><use transform="matrix(0.05,0,0,0.05,39.900000000000006,0)" xlink:href="#X"/><use transform="matrix(0.05,0,0,0.05,44.900000000000006,0)" xlink:href="#aj"/><use transform="matrix(0.05,0,0,0.05,55.85,0)" xlink:href="#X"/><use transform="matrix(0.05,0,0,0.05,60.85,0)" xlink:href="#ao"/><use transform="matrix(0.05,0,0,0.05,70.85000000000001,0)" xlink:href="#T"/><use transform="matrix(0.05,0,0,0.05,76.80000000000001,0)" xlink:href="#S"/><use transform="matrix(0.05,0,0,0.05,83.80000000000001,0)" xlink:href="#V"/><use transform="matrix(0.05,0,0,0.05,93.80000000000001,0)" xlink:href="#T"/><use transform="matrix(0.05,0,0,0.05,99.75000000000001,0)" xlink:href="#R"/><use transform="matrix(0.05,0,0,0.05,110.7,0)" xlink:href="#S"/></g><path fill="#333" d="M121-226c-27-7-43 5-38 36h38v33H83V0H34v-157H6v-33h28c-9-59 32-81 87-68v32" id="au"/><g id="y"><use transform="matrix(0.05,0,0,0.05,0,0)" xlink:href="#ah"/><use transform="matrix(0.05,0,0,0.05,12.950000000000001,0)" xlink:href="#R"/><use transform="matrix(0.05,0,0,0.05,23.900000000000002,0)" xlink:href="#aj"/><use transform="matrix(0.05,0,0,0.05,34.85,0)" xlink:href="#au"/><use transform="matrix(0.05,0,0,0.05,40.800000000000004,0)" xlink:href="#X"/><use transform="matrix(0.05,0,0,0.05,45.800000000000004,0)" xlink:href="#ag"/><use transform="matrix(0.05,0,0,0.05,56.75,0)" xlink:href="#am"/><use transform="matrix(0.05,0,0,0.05,67.7,0)" xlink:href="#S"/><use transform="matrix(0.05,0,0,0.05,74.7,0)" xlink:href="#Y"/></g></defs></g></svg>